G04*
G04 #@! TF.GenerationSoftware,Altium Limited,Altium Designer,19.0.4 (130)*
G04*
G04 Layer_Color=32768*
%FSLAX25Y25*%
%MOIN*%
G70*
G01*
G75*
%ADD15C,0.00500*%
%ADD89C,0.00300*%
%ADD90C,0.00394*%
%ADD91C,0.00200*%
D15*
X194650Y277000D02*
G03*
X194650Y277000I-3150J0D01*
G01*
X180870Y285268D02*
X202130D01*
Y268732D02*
Y285268D01*
X180870Y268732D02*
X202130D01*
X180870D02*
Y285268D01*
D89*
X224678Y274000D02*
X223678D01*
X223178Y274500D01*
X223678Y275000D01*
X224678D01*
X223928D01*
Y274000D01*
X224678Y275500D02*
Y275999D01*
Y275749D01*
X223178D01*
X223428Y275500D01*
X223346Y232169D02*
X221847Y231170D01*
X223346D02*
X221847Y232169D01*
Y230670D02*
Y230170D01*
Y230420D01*
X223346D01*
X223096Y230670D01*
X210445Y247099D02*
Y248348D01*
X210195Y248598D01*
X209695D01*
X209445Y248348D01*
Y247099D01*
X208945Y247349D02*
X208695Y247099D01*
X208196D01*
X207946Y247349D01*
Y247599D01*
X208196Y247849D01*
X208446D01*
X208196D01*
X207946Y248099D01*
Y248348D01*
X208196Y248598D01*
X208695D01*
X208945Y248348D01*
D90*
X226634Y280831D02*
G03*
X227028Y281224I0J394D01*
G01*
X220728D02*
G03*
X221122Y280831I394J0D01*
G01*
Y282799D02*
G03*
X220728Y282405I0J-394D01*
G01*
X227028D02*
G03*
X226634Y282799I-394J0D01*
G01*
X227028Y271776D02*
G03*
X226634Y272169I-394J0D01*
G01*
Y270201D02*
G03*
X227028Y270595I0J394D01*
G01*
X220728Y270595D02*
G03*
X221122Y270201I394J0D01*
G01*
Y272169D02*
G03*
X220728Y271776I0J-394D01*
G01*
X190469Y245921D02*
G03*
X190862Y245528I394J0D01*
G01*
X186138D02*
G03*
X186531Y245921I0J394D01*
G01*
Y238047D02*
G03*
X186138Y238441I-394J0D01*
G01*
X190862D02*
G03*
X190469Y238047I0J-394D01*
G01*
X187043Y245409D02*
G03*
X186650Y245016I0J-394D01*
G01*
Y238953D02*
G03*
X187043Y238559I394J0D01*
G01*
X190350Y245016D02*
G03*
X189957Y245409I-394J0D01*
G01*
Y238559D02*
G03*
X190350Y238953I0J394D01*
G01*
X168268Y258032D02*
G03*
X168268Y258032I-197J0D01*
G01*
X225783Y225870D02*
G03*
X225390Y225476I0J-394D01*
G01*
X219878D02*
G03*
X219484Y225870I-394J0D01*
G01*
Y232957D02*
G03*
X219878Y233350I0J394D01*
G01*
X225390D02*
G03*
X225783Y232957I394J0D01*
G01*
X219996Y226382D02*
G03*
X220390Y225988I394J0D01*
G01*
Y232839D02*
G03*
X219996Y232445I0J-394D01*
G01*
X224878Y225988D02*
G03*
X225272Y226382I0J394D01*
G01*
Y232445D02*
G03*
X224878Y232839I-394J0D01*
G01*
X212303Y244352D02*
G03*
X212303Y244352I-394J0D01*
G01*
X112621Y257236D02*
X113920D01*
X112621Y259717D02*
X113920D01*
X112621Y257236D02*
Y259717D01*
X113920Y257236D02*
Y259717D01*
X221122Y280831D02*
X226634Y280831D01*
X221122Y272169D02*
X226634D01*
X221122Y282799D02*
X226634D01*
X227028Y281224D02*
Y282405D01*
X226909Y272057D02*
Y280943D01*
X227028Y270595D02*
Y271776D01*
X221122Y270201D02*
X226634Y270201D01*
X220728Y270595D02*
Y271776D01*
X220846Y272057D02*
Y280943D01*
X220728Y281224D02*
Y282405D01*
X162850Y264260D02*
Y266740D01*
X164150Y264260D02*
Y266740D01*
X162850Y264260D02*
X164150D01*
X162850Y266740D02*
X164150D01*
X168760Y267351D02*
X171240D01*
X168760Y268650D02*
X171240D01*
Y267351D02*
Y268650D01*
X168760Y267351D02*
Y268650D01*
X173679Y268650D02*
X176160D01*
X173679Y267350D02*
X176160D01*
X173679D02*
Y268650D01*
X176160Y267350D02*
Y268650D01*
X154518Y246599D02*
X155818D01*
X154518Y249080D02*
X155818D01*
X154518Y246599D02*
Y249080D01*
X155818Y246599D02*
Y249080D01*
X150425Y251493D02*
Y252792D01*
X147945Y251493D02*
Y252792D01*
Y251493D02*
X150425D01*
X147945Y252792D02*
X150425D01*
X223350Y253760D02*
Y256240D01*
X224650Y253760D02*
Y256240D01*
X223350Y253760D02*
X224650D01*
X223350Y256240D02*
X224650D01*
X224547Y260654D02*
Y263134D01*
X223248Y260654D02*
Y263134D01*
X224547D01*
X223248Y260654D02*
X224547D01*
X221394Y257827D02*
X223874D01*
X221394Y259126D02*
X223874D01*
Y257827D02*
Y259126D01*
X221394Y257827D02*
Y259126D01*
X211862Y248874D02*
X213161D01*
X211862Y246394D02*
X213161D01*
X211862D02*
Y248874D01*
X213161Y246394D02*
Y248874D01*
X150425Y254371D02*
Y255670D01*
X147945Y254371D02*
Y255670D01*
Y254371D02*
X150425D01*
X147945Y255670D02*
X150425D01*
X115974Y246015D02*
Y247314D01*
X118454Y246015D02*
Y247314D01*
X115974D02*
X118454D01*
X115974Y246015D02*
X118454D01*
X118454Y243515D02*
Y244814D01*
X115974Y243515D02*
Y244814D01*
Y243515D02*
X118454D01*
X115974Y244814D02*
X118454D01*
X115974Y241015D02*
X118454D01*
X115974Y242314D02*
X118454D01*
Y241015D02*
Y242314D01*
X115974Y241015D02*
Y242314D01*
Y238515D02*
Y239814D01*
X118454Y238515D02*
Y239814D01*
X115974D02*
X118454D01*
X115974Y238515D02*
X118454D01*
X115974Y236015D02*
Y237314D01*
X118454Y236015D02*
Y237314D01*
X115974D02*
X118454D01*
X115974Y236015D02*
X118454D01*
X192350Y245240D02*
X193650D01*
X192350Y242760D02*
X193650D01*
X192350D02*
Y245240D01*
X193650Y242760D02*
Y245240D01*
X192350Y238760D02*
X193650D01*
X192350Y241240D02*
X193650D01*
Y238760D02*
Y241240D01*
X192350Y238760D02*
Y241240D01*
X186531Y238047D02*
X190469D01*
X186138Y238441D02*
Y245528D01*
X186531Y245921D02*
X190469D01*
X190862Y238441D02*
Y245528D01*
X186650Y238953D02*
Y245016D01*
X190350Y238953D02*
Y245016D01*
X187043Y238559D02*
X189957D01*
X187043Y245409D02*
X189957D01*
X199260Y249406D02*
X201740D01*
X199260Y248106D02*
X201740D01*
Y249406D01*
X199260Y248106D02*
Y249406D01*
X198083Y259929D02*
Y264063D01*
X195917Y259929D02*
Y264063D01*
X198083D01*
X195917Y259929D02*
X198083D01*
X205760Y250850D02*
X208240D01*
X205760Y252150D02*
X208240D01*
X205760Y250850D02*
Y252150D01*
X208240Y250850D02*
Y252150D01*
X111350Y265882D02*
X112650D01*
X111350Y268362D02*
X112650D01*
X111350Y265882D02*
Y268362D01*
X112650Y265882D02*
Y268362D01*
X162850Y259504D02*
X164150D01*
X162850Y261984D02*
X164150D01*
X162850Y259504D02*
Y261984D01*
X164150Y259504D02*
Y261984D01*
X158917Y259933D02*
X161083D01*
X158917Y264067D02*
X161083D01*
X158917Y259933D02*
Y264067D01*
X161083Y259933D02*
Y264067D01*
X166595Y257244D02*
X178405D01*
X166595Y262756D02*
X178405D01*
X166595Y257244D02*
Y262756D01*
X178405Y257244D02*
Y262756D01*
X213240Y257638D02*
X214539D01*
X213240Y260118D02*
X214539D01*
X213240Y257638D02*
Y260118D01*
X214539Y257638D02*
Y260118D01*
X210008Y257760D02*
X211307D01*
X210008Y260240D02*
X211307D01*
X210008Y257760D02*
Y260240D01*
X211307Y257760D02*
Y260240D01*
X207650Y257760D02*
Y260240D01*
X206350Y257760D02*
Y260240D01*
X207650D01*
X206350Y257760D02*
X207650D01*
X191362Y258773D02*
Y262226D01*
X191756Y258773D02*
Y262226D01*
X186638Y258773D02*
Y262226D01*
X186244Y258773D02*
Y262226D01*
X185063D02*
X185063Y258773D01*
X185063Y262226D02*
X192937D01*
Y258773D02*
Y262226D01*
X185063Y258773D02*
X192937D01*
X191362Y239774D02*
Y243226D01*
X191756Y239774D02*
Y243226D01*
X186638Y239774D02*
Y243226D01*
X186244Y239774D02*
Y243226D01*
X185063D02*
X185063Y239774D01*
X185063Y243226D02*
X192937D01*
Y239774D02*
Y243226D01*
X185063Y239774D02*
X192937D01*
X222516Y239118D02*
X224996D01*
X222516Y240417D02*
X224996D01*
Y239118D02*
Y240417D01*
X222516Y239118D02*
Y240417D01*
X218150Y245138D02*
Y247618D01*
X216850Y245138D02*
Y247618D01*
X218150D01*
X216850Y245138D02*
X218150D01*
X219760Y246729D02*
X222240D01*
X219760Y248028D02*
X222240D01*
Y246729D02*
Y248028D01*
X219760Y246729D02*
Y248028D01*
X221516Y235606D02*
X223996D01*
X221516Y236906D02*
X223996D01*
Y235606D02*
Y236906D01*
X221516Y235606D02*
Y236906D01*
X219878Y233350D02*
X225390D01*
X219484Y225870D02*
Y232957D01*
X219878Y225476D02*
X225390D01*
X225783Y225870D02*
Y232957D01*
X219996Y226382D02*
Y232445D01*
X225272Y226382D02*
Y232445D01*
X220390Y232839D02*
X224878D01*
X220390Y225988D02*
X224878D01*
X221894Y223063D02*
X224374D01*
X221894Y221764D02*
X224374D01*
X221894D02*
Y223063D01*
X224374Y221764D02*
Y223063D01*
X193760Y236150D02*
X196240D01*
X193760Y234850D02*
X196240D01*
X193760D02*
Y236150D01*
X196240Y234850D02*
Y236150D01*
X204382D02*
X206862D01*
X204382Y234850D02*
X206862D01*
X204382D02*
Y236150D01*
X206862Y234850D02*
Y236150D01*
X202004Y227153D02*
Y233846D01*
X198461Y227153D02*
Y233846D01*
X202004D01*
X198461Y227153D02*
X202004D01*
X204654Y230075D02*
X211347D01*
X204654Y233618D02*
X211347D01*
Y230075D02*
Y233618D01*
X204654Y230075D02*
Y233618D01*
X211067Y226417D02*
Y228583D01*
X206933Y226417D02*
Y228583D01*
Y226417D02*
X211067D01*
X206933Y228583D02*
X211067D01*
X193228Y225532D02*
Y232224D01*
X196772Y225532D02*
Y232224D01*
X193228Y225532D02*
X196772D01*
X193228Y232224D02*
X196772D01*
X203772Y258154D02*
Y264847D01*
X200228Y258154D02*
Y264847D01*
X203772D01*
X200228Y258154D02*
X203772D01*
X200712Y255010D02*
X214665D01*
X200712Y240809D02*
X214665D01*
X200712D02*
Y255010D01*
X214665Y240809D02*
Y255010D01*
X187933Y257083D02*
X192067D01*
X187933Y254917D02*
X192067D01*
X187933D02*
Y257083D01*
X192067Y254917D02*
Y257083D01*
X185653Y249728D02*
X192347D01*
X185653Y253272D02*
X192347D01*
Y249728D02*
Y253272D01*
X185653Y249728D02*
Y253272D01*
Y248150D02*
X192347D01*
X185653Y244606D02*
X192347D01*
X185653D02*
Y248150D01*
X192347Y244606D02*
Y248150D01*
D91*
X113870Y260176D02*
X112671D01*
Y260776D01*
X112871Y260976D01*
X113270D01*
X113470Y260776D01*
Y260176D01*
Y260576D02*
X113870Y260976D01*
X112871Y261376D02*
X112671Y261576D01*
Y261976D01*
X112871Y262176D01*
X113670D01*
X113870Y261976D01*
Y261576D01*
X113670Y261376D01*
X112871D01*
X163100Y261500D02*
X162900Y261300D01*
Y260900D01*
X163100Y260700D01*
X163900D01*
X164100Y260900D01*
Y261300D01*
X163900Y261500D01*
X164100Y262699D02*
Y261900D01*
X163300Y262699D01*
X163100D01*
X162900Y262499D01*
Y262100D01*
X163100Y261900D01*
X164100Y263099D02*
Y263499D01*
Y263299D01*
X162900D01*
X163100Y263099D01*
X167400Y267400D02*
X168200D01*
Y268000D01*
X167800D01*
X168200D01*
Y268600D01*
X167000Y267400D02*
Y268600D01*
X166401D01*
X166201Y268400D01*
Y268200D01*
X166401Y268000D01*
X167000D01*
X166401D01*
X166201Y267800D01*
Y267600D01*
X166401Y267400D01*
X167000D01*
X165801Y268600D02*
X165401D01*
X165601D01*
Y267400D01*
X165801Y267600D01*
X170919Y268400D02*
X170719Y268600D01*
X170319D01*
X170119Y268400D01*
Y267600D01*
X170319Y267400D01*
X170719D01*
X170919Y267600D01*
X172119Y267400D02*
X171319D01*
X172119Y268200D01*
Y268400D01*
X171919Y268600D01*
X171519D01*
X171319Y268400D01*
X173318Y267400D02*
X172519D01*
X173318Y268200D01*
Y268400D01*
X173118Y268600D01*
X172719D01*
X172519Y268400D01*
X155768Y249539D02*
X154569D01*
Y250139D01*
X154768Y250339D01*
X155168D01*
X155368Y250139D01*
Y249539D01*
Y249939D02*
X155768Y250339D01*
X154768Y250739D02*
X154569Y250939D01*
Y251339D01*
X154768Y251539D01*
X154968D01*
X155168Y251339D01*
X155368Y251539D01*
X155568D01*
X155768Y251339D01*
Y250939D01*
X155568Y250739D01*
X155368D01*
X155168Y250939D01*
X154968Y250739D01*
X154768D01*
X155168Y250939D02*
Y251339D01*
X147485Y252743D02*
Y251543D01*
X146885D01*
X146685Y251743D01*
Y252143D01*
X146885Y252343D01*
X147485D01*
X147085D02*
X146685Y252743D01*
X146285Y251543D02*
X145486D01*
Y251743D01*
X146285Y252543D01*
Y252743D01*
X223600Y251000D02*
X223400Y250800D01*
Y250400D01*
X223600Y250200D01*
X224400D01*
X224600Y250400D01*
Y250800D01*
X224400Y251000D01*
X224600Y251400D02*
Y251800D01*
Y251600D01*
X223400D01*
X223600Y251400D01*
Y252399D02*
X223400Y252599D01*
Y252999D01*
X223600Y253199D01*
X223800D01*
X224000Y252999D01*
Y252799D01*
Y252999D01*
X224200Y253199D01*
X224400D01*
X224600Y252999D01*
Y252599D01*
X224400Y252399D01*
X224497Y260094D02*
X223298D01*
Y259294D01*
Y258294D02*
X224497D01*
X223897Y258894D01*
Y258094D01*
X223298Y257695D02*
X224097D01*
X224497Y257295D01*
X224097Y256895D01*
X223298D01*
X223897D01*
Y257695D01*
X220834Y257877D02*
Y259076D01*
X220034D01*
X218834Y257877D02*
X219634D01*
Y258477D01*
X219234Y258277D01*
X219034D01*
X218834Y258477D01*
Y258876D01*
X219034Y259076D01*
X219434D01*
X219634Y258876D01*
X212912Y243634D02*
X213111Y243434D01*
Y243034D01*
X212912Y242834D01*
X212112D01*
X211912Y243034D01*
Y243434D01*
X212112Y243634D01*
Y244034D02*
X211912Y244233D01*
Y244633D01*
X212112Y244833D01*
X212912D01*
X213111Y244633D01*
Y244233D01*
X212912Y244034D01*
X212712D01*
X212512Y244233D01*
Y244833D01*
X147485Y255621D02*
Y254421D01*
X146885D01*
X146685Y254621D01*
Y255021D01*
X146885Y255221D01*
X147485D01*
X147085D02*
X146685Y255621D01*
X145486Y254421D02*
X145886Y254621D01*
X146285Y255021D01*
Y255421D01*
X146086Y255621D01*
X145686D01*
X145486Y255421D01*
Y255221D01*
X145686Y255021D01*
X146285D01*
X118914Y246064D02*
Y247264D01*
X119514D01*
X119714Y247064D01*
Y246664D01*
X119514Y246464D01*
X118914D01*
X119314D02*
X119714Y246064D01*
X120914Y247264D02*
X120114D01*
Y246664D01*
X120514Y246864D01*
X120714D01*
X120914Y246664D01*
Y246264D01*
X120714Y246064D01*
X120314D01*
X120114Y246264D01*
X115514Y244764D02*
Y243565D01*
X114915D01*
X114715Y243765D01*
Y244164D01*
X114915Y244364D01*
X115514D01*
X115114D02*
X114715Y244764D01*
X113715D02*
Y243565D01*
X114315Y244164D01*
X113515D01*
X118914Y241064D02*
Y242264D01*
X119514D01*
X119714Y242064D01*
Y241664D01*
X119514Y241464D01*
X118914D01*
X119314D02*
X119714Y241064D01*
X120114D02*
X120514D01*
X120314D01*
Y242264D01*
X120114Y242064D01*
X118914Y238564D02*
Y239764D01*
X119514D01*
X119714Y239564D01*
Y239164D01*
X119514Y238964D01*
X118914D01*
X119314D02*
X119714Y238564D01*
X120914D02*
X120114D01*
X120914Y239364D01*
Y239564D01*
X120714Y239764D01*
X120314D01*
X120114Y239564D01*
X118914Y236064D02*
Y237264D01*
X119514D01*
X119714Y237064D01*
Y236664D01*
X119514Y236464D01*
X118914D01*
X119314D02*
X119714Y236064D01*
X120114Y237064D02*
X120314Y237264D01*
X120714D01*
X120914Y237064D01*
Y236864D01*
X120714Y236664D01*
X120514D01*
X120714D01*
X120914Y236464D01*
Y236264D01*
X120714Y236064D01*
X120314D01*
X120114Y236264D01*
X193400Y240000D02*
X193600Y239800D01*
Y239400D01*
X193400Y239200D01*
X192600D01*
X192400Y239400D01*
Y239800D01*
X192600Y240000D01*
X192400Y240400D02*
Y240799D01*
Y240599D01*
X193600D01*
X193400Y240400D01*
Y241399D02*
X193600Y241599D01*
Y241999D01*
X193400Y242199D01*
X193200D01*
X193000Y241999D01*
X192800Y242199D01*
X192600D01*
X192400Y241999D01*
Y241599D01*
X192600Y241399D01*
X192800D01*
X193000Y241599D01*
X193200Y241399D01*
X193400D01*
X193000Y241599D02*
Y241999D01*
X192600Y244000D02*
X192400Y244200D01*
Y244600D01*
X192600Y244800D01*
X193400D01*
X193600Y244600D01*
Y244200D01*
X193400Y244000D01*
X193600Y243600D02*
Y243200D01*
Y243401D01*
X192400D01*
X192600Y243600D01*
X192400Y242601D02*
Y241801D01*
X192600D01*
X193400Y242601D01*
X193600D01*
X189100Y240984D02*
X187900Y241784D01*
X189100D02*
X187900Y240984D01*
Y242984D02*
Y242184D01*
X188700Y242984D01*
X188900D01*
X189100Y242784D01*
Y242384D01*
X188900Y242184D01*
X202200Y249356D02*
Y248156D01*
X202800D01*
X203000Y248356D01*
Y248756D01*
X202800Y248956D01*
X202200D01*
X202600D02*
X203000Y249356D01*
X203400Y248156D02*
Y249356D01*
X204199D01*
X205399Y248156D02*
X204599D01*
Y249356D01*
X205399D01*
X204599Y248756D02*
X204999D01*
X205799Y248156D02*
Y249356D01*
X206399D01*
X206599Y249156D01*
Y248356D01*
X206399Y248156D01*
X205799D01*
X207798Y249356D02*
X206998D01*
X207798Y248556D01*
Y248356D01*
X207598Y248156D01*
X207198D01*
X206998Y248356D01*
X196600Y261196D02*
X196400Y260996D01*
Y260596D01*
X196600Y260396D01*
X197400D01*
X197600Y260596D01*
Y260996D01*
X197400Y261196D01*
X196600Y261596D02*
X196400Y261796D01*
Y262195D01*
X196600Y262395D01*
X196800D01*
X197000Y262195D01*
Y261996D01*
Y262195D01*
X197200Y262395D01*
X197400D01*
X197600Y262195D01*
Y261796D01*
X197400Y261596D01*
X197600Y262795D02*
Y263195D01*
Y262995D01*
X196400D01*
X196600Y262795D01*
X205300Y250900D02*
Y252100D01*
X204700D01*
X204500Y251900D01*
Y251500D01*
X204700Y251300D01*
X205300D01*
X204900D02*
X204500Y250900D01*
X204100Y252100D02*
Y250900D01*
X203301D01*
X202101Y252100D02*
X202901D01*
Y250900D01*
X202101D01*
X202901Y251500D02*
X202501D01*
X201701Y252100D02*
Y250900D01*
X201101D01*
X200901Y251100D01*
Y251900D01*
X201101Y252100D01*
X201701D01*
X200502Y250900D02*
X200102D01*
X200302D01*
Y252100D01*
X200502Y251900D01*
X112600Y264522D02*
Y265322D01*
X112000D01*
Y264922D01*
Y265322D01*
X111400D01*
X112600Y264122D02*
X111400D01*
Y263522D01*
X111600Y263322D01*
X111800D01*
X112000Y263522D01*
Y264122D01*
Y263522D01*
X112200Y263322D01*
X112400D01*
X112600Y263522D01*
Y264122D01*
X111400Y262123D02*
Y262923D01*
X112200Y262123D01*
X112400D01*
X112600Y262323D01*
Y262723D01*
X112400Y262923D01*
X163900Y264744D02*
X164100Y264944D01*
Y265344D01*
X163900Y265544D01*
X163100D01*
X162900Y265344D01*
Y264944D01*
X163100Y264744D01*
X162900Y263545D02*
Y264345D01*
X163700Y263545D01*
X163900D01*
X164100Y263745D01*
Y264144D01*
X163900Y264345D01*
X162900Y262545D02*
X164100D01*
X163500Y263145D01*
Y262345D01*
X159600Y261200D02*
X159400Y261000D01*
Y260600D01*
X159600Y260400D01*
X160400D01*
X160600Y260600D01*
Y261000D01*
X160400Y261200D01*
X160600Y262399D02*
Y261600D01*
X159800Y262399D01*
X159600D01*
X159400Y262199D01*
Y261800D01*
X159600Y261600D01*
Y262799D02*
X159400Y262999D01*
Y263399D01*
X159600Y263599D01*
X159800D01*
X160000Y263399D01*
Y263199D01*
Y263399D01*
X160200Y263599D01*
X160400D01*
X160600Y263399D01*
Y262999D01*
X160400Y262799D01*
X171800Y260600D02*
Y259400D01*
X172400D01*
X172600Y259600D01*
Y260400D01*
X172400Y260600D01*
X171800D01*
X173000Y259400D02*
X173399D01*
X173199D01*
Y260600D01*
X173000Y260400D01*
X214289Y262878D02*
X214489Y263078D01*
Y263478D01*
X214289Y263678D01*
X213490D01*
X213290Y263478D01*
Y263078D01*
X213490Y262878D01*
X214289Y262478D02*
X214489Y262278D01*
Y261879D01*
X214289Y261679D01*
X214089D01*
X213890Y261879D01*
X213690Y261679D01*
X213490D01*
X213290Y261879D01*
Y262278D01*
X213490Y262478D01*
X213690D01*
X213890Y262278D01*
X214089Y262478D01*
X214289D01*
X213890Y262278D02*
Y261879D01*
X211057Y263000D02*
X211257Y263200D01*
Y263600D01*
X211057Y263800D01*
X210257D01*
X210057Y263600D01*
Y263200D01*
X210257Y263000D01*
X211257Y262600D02*
Y261801D01*
X211057D01*
X210257Y262600D01*
X210057D01*
X207400Y263000D02*
X207600Y263200D01*
Y263600D01*
X207400Y263800D01*
X206600D01*
X206400Y263600D01*
Y263200D01*
X206600Y263000D01*
X206400Y262600D02*
X207600D01*
Y262001D01*
X207400Y261801D01*
X207000D01*
X206800Y262001D01*
Y262600D01*
Y262200D02*
X206400Y261801D01*
X207400Y260601D02*
X207600Y260801D01*
Y261201D01*
X207400Y261401D01*
X207200D01*
X207000Y261201D01*
Y260801D01*
X206800Y260601D01*
X206600D01*
X206400Y260801D01*
Y261201D01*
X206600Y261401D01*
X207600Y260201D02*
Y259401D01*
Y259801D01*
X206400D01*
X187400Y261200D02*
Y260000D01*
X188200D01*
X188600Y261200D02*
Y260000D01*
X189199D01*
X189399Y260200D01*
Y261000D01*
X189199Y261200D01*
X188600D01*
X189799Y260000D02*
X190199D01*
X189999D01*
Y261200D01*
X189799Y261000D01*
X187400Y242200D02*
Y241000D01*
X188200D01*
X188600Y242200D02*
Y241000D01*
X189199D01*
X189399Y241200D01*
Y242000D01*
X189199Y242200D01*
X188600D01*
X190599Y241000D02*
X189799D01*
X190599Y241800D01*
Y242000D01*
X190399Y242200D01*
X189999D01*
X189799Y242000D01*
X227756Y239368D02*
X227956Y239168D01*
X228356D01*
X228556Y239368D01*
Y240168D01*
X228356Y240368D01*
X227956D01*
X227756Y240168D01*
X227356Y240368D02*
X226956D01*
X227156D01*
Y239168D01*
X227356Y239368D01*
X225557Y240368D02*
X226357D01*
X225557Y239568D01*
Y239368D01*
X225757Y239168D01*
X226157D01*
X226357Y239368D01*
X217900Y250378D02*
X218100Y250578D01*
Y250978D01*
X217900Y251178D01*
X217100D01*
X216900Y250978D01*
Y250578D01*
X217100Y250378D01*
X217900Y249978D02*
X218100Y249778D01*
Y249378D01*
X217900Y249179D01*
X217700D01*
X217500Y249378D01*
Y249578D01*
Y249378D01*
X217300Y249179D01*
X217100D01*
X216900Y249378D01*
Y249778D01*
X217100Y249978D01*
X219200Y246778D02*
Y247978D01*
X218400D01*
X218000D02*
X217600D01*
X217800D01*
Y246778D01*
X218000Y246978D01*
X226756Y235856D02*
X226956Y235656D01*
X227356D01*
X227556Y235856D01*
Y236656D01*
X227356Y236856D01*
X226956D01*
X226756Y236656D01*
X226356Y236856D02*
X225956D01*
X226156D01*
Y235656D01*
X226356Y235856D01*
X219134Y222813D02*
X218934Y223013D01*
X218534D01*
X218334Y222813D01*
Y222013D01*
X218534Y221813D01*
X218934D01*
X219134Y222013D01*
X220333Y221813D02*
X219533D01*
X220333Y222613D01*
Y222813D01*
X220133Y223013D01*
X219733D01*
X219533Y222813D01*
X191000Y235900D02*
X190800Y236100D01*
X190400D01*
X190200Y235900D01*
Y235100D01*
X190400Y234900D01*
X190800D01*
X191000Y235100D01*
X192199Y236100D02*
X191400D01*
Y235500D01*
X191799Y235700D01*
X191999D01*
X192199Y235500D01*
Y235100D01*
X191999Y234900D01*
X191600D01*
X191400Y235100D01*
X201622Y235900D02*
X201422Y236100D01*
X201022D01*
X200822Y235900D01*
Y235100D01*
X201022Y234900D01*
X201422D01*
X201622Y235100D01*
X202022Y234900D02*
X202421D01*
X202222D01*
Y236100D01*
X202022Y235900D01*
X203821Y236100D02*
X203421Y235900D01*
X203021Y235500D01*
Y235100D01*
X203221Y234900D01*
X203621D01*
X203821Y235100D01*
Y235300D01*
X203621Y235500D01*
X203021D01*
X199633Y229658D02*
X200832D01*
Y230458D01*
Y231657D02*
Y230857D01*
X200032Y231657D01*
X199833D01*
X199633Y231457D01*
Y231057D01*
X199833Y230857D01*
X208742Y231447D02*
X208942Y231247D01*
X209342D01*
X209542Y231447D01*
Y232246D01*
X209342Y232446D01*
X208942D01*
X208742Y232246D01*
X208343Y232446D02*
X207943D01*
X208143D01*
Y231247D01*
X208343Y231447D01*
X206543Y231247D02*
X207343D01*
Y231847D01*
X206943Y231647D01*
X206743D01*
X206543Y231847D01*
Y232246D01*
X206743Y232446D01*
X207143D01*
X207343Y232246D01*
X209900Y226858D02*
Y228058D01*
X209100D01*
X208700Y227058D02*
X208501Y226858D01*
X208101D01*
X207901Y227058D01*
Y227258D01*
X208101Y227458D01*
X208300D01*
X208101D01*
X207901Y227658D01*
Y227858D01*
X208101Y228058D01*
X208501D01*
X208700Y227858D01*
X194600Y228136D02*
X194400Y227936D01*
Y227536D01*
X194600Y227336D01*
X195400D01*
X195600Y227536D01*
Y227936D01*
X195400Y228136D01*
X195600Y228535D02*
Y228935D01*
Y228735D01*
X194400D01*
X194600Y228535D01*
X195600Y230135D02*
X194400D01*
X195000Y229535D01*
Y230335D01*
X202400Y262243D02*
X202600Y262443D01*
Y262842D01*
X202400Y263042D01*
X201600D01*
X201400Y262842D01*
Y262443D01*
X201600Y262243D01*
X201400Y261043D02*
Y261843D01*
X202200Y261043D01*
X202400D01*
X202600Y261243D01*
Y261643D01*
X202400Y261843D01*
Y260643D02*
X202600Y260443D01*
Y260043D01*
X202400Y259843D01*
X201600D01*
X201400Y260043D01*
Y260443D01*
X201600Y260643D01*
X202400D01*
X190800Y255600D02*
X191000Y255400D01*
X191400D01*
X191600Y255600D01*
Y256400D01*
X191400Y256600D01*
X191000D01*
X190800Y256400D01*
X190400Y256600D02*
X190000D01*
X190200D01*
Y255400D01*
X190400Y255600D01*
X189401Y256400D02*
X189201Y256600D01*
X188801D01*
X188601Y256400D01*
Y255600D01*
X188801Y255400D01*
X189201D01*
X189401Y255600D01*
Y255800D01*
X189201Y256000D01*
X188601D01*
X188158Y252100D02*
Y250900D01*
X188958D01*
X189957D02*
Y252100D01*
X189357Y251500D01*
X190157D01*
X188258Y246778D02*
X188058Y246978D01*
X187658D01*
X187458Y246778D01*
Y245978D01*
X187658Y245778D01*
X188058D01*
X188258Y245978D01*
X189457Y246978D02*
X189057Y246778D01*
X188657Y246378D01*
Y245978D01*
X188857Y245778D01*
X189257D01*
X189457Y245978D01*
Y246178D01*
X189257Y246378D01*
X188657D01*
M02*
