M48
;Layer_Color=9474304
;FILE_FORMAT=2:5
INCH,LZ
;TYPE=PLATED
T1F00S00C0.00394
T2F00S00C0.00984
T3F00S00C0.03543
%
T01
X0170335Y0223794
X0169932Y02325
X01825Y0238194
Y0250964
Y0253124
X01835Y0254268
X0176Y025265
X017624Y0264035
X0178465Y0275047
X0178504Y027796
X0178432Y0280691
X0178465Y0283
X017839Y028548
X0191465Y0283402
X02035Y0283761
X0203457Y02855
X0203423Y02815
Y0279109
Y0277
Y0275047
X0203309Y0273
X0203423Y027
X0203257Y0268
X0204583Y0261154
X0207Y0257878
X0204244Y0254268
Y025289
Y0250134
Y0248756
X0205622
X0207
X0205622Y0251512
X0202866
X0201488Y0248756
X0199
X0196Y0251512
X0194736Y0243
X0195Y0240136
X0193878Y02355
X0206744
X0208378Y0239622
Y0244622
X0212512
X0211134Y0243244
X0205622
X0204244
X0202866
X0201488
X0204244Y0246
X0212512Y0248756
X0218083Y0249451
X022Y0249986
X0220721Y0251999
X0221Y0253899
X0221363Y02561
X0219Y0258469
X0218392Y0261
X0216347
X0221482
X0226965
Y0258477
X0227Y025602
Y0254114
Y0251999
X0226965Y0249733
X0225996Y0247814
X0224878Y0245829
X0222258Y0245256
X022037Y0245171
X02285Y0243375
Y0240268
Y0236484
Y0232878
Y0228888
Y0224384
Y0221403
Y0218664
Y0216102
Y02145
X0225023
X02217
X0196026
X0193
X01905Y0214547
Y0217327
Y0220304
X0190394Y0223
X0192Y02605
X021389Y0254268
X016Y0260032
X01555Y0246926
X0135169Y0259531
X0133Y02595
X0130514Y0259343
X01265
X0124
X01215Y02595
X01195
X0112Y0275047
Y0278492
Y0282112
Y0284953
X0114891
X0153882Y028548
X0153817Y02825
X0116092Y0236664
T02
X0195Y0232
X01965Y0256
X01845Y02565
X0186343Y02515
X02Y0277
X0156Y0251827
X015Y0232
X0138122Y0230391
X0140543Y02195
X0138013Y0243688
X0113Y0253098
T03
X0163883Y0218473
Y0228473
X0174Y02285
X0184
Y02185
X0174
X0203Y0219
X0213
X01705Y0281
X01605
X0115592Y0228664
Y0218664
M30
