G04*
G04 #@! TF.GenerationSoftware,Altium Limited,Altium Designer,19.0.4 (130)*
G04*
G04 Layer_Color=128*
%FSLAX25Y25*%
%MOIN*%
G70*
G01*
G75*
%ADD17R,0.01181X0.01063*%
%ADD21R,0.01063X0.01181*%
%ADD76R,0.04724X0.05512*%
%ADD77R,0.05512X0.04724*%
%ADD78R,0.03858X0.03661*%
G04:AMPARAMS|DCode=79|XSize=77.56mil|YSize=23.23mil|CornerRadius=2.9mil|HoleSize=0mil|Usage=FLASHONLY|Rotation=90.000|XOffset=0mil|YOffset=0mil|HoleType=Round|Shape=RoundedRectangle|*
%AMROUNDEDRECTD79*
21,1,0.07756,0.01742,0,0,90.0*
21,1,0.07175,0.02323,0,0,90.0*
1,1,0.00581,0.00871,0.03588*
1,1,0.00581,0.00871,-0.03588*
1,1,0.00581,-0.00871,-0.03588*
1,1,0.00581,-0.00871,0.03588*
%
%ADD79ROUNDEDRECTD79*%
%ADD80R,0.05512X0.02953*%
D17*
X212512Y246512D02*
D03*
Y248756D02*
D03*
X193000Y242878D02*
D03*
Y245122D02*
D03*
Y241122D02*
D03*
Y238878D02*
D03*
D21*
X199378Y248756D02*
D03*
X201622D02*
D03*
X208122Y251500D02*
D03*
X205878D02*
D03*
D76*
X140543Y219500D02*
D03*
X133457D02*
D03*
D77*
X118000Y252470D02*
D03*
Y245384D02*
D03*
D78*
X152000Y245969D02*
D03*
Y252031D02*
D03*
D79*
X143122Y232256D02*
D03*
X138122D02*
D03*
X133122D02*
D03*
X128122D02*
D03*
Y251744D02*
D03*
X133122D02*
D03*
X138122D02*
D03*
X143122D02*
D03*
D80*
X188500Y244839D02*
D03*
Y239130D02*
D03*
M02*
