G04*
G04 #@! TF.GenerationSoftware,Altium Limited,Altium Designer,19.0.4 (130)*
G04*
G04 Layer_Physical_Order=1*
G04 Layer_Color=255*
%FSLAX25Y25*%
%MOIN*%
G70*
G01*
G75*
%ADD10C,0.00787*%
%ADD12C,0.00492*%
%ADD13C,0.01000*%
%ADD17R,0.01181X0.01063*%
%ADD18R,0.07284X0.03150*%
%ADD19R,0.03740X0.05512*%
%ADD20R,0.04528X0.02953*%
%ADD21R,0.01063X0.01181*%
%ADD22R,0.05906X0.06299*%
%ADD23R,0.04724X0.04724*%
%ADD24R,0.03661X0.03858*%
%ADD25R,0.01968X0.02362*%
%ADD26R,0.02362X0.03347*%
%ADD27R,0.03937X0.03347*%
G04:AMPARAMS|DCode=28|XSize=77.56mil|YSize=23.62mil|CornerRadius=2.95mil|HoleSize=0mil|Usage=FLASHONLY|Rotation=0.000|XOffset=0mil|YOffset=0mil|HoleType=Round|Shape=RoundedRectangle|*
%AMROUNDEDRECTD28*
21,1,0.07756,0.01772,0,0,0.0*
21,1,0.07165,0.02362,0,0,0.0*
1,1,0.00591,0.03583,-0.00886*
1,1,0.00591,-0.03583,-0.00886*
1,1,0.00591,-0.03583,0.00886*
1,1,0.00591,0.03583,0.00886*
%
%ADD28ROUNDEDRECTD28*%
%ADD29R,0.03000X0.03200*%
%ADD30R,0.03347X0.03740*%
%ADD31R,0.03150X0.02953*%
%ADD32R,0.02953X0.03150*%
%ADD33R,0.02559X0.01968*%
%ADD34C,0.00787*%
%ADD35R,0.02362X0.01968*%
%ADD36R,0.07874X0.07480*%
%ADD37R,0.01575X0.05315*%
%ADD38R,0.06299X0.05512*%
%ADD39R,0.09055X0.05118*%
%ADD66C,0.03800*%
%ADD67C,0.02000*%
%ADD68C,0.04000*%
%ADD69R,0.01634X0.02276*%
%ADD70R,0.05512X0.04134*%
%ADD71R,0.05906X0.05906*%
%ADD72C,0.05906*%
%ADD73R,0.05906X0.05906*%
%ADD74C,0.00984*%
%ADD75C,0.01968*%
G36*
X204468Y266634D02*
X202500D01*
Y264158D01*
Y261681D01*
X204575D01*
Y261894D01*
X223173D01*
X223177Y261881D01*
X223167Y261875D01*
X223140Y261856D01*
X223113Y261836D01*
X223087Y261816D01*
X223061Y261795D01*
X223036Y261774D01*
X223011Y261752D01*
X222987Y261729D01*
X222963Y261706D01*
X222954Y261697D01*
X222913D01*
Y261653D01*
X222895Y261633D01*
X222874Y261608D01*
X222853Y261582D01*
X222833Y261556D01*
X222813Y261529D01*
X222794Y261502D01*
X222776Y261474D01*
X222759Y261446D01*
X222742Y261418D01*
X222725Y261389D01*
X222710Y261359D01*
X222695Y261330D01*
X222681Y261300D01*
X222667Y261269D01*
X222655Y261239D01*
X222643Y261208D01*
X222632Y261176D01*
X222621Y261145D01*
X222611Y261113D01*
X222602Y261081D01*
X222594Y261049D01*
X222587Y261017D01*
X222580Y260984D01*
X222574Y260952D01*
X222569Y260919D01*
X222565Y260886D01*
X222561Y260853D01*
X222558Y260820D01*
X222556Y260787D01*
X222555Y260754D01*
X222555Y260721D01*
Y260067D01*
X222012D01*
Y258477D01*
Y256886D01*
X222565D01*
X222565Y256886D01*
X222569Y256853D01*
X222574Y256820D01*
X222580Y256788D01*
X222587Y256755D01*
X222594Y256723D01*
X222602Y256691D01*
X222611Y256659D01*
X222621Y256627D01*
X222632Y256595D01*
X222643Y256564D01*
X222655Y256533D01*
X222667Y256503D01*
X222681Y256472D01*
X222695Y256442D01*
X222710Y256413D01*
X222725Y256383D01*
X222742Y256354D01*
X222759Y256326D01*
X222776Y256298D01*
X222794Y256270D01*
X222813Y256243D01*
X222833Y256216D01*
X222853Y256190D01*
X222874Y256164D01*
X222895Y256139D01*
X222917Y256114D01*
X222940Y256089D01*
X222963Y256066D01*
X223014Y256014D01*
X223016Y256013D01*
Y255197D01*
X223436D01*
X223438Y255184D01*
X223403Y255172D01*
X223363Y255159D01*
X223324Y255144D01*
X223285Y255129D01*
X223247Y255113D01*
X223208Y255096D01*
X223170Y255079D01*
X223132Y255060D01*
X223095Y255042D01*
X223058Y255022D01*
X223021Y255002D01*
X222985Y254981D01*
X222949Y254960D01*
X222913Y254937D01*
X222878Y254915D01*
X222843Y254891D01*
X222809Y254867D01*
X222775Y254842D01*
X222742Y254817D01*
X222709Y254791D01*
X222676Y254765D01*
X222644Y254738D01*
X222613Y254710D01*
X222582Y254682D01*
X222551Y254653D01*
X222522Y254624D01*
X222492Y254594D01*
X222463Y254563D01*
X222435Y254532D01*
X222408Y254501D01*
X222380Y254469D01*
X222354Y254436D01*
X222328Y254403D01*
X222303Y254370D01*
X222278Y254336D01*
X222254Y254302D01*
X222231Y254267D01*
X222208Y254232D01*
X222186Y254197D01*
X222164Y254161D01*
X222143Y254124D01*
X222123Y254087D01*
X222104Y254050D01*
X222085Y254013D01*
X222067Y253975D01*
X222049Y253937D01*
X222032Y253899D01*
X222017Y253860D01*
X222001Y253821D01*
X221987Y253782D01*
X221973Y253742D01*
X221959Y253702D01*
X221947Y253662D01*
X221935Y253622D01*
X221924Y253582D01*
X221914Y253541D01*
X221905Y253500D01*
X221896Y253459D01*
X221888Y253418D01*
X221881Y253377D01*
X221874Y253336D01*
X221868Y253294D01*
X221864Y253253D01*
X221859Y253211D01*
X221856Y253169D01*
X221853Y253127D01*
X221851Y253085D01*
X221850Y253044D01*
X221850Y253002D01*
X221850Y252960D01*
X221851Y252918D01*
X221852Y252904D01*
X221852Y252903D01*
X221852D01*
X221854Y252855D01*
X221856Y252787D01*
X221857Y252718D01*
X221857Y252650D01*
X221857Y252582D01*
X221856Y252513D01*
X221854Y252445D01*
X221851Y252377D01*
X221848Y252308D01*
X221843Y252240D01*
X221838Y252172D01*
X221832Y252104D01*
X221826Y252036D01*
X221818Y251968D01*
X221810Y251900D01*
X221801Y251832D01*
X221791Y251765D01*
X221780Y251697D01*
X221769Y251630D01*
X221757Y251562D01*
X221744Y251495D01*
X221730Y251428D01*
X221715Y251361D01*
X221700Y251295D01*
X221684Y251228D01*
X221667Y251162D01*
X221650Y251096D01*
X221632Y251030D01*
X221612Y250964D01*
X221592Y250899D01*
X221572Y250834D01*
X221551Y250769D01*
X221529Y250704D01*
X221506Y250640D01*
X221482Y250576D01*
X221458Y250512D01*
X221433Y250448D01*
X221407Y250385D01*
X221380Y250322D01*
X221353Y250259D01*
X221325Y250197D01*
X221296Y250135D01*
X221267Y250073D01*
X221237Y250012D01*
X221206Y249951D01*
X221175Y249890D01*
X221142Y249830D01*
X221109Y249770D01*
X221076Y249710D01*
X221041Y249651D01*
X221006Y249592D01*
X220971Y249534D01*
X220935Y249476D01*
X220898Y249419D01*
X220882Y249395D01*
X220882Y249395D01*
X220862Y249364D01*
X220840Y249328D01*
X220818Y249292D01*
X220797Y249256D01*
X220777Y249219D01*
X220758Y249182D01*
X220739Y249145D01*
X220721Y249107D01*
X220703Y249069D01*
X220687Y249030D01*
X220671Y248992D01*
X220655Y248953D01*
X220640Y248913D01*
X220627Y248874D01*
X220614Y248834D01*
X220601Y248794D01*
X220589Y248754D01*
X220578Y248713D01*
X220568Y248673D01*
X220559Y248632D01*
X220550Y248591D01*
X220542Y248550D01*
X220535Y248509D01*
X220528Y248467D01*
X220522Y248426D01*
X220517Y248384D01*
X220515Y248362D01*
X218953D01*
Y248165D01*
X218484D01*
Y248425D01*
X216516D01*
Y248165D01*
X214428D01*
X214424Y248177D01*
X214429Y248182D01*
X214447Y248199D01*
X214464Y248217D01*
X214480Y248235D01*
X214496Y248254D01*
X214512Y248273D01*
X214527Y248293D01*
X214541Y248313D01*
X214555Y248334D01*
X214568Y248355D01*
X214580Y248376D01*
X214591Y248398D01*
X214602Y248421D01*
X214613Y248443D01*
X214622Y248466D01*
X214631Y248489D01*
X214639Y248513D01*
X214646Y248536D01*
X214652Y248560D01*
X214658Y248584D01*
X214663Y248608D01*
X214668Y248633D01*
X214671Y248657D01*
X214674Y248682D01*
X214676Y248706D01*
X214677Y248731D01*
X214677Y248756D01*
X214677Y248781D01*
X214676Y248805D01*
X214674Y248830D01*
X214671Y248855D01*
X214668Y248879D01*
X214663Y248903D01*
X214658Y248928D01*
X214652Y248952D01*
X214646Y248976D01*
X214639Y248999D01*
X214631Y249023D01*
X214622Y249046D01*
X214613Y249069D01*
X214602Y249091D01*
X214591Y249113D01*
X214580Y249135D01*
X214568Y249157D01*
X214555Y249178D01*
X214541Y249199D01*
X214527Y249219D01*
X214512Y249239D01*
X214496Y249258D01*
X214480Y249277D01*
X214464Y249295D01*
X214447Y249313D01*
X214429Y249330D01*
X214410Y249347D01*
X214392Y249363D01*
X214372Y249378D01*
X214353Y249393D01*
X214332Y249407D01*
X214312Y249421D01*
X214291Y249434D01*
X214282Y249439D01*
Y249451D01*
X214291Y249456D01*
X214312Y249469D01*
X214332Y249482D01*
X214353Y249497D01*
X214372Y249512D01*
X214392Y249527D01*
X214410Y249543D01*
X214429Y249560D01*
X214447Y249577D01*
X214464Y249595D01*
X214480Y249613D01*
X214496Y249632D01*
X214512Y249651D01*
X214527Y249671D01*
X214541Y249691D01*
X214555Y249712D01*
X214568Y249733D01*
X214580Y249755D01*
X214591Y249776D01*
X214602Y249799D01*
X214613Y249821D01*
X214622Y249844D01*
X214631Y249867D01*
X214639Y249890D01*
X214646Y249914D01*
X214652Y249938D01*
X214658Y249962D01*
X214663Y249986D01*
X214668Y250011D01*
X214671Y250035D01*
X214674Y250060D01*
X214676Y250084D01*
X214677Y250109D01*
X214677Y250134D01*
X214677Y250159D01*
X214676Y250183D01*
X214674Y250208D01*
X214671Y250233D01*
X214668Y250257D01*
X214663Y250281D01*
X214658Y250306D01*
X214652Y250330D01*
X214646Y250354D01*
X214639Y250377D01*
X214631Y250401D01*
X214622Y250424D01*
X214613Y250447D01*
X214602Y250469D01*
X214591Y250491D01*
X214580Y250513D01*
X214568Y250535D01*
X214555Y250556D01*
X214541Y250576D01*
X214527Y250597D01*
X214512Y250617D01*
X214496Y250636D01*
X214480Y250655D01*
X214464Y250673D01*
X214447Y250691D01*
X214429Y250708D01*
X214410Y250725D01*
X214392Y250741D01*
X214372Y250756D01*
X214353Y250771D01*
X214332Y250785D01*
X214312Y250799D01*
X214291Y250812D01*
X214282Y250816D01*
Y250829D01*
X214291Y250834D01*
X214312Y250847D01*
X214332Y250861D01*
X214353Y250875D01*
X214372Y250890D01*
X214392Y250905D01*
X214410Y250921D01*
X214429Y250938D01*
X214447Y250955D01*
X214464Y250973D01*
X214480Y250991D01*
X214496Y251010D01*
X214512Y251029D01*
X214527Y251049D01*
X214541Y251069D01*
X214555Y251090D01*
X214568Y251111D01*
X214580Y251132D01*
X214591Y251154D01*
X214602Y251177D01*
X214613Y251199D01*
X214622Y251222D01*
X214631Y251245D01*
X214639Y251269D01*
X214646Y251292D01*
X214652Y251316D01*
X214658Y251340D01*
X214663Y251364D01*
X214668Y251389D01*
X214671Y251413D01*
X214674Y251438D01*
X214676Y251462D01*
X214677Y251487D01*
X214677Y251512D01*
X214677Y251536D01*
X214676Y251561D01*
X214674Y251586D01*
X214671Y251610D01*
X214668Y251635D01*
X214663Y251659D01*
X214658Y251684D01*
X214652Y251708D01*
X214646Y251731D01*
X214639Y251755D01*
X214631Y251779D01*
X214622Y251802D01*
X214613Y251825D01*
X214602Y251847D01*
X214591Y251869D01*
X214580Y251891D01*
X214568Y251913D01*
X214555Y251934D01*
X214541Y251954D01*
X214527Y251975D01*
X214512Y251994D01*
X214496Y252014D01*
X214480Y252033D01*
X214464Y252051D01*
X214447Y252069D01*
X214429Y252086D01*
X214410Y252102D01*
X214392Y252119D01*
X214372Y252134D01*
X214353Y252149D01*
X214332Y252163D01*
X214312Y252177D01*
X214291Y252190D01*
X214282Y252194D01*
Y252207D01*
X214291Y252212D01*
X214312Y252225D01*
X214332Y252238D01*
X214353Y252253D01*
X214372Y252268D01*
X214392Y252283D01*
X214410Y252299D01*
X214429Y252316D01*
X214447Y252333D01*
X214464Y252351D01*
X214480Y252369D01*
X214496Y252388D01*
X214512Y252407D01*
X214527Y252427D01*
X214541Y252447D01*
X214555Y252468D01*
X214568Y252489D01*
X214580Y252510D01*
X214591Y252532D01*
X214602Y252554D01*
X214613Y252577D01*
X214622Y252600D01*
X214631Y252623D01*
X214639Y252646D01*
X214646Y252670D01*
X214652Y252694D01*
X214658Y252718D01*
X214663Y252742D01*
X214668Y252767D01*
X214671Y252791D01*
X214674Y252816D01*
X214676Y252840D01*
X214677Y252865D01*
X214677Y252890D01*
X214677Y252915D01*
X214676Y252939D01*
X214674Y252964D01*
X214671Y252989D01*
X214668Y253013D01*
X214663Y253037D01*
X214658Y253062D01*
X214652Y253086D01*
X214646Y253110D01*
X214639Y253133D01*
X214631Y253156D01*
X214622Y253180D01*
X214613Y253203D01*
X214602Y253225D01*
X214591Y253247D01*
X214580Y253269D01*
X214568Y253291D01*
X214555Y253312D01*
X214541Y253332D01*
X214527Y253353D01*
X214512Y253372D01*
X214496Y253392D01*
X214480Y253411D01*
X214464Y253429D01*
X214447Y253447D01*
X214429Y253464D01*
X214410Y253481D01*
X214392Y253497D01*
X214374Y253511D01*
X214372Y253520D01*
X214373Y253525D01*
X214377Y253527D01*
X214398Y253542D01*
X214419Y253557D01*
X214439Y253573D01*
X214459Y253589D01*
X214479Y253606D01*
X214498Y253623D01*
X214516Y253641D01*
X214534Y253660D01*
X214552Y253679D01*
X214568Y253698D01*
X214585Y253718D01*
X214600Y253739D01*
X214616Y253760D01*
X214630Y253781D01*
X214644Y253803D01*
X214657Y253825D01*
X214669Y253847D01*
X214681Y253870D01*
X214693Y253893D01*
X214703Y253917D01*
X214713Y253941D01*
X214722Y253965D01*
X214731Y253989D01*
X214738Y254014D01*
X214745Y254038D01*
X214752Y254063D01*
X214757Y254089D01*
X214762Y254114D01*
X214766Y254139D01*
X214770Y254165D01*
X214772Y254190D01*
X214774Y254216D01*
X214775Y254242D01*
X214776Y254268D01*
X214775Y254293D01*
X214774Y254319D01*
X214772Y254345D01*
X214770Y254371D01*
X214766Y254396D01*
X214762Y254421D01*
X214757Y254447D01*
X214752Y254472D01*
X214745Y254497D01*
X214738Y254522D01*
X214731Y254546D01*
X214722Y254571D01*
X214713Y254595D01*
X214703Y254619D01*
X214693Y254642D01*
X214681Y254665D01*
X214677Y254673D01*
Y256831D01*
X214874D01*
Y258469D01*
X215480D01*
Y259500D01*
X212299D01*
Y258665D01*
X212248D01*
Y259622D01*
X209067D01*
Y258591D01*
X209673D01*
Y258007D01*
X207821Y256155D01*
X207804Y256137D01*
X207787Y256119D01*
X207771Y256100D01*
X207756Y256081D01*
X207741Y256061D01*
X207727Y256041D01*
X207713Y256020D01*
X207700Y255999D01*
X207688Y255978D01*
X207676Y255956D01*
X207665Y255934D01*
X207655Y255911D01*
X207653Y255905D01*
X207640Y255907D01*
Y256953D01*
X207984D01*
Y258591D01*
X208591D01*
Y259622D01*
X205410D01*
Y258591D01*
X206016D01*
Y256953D01*
X206360D01*
Y254727D01*
X206349Y254710D01*
X206335Y254690D01*
X206322Y254669D01*
X206317Y254660D01*
X206305D01*
X206300Y254669D01*
X206287Y254690D01*
X206273Y254710D01*
X206259Y254731D01*
X206244Y254750D01*
X206229Y254770D01*
X206213Y254788D01*
X206196Y254807D01*
X206179Y254825D01*
X206161Y254842D01*
X206143Y254858D01*
X206124Y254874D01*
X206105Y254890D01*
X206085Y254905D01*
X206065Y254919D01*
X206044Y254933D01*
X206023Y254945D01*
X206001Y254958D01*
X205980Y254969D01*
X205957Y254980D01*
X205935Y254990D01*
X205912Y255000D01*
X205889Y255009D01*
X205865Y255017D01*
X205842Y255024D01*
X205818Y255030D01*
X205794Y255036D01*
X205770Y255041D01*
X205745Y255046D01*
X205721Y255049D01*
X205696Y255052D01*
X205672Y255054D01*
X205647Y255055D01*
X205622Y255055D01*
X205597Y255055D01*
X205573Y255054D01*
X205548Y255052D01*
X205523Y255049D01*
X205499Y255046D01*
X205474Y255041D01*
X205450Y255036D01*
X205426Y255030D01*
X205402Y255024D01*
X205379Y255017D01*
X205355Y255009D01*
X205332Y255000D01*
X205309Y254990D01*
X205287Y254980D01*
X205264Y254969D01*
X205243Y254958D01*
X205221Y254945D01*
X205200Y254933D01*
X205179Y254919D01*
X205159Y254905D01*
X205139Y254890D01*
X205120Y254874D01*
X205101Y254858D01*
X205083Y254842D01*
X205065Y254825D01*
X205048Y254807D01*
X205031Y254788D01*
X205015Y254770D01*
X205001Y254752D01*
X204991Y254750D01*
X204987Y254750D01*
X204984Y254754D01*
X204970Y254776D01*
X204955Y254797D01*
X204939Y254817D01*
X204923Y254837D01*
X204906Y254857D01*
X204889Y254876D01*
X204871Y254894D01*
X204852Y254912D01*
X204833Y254929D01*
X204814Y254946D01*
X204794Y254963D01*
X204773Y254978D01*
X204752Y254993D01*
X204731Y255008D01*
X204709Y255022D01*
X204687Y255035D01*
X204664Y255047D01*
X204642Y255059D01*
X204619Y255071D01*
X204595Y255081D01*
X204571Y255091D01*
X204547Y255100D01*
X204523Y255109D01*
X204498Y255116D01*
X204473Y255123D01*
X204448Y255130D01*
X204423Y255135D01*
X204398Y255140D01*
X204373Y255144D01*
X204347Y255148D01*
X204321Y255150D01*
X204296Y255152D01*
X204270Y255153D01*
X204244Y255154D01*
X204218Y255153D01*
X204193Y255152D01*
X204167Y255150D01*
X204141Y255148D01*
X204116Y255144D01*
X204090Y255140D01*
X204065Y255135D01*
X204040Y255130D01*
X204015Y255123D01*
X203990Y255116D01*
X203965Y255109D01*
X203941Y255100D01*
X203917Y255091D01*
X203893Y255081D01*
X203870Y255071D01*
X203847Y255059D01*
X203824Y255047D01*
X203801Y255035D01*
X203779Y255022D01*
X203757Y255008D01*
X203736Y254993D01*
X203715Y254978D01*
X203695Y254963D01*
X203675Y254946D01*
X203666Y254939D01*
X203654Y254945D01*
Y256973D01*
X203969D01*
Y260713D01*
X200031D01*
Y256973D01*
X202079D01*
Y255542D01*
X202074Y255539D01*
X202066Y255536D01*
X202037Y255549D01*
X202006Y255562D01*
X201988Y255569D01*
Y254268D01*
X201488D01*
Y253768D01*
X200187D01*
X200194Y253750D01*
X200207Y253719D01*
X200220Y253690D01*
X200217Y253682D01*
X200214Y253677D01*
X199936D01*
X197856Y255757D01*
X197859Y255771D01*
X197864Y255804D01*
X197868Y255836D01*
X197872Y255869D01*
X197874Y255902D01*
X197877Y255934D01*
X197878Y255967D01*
X197878Y256000D01*
X197878Y256033D01*
X197877Y256066D01*
X197874Y256098D01*
X197872Y256131D01*
X197868Y256164D01*
X197864Y256196D01*
X197859Y256228D01*
X197853Y256261D01*
X197847Y256293D01*
X197839Y256325D01*
X197831Y256357D01*
X197822Y256388D01*
X197813Y256420D01*
X197802Y256451D01*
X197791Y256482D01*
X197787Y256491D01*
X197787Y256500D01*
X197787Y256501D01*
Y258453D01*
X198378D01*
Y261602D01*
X195622D01*
Y258453D01*
X196212D01*
Y257348D01*
X196207Y257347D01*
X196175Y257339D01*
X196143Y257331D01*
X196112Y257322D01*
X196080Y257313D01*
X196049Y257302D01*
X196018Y257291D01*
X195988Y257279D01*
X195958Y257267D01*
X195928Y257254D01*
X195898Y257240D01*
X195869Y257225D01*
X195840Y257209D01*
X195811Y257193D01*
X195783Y257177D01*
X195755Y257159D01*
X195728Y257141D01*
X195701Y257122D01*
X195674Y257103D01*
X195648Y257083D01*
X195623Y257063D01*
X195598Y257042D01*
X195573Y257020D01*
X195549Y256997D01*
X195526Y256974D01*
X195503Y256951D01*
X195480Y256927D01*
X195458Y256902D01*
X195437Y256877D01*
X195417Y256852D01*
X195397Y256826D01*
X195378Y256799D01*
X195369Y256787D01*
X193543D01*
Y257378D01*
X190394D01*
Y254622D01*
X193543D01*
Y255212D01*
X195369D01*
X195378Y255201D01*
X195397Y255174D01*
X195417Y255148D01*
X195437Y255123D01*
X195458Y255098D01*
X195480Y255073D01*
X195503Y255049D01*
X195526Y255026D01*
X195549Y255003D01*
X195573Y254980D01*
X195598Y254959D01*
X195623Y254937D01*
X195648Y254917D01*
X195674Y254897D01*
X195701Y254877D01*
X195728Y254859D01*
X195755Y254841D01*
X195783Y254823D01*
X195811Y254807D01*
X195840Y254790D01*
X195869Y254775D01*
X195898Y254761D01*
X195928Y254747D01*
X195958Y254733D01*
X195988Y254721D01*
X196018Y254709D01*
X196049Y254698D01*
X196080Y254687D01*
X196112Y254678D01*
X196143Y254669D01*
X196175Y254661D01*
X196207Y254653D01*
X196239Y254647D01*
X196272Y254641D01*
X196304Y254636D01*
X196336Y254632D01*
X196369Y254628D01*
X196402Y254626D01*
X196434Y254624D01*
X196467Y254622D01*
X196500Y254622D01*
X196533Y254622D01*
X196566Y254624D01*
X196598Y254626D01*
X196631Y254628D01*
X196664Y254632D01*
X196696Y254636D01*
X196729Y254641D01*
X196743Y254644D01*
X199053Y252333D01*
X199053Y252333D01*
X199071Y252316D01*
X199090Y252299D01*
X199108Y252283D01*
X199128Y252268D01*
X199147Y252253D01*
X199168Y252238D01*
X199172Y252236D01*
X199170Y252221D01*
X199154Y252214D01*
X199132Y252202D01*
X199111Y252190D01*
X199090Y252177D01*
X199069Y252163D01*
X199049Y252149D01*
X199029Y252134D01*
X199010Y252119D01*
X198991Y252102D01*
X198973Y252086D01*
X198955Y252069D01*
X198955Y252068D01*
X194052Y247165D01*
X193528D01*
Y248346D01*
X190610D01*
X188213Y250744D01*
Y253468D01*
X184472D01*
Y249532D01*
X187197D01*
X187764Y248965D01*
X187759Y248953D01*
X186843D01*
Y246878D01*
X188819D01*
Y247893D01*
X188831Y247898D01*
X189787Y246941D01*
Y244409D01*
X193528D01*
Y245590D01*
X194378D01*
X194403Y245591D01*
X194427Y245592D01*
X194452Y245594D01*
X194477Y245597D01*
X194501Y245600D01*
X194526Y245604D01*
X194550Y245609D01*
X194574Y245615D01*
X194598Y245622D01*
X194621Y245629D01*
X194645Y245637D01*
X194668Y245646D01*
X194691Y245655D01*
X194713Y245665D01*
X194736Y245676D01*
X194757Y245688D01*
X194779Y245700D01*
X194800Y245713D01*
X194821Y245727D01*
X194841Y245741D01*
X194861Y245756D01*
X194880Y245771D01*
X194899Y245787D01*
X194917Y245804D01*
X194935Y245821D01*
X198145Y249031D01*
X198156Y249024D01*
X198151Y249010D01*
X198144Y248985D01*
X198138Y248960D01*
X198132Y248935D01*
X198127Y248910D01*
X198123Y248884D01*
X198120Y248859D01*
X198117Y248833D01*
X198116Y248807D01*
X198115Y248782D01*
X198114Y248775D01*
X197048Y247708D01*
X197032Y247693D01*
X197018Y247676D01*
X197004Y247660D01*
X196990Y247642D01*
X196977Y247625D01*
X196965Y247607D01*
X196953Y247588D01*
X196942Y247569D01*
X196932Y247550D01*
X196922Y247531D01*
X196913Y247511D01*
X196905Y247491D01*
X196897Y247470D01*
X196890Y247449D01*
X196884Y247428D01*
X196878Y247407D01*
X196873Y247386D01*
X196870Y247365D01*
X196866Y247343D01*
X196863Y247321D01*
X196862Y247300D01*
X196861Y247278D01*
X196860Y247256D01*
Y243953D01*
X196208Y243301D01*
X196196Y243305D01*
X196196Y243308D01*
X196188Y243342D01*
X196180Y243375D01*
X196171Y243408D01*
X196161Y243441D01*
X196150Y243474D01*
X196139Y243507D01*
X196127Y243539D01*
X196114Y243571D01*
X196100Y243603D01*
X196086Y243634D01*
X196071Y243665D01*
X196055Y243696D01*
X196039Y243726D01*
X196022Y243756D01*
X196004Y243786D01*
X195986Y243815D01*
X195967Y243843D01*
X195947Y243871D01*
X195926Y243899D01*
X195905Y243927D01*
X195884Y243953D01*
X195861Y243980D01*
X195838Y244005D01*
X195815Y244030D01*
X195791Y244055D01*
X195766Y244079D01*
X195741Y244103D01*
X195715Y244126D01*
X195689Y244148D01*
X195662Y244170D01*
X195635Y244191D01*
X195607Y244211D01*
X195579Y244231D01*
X195550Y244250D01*
X195521Y244269D01*
X195492Y244286D01*
X195462Y244304D01*
X195431Y244320D01*
X195401Y244336D01*
X195370Y244351D01*
X195338Y244365D01*
X195307Y244379D01*
X195274Y244391D01*
X195242Y244404D01*
X195236Y244406D01*
Y243000D01*
X194236D01*
Y244406D01*
X194229Y244404D01*
X194196Y244391D01*
X194164Y244379D01*
X194133Y244365D01*
X194101Y244351D01*
X194070Y244336D01*
X194040Y244320D01*
X194009Y244304D01*
X193979Y244286D01*
X193950Y244269D01*
X193921Y244250D01*
X193892Y244231D01*
X193864Y244211D01*
X193836Y244191D01*
X193809Y244170D01*
X193782Y244148D01*
X193756Y244126D01*
X193730Y244103D01*
X193705Y244079D01*
X193680Y244055D01*
X193656Y244030D01*
X193633Y244005D01*
X193610Y243980D01*
X193587Y243953D01*
X193566Y243927D01*
X193545Y243899D01*
X193524Y243871D01*
X193504Y243843D01*
X193485Y243815D01*
X193467Y243786D01*
X193449Y243756D01*
X193432Y243726D01*
X193415Y243696D01*
X193400Y243665D01*
X193385Y243634D01*
X193370Y243603D01*
X193357Y243571D01*
X193344Y243539D01*
X193332Y243507D01*
X193327Y243494D01*
X189856D01*
Y239506D01*
X193644D01*
X193652Y239497D01*
X193664Y239471D01*
X193680Y239441D01*
X193696Y239410D01*
X193713Y239380D01*
X193731Y239351D01*
X193750Y239322D01*
X193769Y239293D01*
X193789Y239265D01*
X193809Y239237D01*
X193830Y239210D01*
X193852Y239183D01*
X193874Y239157D01*
X193879Y239151D01*
X193874Y239140D01*
X192000D01*
X191978Y239140D01*
X191956Y239138D01*
X191935Y239137D01*
X191913Y239134D01*
X191891Y239130D01*
X191870Y239126D01*
X191849Y239122D01*
X191827Y239116D01*
X191806Y239110D01*
X191786Y239103D01*
X191765Y239095D01*
X191745Y239087D01*
X191725Y239078D01*
X191706Y239068D01*
X191686Y239058D01*
X191667Y239047D01*
X191649Y239035D01*
X191631Y239023D01*
X191613Y239010D01*
X191596Y238996D01*
X191579Y238982D01*
X191563Y238968D01*
X191548Y238952D01*
X186735Y234140D01*
X179000D01*
X178978Y234139D01*
X178956Y234138D01*
X178935Y234137D01*
X178913Y234134D01*
X178891Y234131D01*
X178870Y234126D01*
X178849Y234122D01*
X178827Y234116D01*
X178806Y234110D01*
X178786Y234103D01*
X178765Y234095D01*
X178745Y234087D01*
X178725Y234078D01*
X178706Y234068D01*
X178686Y234058D01*
X178667Y234047D01*
X178649Y234035D01*
X178631Y234023D01*
X178613Y234010D01*
X178596Y233996D01*
X178579Y233982D01*
X178563Y233968D01*
X178548Y233952D01*
X175870Y231275D01*
X175848Y231290D01*
X175805Y231318D01*
X175762Y231345D01*
X175718Y231372D01*
X175673Y231398D01*
X175628Y231424D01*
X175583Y231448D01*
X175538Y231472D01*
X175492Y231496D01*
X175445Y231518D01*
X175399Y231540D01*
X175352Y231561D01*
X175304Y231582D01*
X175257Y231602D01*
X175209Y231621D01*
X175161Y231639D01*
X175112Y231656D01*
X175064Y231673D01*
X175014Y231689D01*
X174965Y231704D01*
X174916Y231719D01*
X174866Y231733D01*
X174816Y231746D01*
X174766Y231758D01*
X174716Y231769D01*
X174665Y231780D01*
X174615Y231790D01*
X174564Y231799D01*
X174513Y231807D01*
X174462Y231815D01*
X174411Y231821D01*
X174360Y231827D01*
X174309Y231832D01*
X174257Y231837D01*
X174206Y231840D01*
X174155Y231843D01*
X174103Y231845D01*
X174051Y231846D01*
X174000Y231846D01*
X173949Y231846D01*
X173897Y231845D01*
X173845Y231843D01*
X173794Y231840D01*
X173743Y231837D01*
X173691Y231832D01*
X173640Y231827D01*
X173589Y231821D01*
X173538Y231815D01*
X173487Y231807D01*
X173436Y231799D01*
X173385Y231790D01*
X173335Y231780D01*
X173284Y231769D01*
X173234Y231758D01*
X173184Y231746D01*
X173134Y231733D01*
X173084Y231719D01*
X173035Y231704D01*
X172985Y231689D01*
X172936Y231673D01*
X172888Y231656D01*
X172839Y231639D01*
X172791Y231621D01*
X172743Y231602D01*
X172696Y231582D01*
X172648Y231561D01*
X172601Y231540D01*
X172555Y231518D01*
X172508Y231496D01*
X172462Y231472D01*
X172417Y231448D01*
X172372Y231424D01*
X172327Y231398D01*
X172282Y231372D01*
X172238Y231345D01*
X172195Y231318D01*
X172152Y231290D01*
X172109Y231261D01*
X172066Y231231D01*
X172025Y231201D01*
X171983Y231171D01*
X171942Y231139D01*
X171902Y231107D01*
X171862Y231075D01*
X171823Y231041D01*
X171784Y231008D01*
X171745Y230973D01*
X171708Y230938D01*
X171670Y230903D01*
X171634Y230866D01*
X171598Y230830D01*
X171562Y230792D01*
X171527Y230755D01*
X171492Y230716D01*
X171459Y230677D01*
X171425Y230638D01*
X171393Y230598D01*
X171361Y230558D01*
X171329Y230517D01*
X171299Y230475D01*
X171269Y230434D01*
X171239Y230391D01*
X171210Y230348D01*
X171182Y230305D01*
X171155Y230262D01*
X171128Y230218D01*
X171102Y230173D01*
X171076Y230129D01*
X171052Y230083D01*
X171028Y230038D01*
X171004Y229992D01*
X170982Y229945D01*
X170960Y229899D01*
X170939Y229852D01*
X170918Y229804D01*
X170898Y229757D01*
X170879Y229709D01*
X170861Y229661D01*
X170844Y229612D01*
X170827Y229563D01*
X170811Y229515D01*
X170796Y229465D01*
X170781Y229416D01*
X170767Y229366D01*
X170755Y229316D01*
X170742Y229266D01*
X170731Y229216D01*
X170720Y229166D01*
X170710Y229115D01*
X170701Y229064D01*
X170693Y229013D01*
X170686Y228962D01*
X170679Y228911D01*
X170673Y228860D01*
X170668Y228809D01*
X170663Y228757D01*
X170660Y228706D01*
X170657Y228655D01*
X170655Y228603D01*
X170654Y228552D01*
X170653Y228500D01*
X170654Y228449D01*
X170655Y228397D01*
X170657Y228345D01*
X170660Y228294D01*
X170663Y228243D01*
X170668Y228191D01*
X170673Y228140D01*
X170679Y228089D01*
X170686Y228038D01*
X170693Y227987D01*
X170701Y227936D01*
X170710Y227885D01*
X170720Y227835D01*
X170731Y227784D01*
X170742Y227734D01*
X170755Y227684D01*
X170767Y227634D01*
X170781Y227584D01*
X170796Y227535D01*
X170811Y227485D01*
X170827Y227436D01*
X170844Y227388D01*
X170861Y227339D01*
X170879Y227291D01*
X170898Y227243D01*
X170918Y227196D01*
X170939Y227148D01*
X170960Y227101D01*
X170982Y227055D01*
X171004Y227008D01*
X171028Y226962D01*
X171052Y226917D01*
X171076Y226871D01*
X171102Y226827D01*
X171128Y226782D01*
X171155Y226738D01*
X171182Y226695D01*
X171210Y226652D01*
X171239Y226609D01*
X171269Y226566D01*
X171299Y226525D01*
X171329Y226483D01*
X171361Y226442D01*
X171393Y226402D01*
X171425Y226362D01*
X171459Y226323D01*
X171492Y226284D01*
X171527Y226245D01*
X171562Y226208D01*
X171598Y226170D01*
X171634Y226134D01*
X171670Y226097D01*
X171708Y226062D01*
X171745Y226027D01*
X171784Y225992D01*
X171823Y225959D01*
X171862Y225925D01*
X171902Y225893D01*
X171942Y225861D01*
X171983Y225829D01*
X172025Y225799D01*
X172066Y225769D01*
X172109Y225739D01*
X172152Y225710D01*
X172195Y225682D01*
X172238Y225655D01*
X172282Y225628D01*
X172327Y225602D01*
X172372Y225576D01*
X172417Y225552D01*
X172462Y225528D01*
X172508Y225504D01*
X172555Y225482D01*
X172601Y225460D01*
X172648Y225439D01*
X172696Y225418D01*
X172743Y225398D01*
X172791Y225379D01*
X172839Y225361D01*
X172888Y225344D01*
X172936Y225327D01*
X172985Y225311D01*
X173035Y225296D01*
X173084Y225281D01*
X173134Y225268D01*
X173184Y225255D01*
X173234Y225242D01*
X173284Y225231D01*
X173335Y225220D01*
X173385Y225210D01*
X173436Y225201D01*
X173487Y225193D01*
X173538Y225185D01*
X173589Y225179D01*
X173640Y225173D01*
X173691Y225168D01*
X173743Y225163D01*
X173794Y225160D01*
X173845Y225157D01*
X173897Y225155D01*
X173949Y225154D01*
X174000Y225153D01*
X174051Y225154D01*
X174103Y225155D01*
X174155Y225157D01*
X174206Y225160D01*
X174257Y225163D01*
X174309Y225168D01*
X174360Y225173D01*
X174411Y225179D01*
X174462Y225185D01*
X174513Y225193D01*
X174564Y225201D01*
X174615Y225210D01*
X174665Y225220D01*
X174716Y225231D01*
X174766Y225242D01*
X174816Y225255D01*
X174866Y225268D01*
X174916Y225281D01*
X174965Y225296D01*
X175014Y225311D01*
X175064Y225327D01*
X175112Y225344D01*
X175161Y225361D01*
X175209Y225379D01*
X175257Y225398D01*
X175304Y225418D01*
X175352Y225439D01*
X175399Y225460D01*
X175445Y225482D01*
X175492Y225504D01*
X175538Y225528D01*
X175583Y225552D01*
X175628Y225576D01*
X175673Y225602D01*
X175718Y225628D01*
X175762Y225655D01*
X175805Y225682D01*
X175848Y225710D01*
X175891Y225739D01*
X175934Y225769D01*
X175975Y225799D01*
X176017Y225829D01*
X176058Y225861D01*
X176098Y225893D01*
X176138Y225925D01*
X176177Y225959D01*
X176216Y225992D01*
X176255Y226027D01*
X176292Y226062D01*
X176330Y226097D01*
X176366Y226134D01*
X176402Y226170D01*
X176438Y226208D01*
X176473Y226245D01*
X176508Y226284D01*
X176541Y226323D01*
X176575Y226362D01*
X176607Y226402D01*
X176639Y226442D01*
X176671Y226483D01*
X176701Y226525D01*
X176731Y226566D01*
X176761Y226609D01*
X176790Y226652D01*
X176818Y226695D01*
X176845Y226738D01*
X176872Y226782D01*
X176898Y226827D01*
X176924Y226871D01*
X176948Y226917D01*
X176972Y226962D01*
X176996Y227008D01*
X177018Y227055D01*
X177040Y227101D01*
X177061Y227148D01*
X177082Y227196D01*
X177102Y227243D01*
X177121Y227291D01*
X177139Y227339D01*
X177156Y227388D01*
X177173Y227436D01*
X177189Y227485D01*
X177204Y227535D01*
X177219Y227584D01*
X177233Y227634D01*
X177245Y227684D01*
X177258Y227734D01*
X177269Y227784D01*
X177280Y227835D01*
X177290Y227885D01*
X177299Y227936D01*
X177307Y227987D01*
X177314Y228038D01*
X177321Y228089D01*
X177327Y228140D01*
X177332Y228191D01*
X177337Y228243D01*
X177340Y228294D01*
X177343Y228345D01*
X177345Y228397D01*
X177346Y228449D01*
X177347Y228500D01*
X177346Y228552D01*
X177345Y228603D01*
X177343Y228655D01*
X177340Y228706D01*
X177337Y228757D01*
X177332Y228809D01*
X177327Y228860D01*
X177321Y228911D01*
X177314Y228962D01*
X177307Y229013D01*
X177299Y229064D01*
X177290Y229115D01*
X177280Y229166D01*
X177269Y229216D01*
X177258Y229266D01*
X177245Y229316D01*
X177233Y229366D01*
X177219Y229416D01*
X177204Y229465D01*
X177189Y229515D01*
X177173Y229563D01*
X177156Y229612D01*
X177139Y229661D01*
X177121Y229709D01*
X177102Y229757D01*
X177082Y229804D01*
X177061Y229852D01*
X177040Y229899D01*
X177018Y229945D01*
X176996Y229992D01*
X176972Y230038D01*
X176948Y230083D01*
X176924Y230129D01*
X176898Y230173D01*
X176872Y230218D01*
X176845Y230262D01*
X176818Y230305D01*
X176790Y230348D01*
X176775Y230370D01*
X179265Y232860D01*
X187000D01*
X187022Y232860D01*
X187044Y232862D01*
X187065Y232863D01*
X187087Y232866D01*
X187109Y232870D01*
X187130Y232874D01*
X187152Y232878D01*
X187173Y232884D01*
X187194Y232890D01*
X187214Y232897D01*
X187235Y232905D01*
X187255Y232913D01*
X187275Y232922D01*
X187294Y232932D01*
X187314Y232942D01*
X187332Y232953D01*
X187351Y232965D01*
X187369Y232977D01*
X187387Y232990D01*
X187404Y233004D01*
X187420Y233018D01*
X187437Y233032D01*
X187452Y233048D01*
X192265Y237860D01*
X192592D01*
X192597Y237848D01*
X185961Y231212D01*
X185933Y231231D01*
X185891Y231261D01*
X185848Y231290D01*
X185805Y231318D01*
X185762Y231345D01*
X185718Y231372D01*
X185673Y231398D01*
X185628Y231424D01*
X185583Y231448D01*
X185538Y231472D01*
X185492Y231496D01*
X185445Y231518D01*
X185399Y231540D01*
X185352Y231561D01*
X185304Y231582D01*
X185257Y231602D01*
X185209Y231621D01*
X185161Y231639D01*
X185112Y231656D01*
X185064Y231673D01*
X185014Y231689D01*
X184965Y231704D01*
X184916Y231719D01*
X184866Y231733D01*
X184816Y231746D01*
X184766Y231758D01*
X184716Y231769D01*
X184666Y231780D01*
X184615Y231790D01*
X184564Y231799D01*
X184513Y231807D01*
X184462Y231815D01*
X184411Y231821D01*
X184360Y231827D01*
X184309Y231832D01*
X184257Y231837D01*
X184206Y231840D01*
X184155Y231843D01*
X184103Y231845D01*
X184052Y231846D01*
X184000Y231846D01*
X183949Y231846D01*
X183897Y231845D01*
X183845Y231843D01*
X183794Y231840D01*
X183743Y231837D01*
X183691Y231832D01*
X183640Y231827D01*
X183589Y231821D01*
X183538Y231815D01*
X183487Y231807D01*
X183436Y231799D01*
X183385Y231790D01*
X183335Y231780D01*
X183284Y231769D01*
X183234Y231758D01*
X183184Y231746D01*
X183134Y231733D01*
X183084Y231719D01*
X183035Y231704D01*
X182985Y231689D01*
X182937Y231673D01*
X182888Y231656D01*
X182839Y231639D01*
X182791Y231621D01*
X182743Y231602D01*
X182696Y231582D01*
X182648Y231561D01*
X182601Y231540D01*
X182555Y231518D01*
X182508Y231496D01*
X182462Y231472D01*
X182417Y231448D01*
X182372Y231424D01*
X182327Y231398D01*
X182282Y231372D01*
X182238Y231345D01*
X182195Y231318D01*
X182151Y231290D01*
X182109Y231261D01*
X182067Y231231D01*
X182025Y231201D01*
X181983Y231171D01*
X181942Y231139D01*
X181902Y231107D01*
X181862Y231075D01*
X181823Y231041D01*
X181784Y231008D01*
X181745Y230973D01*
X181708Y230938D01*
X181670Y230903D01*
X181634Y230866D01*
X181597Y230830D01*
X181562Y230792D01*
X181527Y230755D01*
X181492Y230716D01*
X181459Y230677D01*
X181425Y230638D01*
X181393Y230598D01*
X181361Y230558D01*
X181329Y230517D01*
X181299Y230475D01*
X181269Y230434D01*
X181239Y230391D01*
X181210Y230348D01*
X181182Y230305D01*
X181155Y230262D01*
X181128Y230218D01*
X181102Y230173D01*
X181076Y230129D01*
X181052Y230083D01*
X181028Y230038D01*
X181004Y229992D01*
X180982Y229945D01*
X180960Y229899D01*
X180939Y229852D01*
X180918Y229804D01*
X180898Y229757D01*
X180879Y229709D01*
X180861Y229661D01*
X180844Y229612D01*
X180827Y229563D01*
X180811Y229515D01*
X180796Y229465D01*
X180781Y229416D01*
X180768Y229366D01*
X180754Y229316D01*
X180742Y229266D01*
X180731Y229216D01*
X180720Y229166D01*
X180710Y229115D01*
X180701Y229064D01*
X180693Y229013D01*
X180685Y228962D01*
X180679Y228911D01*
X180673Y228860D01*
X180668Y228809D01*
X180663Y228757D01*
X180660Y228706D01*
X180657Y228655D01*
X180655Y228603D01*
X180654Y228552D01*
X180653Y228500D01*
X180654Y228449D01*
X180655Y228397D01*
X180657Y228345D01*
X180660Y228294D01*
X180663Y228243D01*
X180668Y228191D01*
X180673Y228140D01*
X180679Y228089D01*
X180685Y228038D01*
X180693Y227987D01*
X180701Y227936D01*
X180710Y227885D01*
X180720Y227835D01*
X180731Y227784D01*
X180742Y227734D01*
X180754Y227684D01*
X180768Y227634D01*
X180781Y227584D01*
X180796Y227535D01*
X180811Y227485D01*
X180827Y227436D01*
X180844Y227388D01*
X180861Y227339D01*
X180879Y227291D01*
X180898Y227243D01*
X180918Y227196D01*
X180939Y227148D01*
X180960Y227101D01*
X180982Y227055D01*
X181004Y227008D01*
X181028Y226962D01*
X181052Y226917D01*
X181076Y226871D01*
X181102Y226827D01*
X181128Y226782D01*
X181155Y226738D01*
X181182Y226695D01*
X181210Y226652D01*
X181239Y226609D01*
X181269Y226566D01*
X181299Y226525D01*
X181329Y226483D01*
X181361Y226442D01*
X181393Y226402D01*
X181425Y226362D01*
X181459Y226323D01*
X181492Y226284D01*
X181527Y226245D01*
X181562Y226208D01*
X181597Y226170D01*
X181634Y226134D01*
X181670Y226097D01*
X181708Y226062D01*
X181745Y226027D01*
X181784Y225992D01*
X181823Y225959D01*
X181862Y225925D01*
X181902Y225893D01*
X181942Y225861D01*
X181983Y225829D01*
X182025Y225799D01*
X182067Y225769D01*
X182109Y225739D01*
X182151Y225710D01*
X182195Y225682D01*
X182238Y225655D01*
X182282Y225628D01*
X182327Y225602D01*
X182372Y225576D01*
X182417Y225552D01*
X182462Y225528D01*
X182508Y225504D01*
X182555Y225482D01*
X182601Y225460D01*
X182648Y225439D01*
X182696Y225418D01*
X182743Y225398D01*
X182791Y225379D01*
X182839Y225361D01*
X182888Y225344D01*
X182937Y225327D01*
X182985Y225311D01*
X183035Y225296D01*
X183084Y225281D01*
X183134Y225268D01*
X183184Y225255D01*
X183234Y225242D01*
X183284Y225231D01*
X183335Y225220D01*
X183385Y225210D01*
X183436Y225201D01*
X183487Y225193D01*
X183538Y225185D01*
X183589Y225179D01*
X183640Y225173D01*
X183691Y225168D01*
X183743Y225163D01*
X183794Y225160D01*
X183845Y225157D01*
X183897Y225155D01*
X183949Y225154D01*
X184000Y225153D01*
X184052Y225154D01*
X184103Y225155D01*
X184155Y225157D01*
X184206Y225160D01*
X184257Y225163D01*
X184309Y225168D01*
X184360Y225173D01*
X184411Y225179D01*
X184462Y225185D01*
X184513Y225193D01*
X184564Y225201D01*
X184615Y225210D01*
X184666Y225220D01*
X184716Y225231D01*
X184766Y225242D01*
X184816Y225255D01*
X184866Y225268D01*
X184916Y225281D01*
X184965Y225296D01*
X185014Y225311D01*
X185064Y225327D01*
X185112Y225344D01*
X185161Y225361D01*
X185209Y225379D01*
X185257Y225398D01*
X185304Y225418D01*
X185352Y225439D01*
X185399Y225460D01*
X185445Y225482D01*
X185492Y225504D01*
X185538Y225528D01*
X185583Y225552D01*
X185628Y225576D01*
X185673Y225602D01*
X185718Y225628D01*
X185762Y225655D01*
X185805Y225682D01*
X185848Y225710D01*
X185891Y225739D01*
X185933Y225769D01*
X185975Y225799D01*
X186017Y225829D01*
X186058Y225861D01*
X186098Y225893D01*
X186138Y225925D01*
X186177Y225959D01*
X186216Y225992D01*
X186255Y226027D01*
X186292Y226062D01*
X186330Y226097D01*
X186366Y226134D01*
X186402Y226170D01*
X186438Y226208D01*
X186473Y226245D01*
X186508Y226284D01*
X186541Y226323D01*
X186575Y226362D01*
X186607Y226402D01*
X186639Y226442D01*
X186671Y226483D01*
X186701Y226525D01*
X186731Y226566D01*
X186761Y226609D01*
X186790Y226652D01*
X186818Y226695D01*
X186845Y226738D01*
X186872Y226782D01*
X186898Y226827D01*
X186924Y226871D01*
X186948Y226917D01*
X186972Y226962D01*
X186996Y227008D01*
X187018Y227055D01*
X187040Y227101D01*
X187061Y227148D01*
X187082Y227196D01*
X187102Y227243D01*
X187121Y227291D01*
X187139Y227339D01*
X187156Y227388D01*
X187173Y227436D01*
X187189Y227485D01*
X187204Y227535D01*
X187219Y227584D01*
X187232Y227634D01*
X187246Y227684D01*
X187258Y227734D01*
X187269Y227784D01*
X187280Y227835D01*
X187290Y227885D01*
X187299Y227936D01*
X187307Y227987D01*
X187314Y228038D01*
X187321Y228089D01*
X187327Y228140D01*
X187332Y228191D01*
X187337Y228243D01*
X187340Y228294D01*
X187343Y228345D01*
X187345Y228397D01*
X187346Y228449D01*
X187347Y228500D01*
X187346Y228552D01*
X187345Y228603D01*
X187343Y228655D01*
X187340Y228706D01*
X187337Y228757D01*
X187332Y228809D01*
X187327Y228860D01*
X187321Y228911D01*
X187314Y228962D01*
X187307Y229013D01*
X187299Y229064D01*
X187290Y229115D01*
X187280Y229166D01*
X187269Y229216D01*
X187258Y229266D01*
X187246Y229316D01*
X187232Y229366D01*
X187219Y229416D01*
X187204Y229465D01*
X187189Y229515D01*
X187173Y229563D01*
X187156Y229612D01*
X187139Y229661D01*
X187121Y229709D01*
X187102Y229757D01*
X187082Y229804D01*
X187061Y229852D01*
X187040Y229899D01*
X187018Y229945D01*
X186996Y229992D01*
X186972Y230038D01*
X186948Y230083D01*
X186924Y230129D01*
X186898Y230173D01*
X186872Y230218D01*
X186845Y230262D01*
X186836Y230277D01*
X192335Y235776D01*
X192347Y235771D01*
Y233910D01*
X193378D01*
Y235500D01*
X194378D01*
Y233910D01*
X195409D01*
Y234516D01*
X197047D01*
Y235312D01*
X202045Y240309D01*
X202062Y240327D01*
X202067Y240332D01*
X202079Y240328D01*
Y238692D01*
X199675Y236289D01*
X199658Y236271D01*
X199642Y236253D01*
X199626Y236234D01*
X199610Y236215D01*
X199595Y236195D01*
X199581Y236175D01*
X199567Y236154D01*
X199554Y236133D01*
X199542Y236112D01*
X199531Y236090D01*
X199520Y236068D01*
X199510Y236045D01*
X199500Y236022D01*
X199491Y235999D01*
X199483Y235976D01*
X199476Y235952D01*
X199469Y235928D01*
X199464Y235904D01*
X199459Y235880D01*
X199454Y235856D01*
X199451Y235831D01*
X199448Y235806D01*
X199446Y235782D01*
X199445Y235757D01*
X199445Y235732D01*
Y235028D01*
X198264D01*
Y231287D01*
X202201D01*
Y235028D01*
X201020D01*
Y235406D01*
X203423Y237809D01*
X203423Y237809D01*
X203440Y237827D01*
X203457Y237845D01*
X203473Y237864D01*
X203488Y237883D01*
X203503Y237903D01*
X203518Y237924D01*
X203531Y237944D01*
X203544Y237965D01*
X203556Y237987D01*
X203568Y238009D01*
X203579Y238031D01*
X203589Y238053D01*
X203598Y238076D01*
X203607Y238099D01*
X203615Y238123D01*
X203622Y238146D01*
X203629Y238170D01*
X203635Y238194D01*
X203640Y238219D01*
X203644Y238243D01*
X203647Y238267D01*
X203650Y238292D01*
X203652Y238317D01*
X203653Y238341D01*
X203654Y238366D01*
Y240552D01*
X203665Y240556D01*
X203670Y240551D01*
X203687Y240534D01*
X205957Y238264D01*
Y237090D01*
X205000D01*
Y235500D01*
X204500D01*
Y235000D01*
X202969D01*
Y234421D01*
X202866D01*
Y232346D01*
X207819D01*
Y233555D01*
X207831Y233559D01*
X208787Y232603D01*
Y229878D01*
X209870D01*
Y228878D01*
X209197D01*
Y226122D01*
X212543D01*
Y228878D01*
X211445D01*
Y229878D01*
X212528D01*
Y233815D01*
X209803D01*
X207669Y235948D01*
Y236484D01*
X207532D01*
Y238591D01*
X207531Y238615D01*
X207530Y238640D01*
X207528Y238665D01*
X207525Y238689D01*
X207522Y238714D01*
X207518Y238738D01*
X207513Y238762D01*
X207507Y238786D01*
X207500Y238810D01*
X207493Y238834D01*
X207485Y238857D01*
X207476Y238880D01*
X207467Y238903D01*
X207457Y238926D01*
X207446Y238948D01*
X207434Y238970D01*
X207422Y238991D01*
X207409Y239013D01*
X207395Y239033D01*
X207381Y239053D01*
X207366Y239073D01*
X207351Y239092D01*
X207335Y239111D01*
X207318Y239130D01*
X207301Y239147D01*
X205325Y241123D01*
X205332Y241134D01*
X205355Y241125D01*
X205379Y241117D01*
X205402Y241110D01*
X205426Y241103D01*
X205450Y241098D01*
X205474Y241093D01*
X205499Y241088D01*
X205523Y241085D01*
X205548Y241082D01*
X205573Y241080D01*
X205597Y241079D01*
X205622Y241079D01*
X205647Y241079D01*
X205672Y241080D01*
X205696Y241082D01*
X205721Y241085D01*
X205745Y241088D01*
X205770Y241093D01*
X205794Y241098D01*
X205818Y241103D01*
X205842Y241110D01*
X205865Y241117D01*
X205889Y241125D01*
X205912Y241134D01*
X205935Y241143D01*
X205957Y241154D01*
X205980Y241164D01*
X206001Y241176D01*
X206023Y241188D01*
X206044Y241201D01*
X206065Y241215D01*
X206085Y241229D01*
X206105Y241244D01*
X206124Y241259D01*
X206143Y241275D01*
X206161Y241292D01*
X206179Y241309D01*
X206196Y241327D01*
X206213Y241345D01*
X206229Y241364D01*
X206244Y241384D01*
X206259Y241403D01*
X206273Y241424D01*
X206287Y241444D01*
X206300Y241465D01*
X206305Y241474D01*
X206317D01*
X206322Y241465D01*
X206335Y241444D01*
X206349Y241424D01*
X206363Y241403D01*
X206378Y241384D01*
X206393Y241364D01*
X206409Y241345D01*
X206426Y241327D01*
X206443Y241309D01*
X206461Y241292D01*
X206479Y241275D01*
X206498Y241259D01*
X206517Y241244D01*
X206537Y241229D01*
X206557Y241215D01*
X206578Y241201D01*
X206599Y241188D01*
X206621Y241176D01*
X206643Y241164D01*
X206665Y241154D01*
X206687Y241143D01*
X206710Y241134D01*
X206733Y241125D01*
X206757Y241117D01*
X206780Y241110D01*
X206804Y241103D01*
X206828Y241098D01*
X206852Y241093D01*
X206877Y241088D01*
X206901Y241085D01*
X206926Y241082D01*
X206951Y241080D01*
X206975Y241079D01*
X207000Y241079D01*
X207025Y241079D01*
X207049Y241080D01*
X207074Y241082D01*
X207099Y241085D01*
X207123Y241088D01*
X207148Y241093D01*
X207172Y241098D01*
X207196Y241103D01*
X207220Y241110D01*
X207243Y241117D01*
X207267Y241125D01*
X207290Y241134D01*
X207313Y241143D01*
X207335Y241154D01*
X207358Y241164D01*
X207379Y241176D01*
X207401Y241188D01*
X207422Y241201D01*
X207443Y241215D01*
X207463Y241229D01*
X207483Y241244D01*
X207502Y241259D01*
X207521Y241275D01*
X207539Y241292D01*
X207557Y241309D01*
X207574Y241327D01*
X207591Y241345D01*
X207607Y241364D01*
X207622Y241384D01*
X207637Y241403D01*
X207651Y241424D01*
X207665Y241444D01*
X207678Y241465D01*
X207683Y241474D01*
X207695D01*
X207700Y241465D01*
X207713Y241444D01*
X207727Y241424D01*
X207741Y241403D01*
X207756Y241384D01*
X207771Y241364D01*
X207787Y241345D01*
X207804Y241327D01*
X207821Y241309D01*
X207839Y241292D01*
X207857Y241275D01*
X207876Y241259D01*
X207895Y241244D01*
X207915Y241229D01*
X207935Y241215D01*
X207956Y241201D01*
X207977Y241188D01*
X207999Y241176D01*
X208020Y241164D01*
X208043Y241154D01*
X208065Y241143D01*
X208088Y241134D01*
X208111Y241125D01*
X208135Y241117D01*
X208158Y241110D01*
X208182Y241103D01*
X208206Y241098D01*
X208230Y241093D01*
X208255Y241088D01*
X208279Y241085D01*
X208304Y241082D01*
X208329Y241080D01*
X208353Y241079D01*
X208378Y241079D01*
X208403Y241079D01*
X208427Y241080D01*
X208452Y241082D01*
X208477Y241085D01*
X208501Y241088D01*
X208525Y241093D01*
X208550Y241098D01*
X208574Y241103D01*
X208598Y241110D01*
X208621Y241117D01*
X208645Y241125D01*
X208668Y241134D01*
X208691Y241143D01*
X208713Y241154D01*
X208735Y241164D01*
X208757Y241176D01*
X208779Y241188D01*
X208800Y241201D01*
X208821Y241215D01*
X208841Y241229D01*
X208861Y241244D01*
X208880Y241259D01*
X208899Y241275D01*
X208917Y241292D01*
X208935Y241309D01*
X208952Y241327D01*
X208969Y241345D01*
X208985Y241364D01*
X209000Y241384D01*
X209015Y241403D01*
X209029Y241424D01*
X209043Y241444D01*
X209056Y241465D01*
X209061Y241474D01*
X209073D01*
X209078Y241465D01*
X209091Y241444D01*
X209105Y241424D01*
X209116Y241407D01*
Y240136D01*
X209105Y240130D01*
X209103Y240131D01*
X209089Y240151D01*
X209073Y240172D01*
X209057Y240192D01*
X209040Y240211D01*
X209022Y240230D01*
X209004Y240248D01*
X208986Y240266D01*
X208967Y240284D01*
X208947Y240301D01*
X208927Y240317D01*
X208907Y240333D01*
X208886Y240348D01*
X208865Y240362D01*
X208843Y240376D01*
X208821Y240389D01*
X208798Y240402D01*
X208776Y240414D01*
X208752Y240425D01*
X208729Y240436D01*
X208705Y240445D01*
X208681Y240455D01*
X208657Y240463D01*
X208632Y240471D01*
X208607Y240478D01*
X208582Y240484D01*
X208557Y240490D01*
X208532Y240494D01*
X208506Y240499D01*
X208481Y240502D01*
X208455Y240505D01*
X208430Y240507D01*
X208404Y240508D01*
X208378Y240508D01*
X208352Y240508D01*
X208326Y240507D01*
X208301Y240505D01*
X208275Y240502D01*
X208249Y240499D01*
X208224Y240494D01*
X208199Y240490D01*
X208174Y240484D01*
X208149Y240478D01*
X208124Y240471D01*
X208099Y240463D01*
X208075Y240455D01*
X208051Y240445D01*
X208027Y240436D01*
X208003Y240425D01*
X207980Y240414D01*
X207958Y240402D01*
X207935Y240389D01*
X207913Y240376D01*
X207891Y240362D01*
X207870Y240348D01*
X207849Y240333D01*
X207828Y240317D01*
X207808Y240301D01*
X207789Y240284D01*
X207770Y240266D01*
X207751Y240248D01*
X207734Y240230D01*
X207716Y240211D01*
X207699Y240192D01*
X207683Y240172D01*
X207667Y240151D01*
X207652Y240130D01*
X207638Y240109D01*
X207624Y240087D01*
X207611Y240065D01*
X207598Y240042D01*
X207586Y240020D01*
X207575Y239997D01*
X207564Y239973D01*
X207555Y239949D01*
X207545Y239925D01*
X207537Y239901D01*
X207529Y239876D01*
X207522Y239851D01*
X207516Y239826D01*
X207510Y239801D01*
X207505Y239776D01*
X207501Y239751D01*
X207498Y239725D01*
X207495Y239699D01*
X207493Y239674D01*
X207492Y239648D01*
X207492Y239622D01*
X207492Y239596D01*
X207493Y239570D01*
X207495Y239545D01*
X207498Y239519D01*
X207501Y239494D01*
X207505Y239468D01*
X207510Y239443D01*
X207516Y239418D01*
X207522Y239393D01*
X207529Y239368D01*
X207537Y239343D01*
X207545Y239319D01*
X207555Y239295D01*
X207564Y239271D01*
X207575Y239248D01*
X207586Y239224D01*
X207598Y239202D01*
X207611Y239179D01*
X207624Y239157D01*
X207638Y239135D01*
X207652Y239114D01*
X207667Y239093D01*
X207683Y239073D01*
X207699Y239053D01*
X207716Y239033D01*
X207734Y239014D01*
X207751Y238996D01*
X207770Y238978D01*
X207789Y238960D01*
X207808Y238943D01*
X207828Y238927D01*
X207849Y238911D01*
X207870Y238896D01*
X207891Y238882D01*
X207913Y238868D01*
X207935Y238855D01*
X207958Y238842D01*
X207980Y238830D01*
X208003Y238819D01*
X208027Y238809D01*
X208051Y238799D01*
X208075Y238790D01*
X208099Y238781D01*
X208124Y238773D01*
X208149Y238766D01*
X208174Y238760D01*
X208199Y238754D01*
X208224Y238750D01*
X208249Y238745D01*
X208275Y238742D01*
X208301Y238739D01*
X208326Y238738D01*
X208352Y238737D01*
X208359Y238736D01*
X213360Y233735D01*
Y226631D01*
X212369Y225640D01*
X208000D01*
X207978Y225640D01*
X207956Y225638D01*
X207935Y225637D01*
X207913Y225634D01*
X207891Y225630D01*
X207870Y225626D01*
X207849Y225622D01*
X207827Y225616D01*
X207806Y225610D01*
X207786Y225603D01*
X207765Y225595D01*
X207745Y225587D01*
X207725Y225578D01*
X207706Y225568D01*
X207686Y225558D01*
X207667Y225547D01*
X207649Y225535D01*
X207631Y225523D01*
X207613Y225510D01*
X207596Y225496D01*
X207579Y225482D01*
X207563Y225468D01*
X207548Y225452D01*
X204214Y222119D01*
X204209Y222121D01*
X204161Y222139D01*
X204112Y222156D01*
X204064Y222173D01*
X204014Y222189D01*
X203965Y222204D01*
X203916Y222219D01*
X203866Y222233D01*
X203816Y222246D01*
X203766Y222258D01*
X203716Y222269D01*
X203665Y222280D01*
X203615Y222290D01*
X203564Y222299D01*
X203513Y222307D01*
X203462Y222315D01*
X203411Y222321D01*
X203360Y222327D01*
X203309Y222332D01*
X203257Y222337D01*
X203206Y222340D01*
X203155Y222343D01*
X203103Y222345D01*
X203051Y222346D01*
X203000Y222346D01*
X202948Y222346D01*
X202897Y222345D01*
X202845Y222343D01*
X202794Y222340D01*
X202743Y222337D01*
X202691Y222332D01*
X202640Y222327D01*
X202589Y222321D01*
X202538Y222315D01*
X202487Y222307D01*
X202436Y222299D01*
X202385Y222290D01*
X202334Y222280D01*
X202284Y222269D01*
X202234Y222258D01*
X202184Y222246D01*
X202134Y222233D01*
X202084Y222219D01*
X202035Y222204D01*
X201986Y222189D01*
X201937Y222173D01*
X201888Y222156D01*
X201839Y222139D01*
X201791Y222121D01*
X201743Y222102D01*
X201696Y222082D01*
X201648Y222061D01*
X201601Y222040D01*
X201555Y222018D01*
X201508Y221996D01*
X201462Y221972D01*
X201417Y221948D01*
X201372Y221924D01*
X201327Y221898D01*
X201282Y221872D01*
X201238Y221845D01*
X201195Y221818D01*
X201151Y221790D01*
X201109Y221761D01*
X201066Y221731D01*
X201025Y221701D01*
X200983Y221671D01*
X200942Y221639D01*
X200902Y221607D01*
X200862Y221575D01*
X200823Y221541D01*
X200784Y221508D01*
X200745Y221473D01*
X200708Y221438D01*
X200670Y221403D01*
X200634Y221366D01*
X200598Y221330D01*
X200562Y221292D01*
X200527Y221255D01*
X200492Y221216D01*
X200459Y221177D01*
X200425Y221138D01*
X200393Y221098D01*
X200361Y221058D01*
X200329Y221017D01*
X200299Y220975D01*
X200269Y220934D01*
X200239Y220891D01*
X200210Y220848D01*
X200182Y220805D01*
X200155Y220762D01*
X200128Y220718D01*
X200102Y220673D01*
X200076Y220628D01*
X200052Y220583D01*
X200028Y220538D01*
X200004Y220492D01*
X199982Y220445D01*
X199960Y220399D01*
X199939Y220352D01*
X199918Y220304D01*
X199898Y220257D01*
X199879Y220209D01*
X199861Y220161D01*
X199844Y220112D01*
X199827Y220063D01*
X199811Y220015D01*
X199796Y219965D01*
X199781Y219916D01*
X199767Y219866D01*
X199755Y219816D01*
X199742Y219766D01*
X199731Y219716D01*
X199720Y219666D01*
X199710Y219615D01*
X199701Y219564D01*
X199693Y219513D01*
X199686Y219462D01*
X199679Y219411D01*
X199673Y219360D01*
X199668Y219309D01*
X199663Y219257D01*
X199660Y219206D01*
X199657Y219155D01*
X199655Y219103D01*
X199654Y219052D01*
X199653Y219000D01*
X199654Y218949D01*
X199655Y218897D01*
X199657Y218845D01*
X199660Y218794D01*
X199663Y218743D01*
X199668Y218691D01*
X199673Y218640D01*
X199679Y218589D01*
X199686Y218538D01*
X199693Y218487D01*
X199701Y218436D01*
X199710Y218385D01*
X199720Y218335D01*
X199731Y218284D01*
X199742Y218234D01*
X199755Y218184D01*
X199767Y218134D01*
X199781Y218084D01*
X199796Y218035D01*
X199811Y217986D01*
X199827Y217936D01*
X199844Y217888D01*
X199861Y217839D01*
X199879Y217791D01*
X199898Y217743D01*
X199918Y217696D01*
X199939Y217648D01*
X199960Y217601D01*
X199982Y217555D01*
X200004Y217508D01*
X200028Y217462D01*
X200052Y217417D01*
X200076Y217372D01*
X200102Y217327D01*
X200128Y217282D01*
X200155Y217238D01*
X200182Y217195D01*
X200210Y217151D01*
X200239Y217109D01*
X200269Y217066D01*
X200299Y217025D01*
X200329Y216983D01*
X200361Y216942D01*
X200393Y216902D01*
X200425Y216862D01*
X200459Y216823D01*
X200492Y216784D01*
X200527Y216745D01*
X200562Y216708D01*
X200598Y216670D01*
X200634Y216634D01*
X200670Y216598D01*
X200708Y216562D01*
X200745Y216527D01*
X200784Y216492D01*
X200823Y216459D01*
X200862Y216425D01*
X200902Y216393D01*
X200942Y216361D01*
X200983Y216329D01*
X201025Y216299D01*
X201066Y216269D01*
X201109Y216239D01*
X201151Y216210D01*
X201195Y216182D01*
X201238Y216155D01*
X201282Y216128D01*
X201327Y216102D01*
X201372Y216076D01*
X201417Y216052D01*
X201462Y216028D01*
X201508Y216004D01*
X201555Y215982D01*
X201601Y215960D01*
X201648Y215939D01*
X201696Y215918D01*
X201743Y215898D01*
X201791Y215879D01*
X201839Y215861D01*
X201888Y215844D01*
X201937Y215827D01*
X201986Y215811D01*
X202035Y215796D01*
X202084Y215781D01*
X202134Y215768D01*
X202184Y215755D01*
X202234Y215742D01*
X202284Y215731D01*
X202334Y215720D01*
X202385Y215710D01*
X202436Y215701D01*
X202487Y215693D01*
X202538Y215686D01*
X202589Y215679D01*
X202640Y215673D01*
X202691Y215668D01*
X202743Y215663D01*
X202794Y215660D01*
X202845Y215657D01*
X202897Y215655D01*
X202948Y215654D01*
X203000Y215653D01*
X203051Y215654D01*
X203103Y215655D01*
X203155Y215657D01*
X203206Y215660D01*
X203257Y215663D01*
X203309Y215668D01*
X203360Y215673D01*
X203411Y215679D01*
X203462Y215686D01*
X203513Y215693D01*
X203564Y215701D01*
X203615Y215710D01*
X203665Y215720D01*
X203716Y215731D01*
X203766Y215742D01*
X203816Y215755D01*
X203866Y215768D01*
X203916Y215781D01*
X203965Y215796D01*
X204014Y215811D01*
X204064Y215827D01*
X204112Y215844D01*
X204161Y215861D01*
X204209Y215879D01*
X204257Y215898D01*
X204304Y215918D01*
X204352Y215939D01*
X204399Y215960D01*
X204445Y215982D01*
X204492Y216004D01*
X204538Y216028D01*
X204583Y216052D01*
X204628Y216076D01*
X204673Y216102D01*
X204718Y216128D01*
X204762Y216155D01*
X204805Y216182D01*
X204849Y216210D01*
X204891Y216239D01*
X204934Y216269D01*
X204975Y216299D01*
X205017Y216329D01*
X205058Y216361D01*
X205098Y216393D01*
X205138Y216425D01*
X205177Y216459D01*
X205216Y216492D01*
X205255Y216527D01*
X205292Y216562D01*
X205330Y216598D01*
X205366Y216634D01*
X205402Y216670D01*
X205438Y216708D01*
X205473Y216745D01*
X205508Y216784D01*
X205541Y216823D01*
X205575Y216862D01*
X205607Y216902D01*
X205639Y216942D01*
X205671Y216983D01*
X205701Y217025D01*
X205731Y217066D01*
X205761Y217109D01*
X205790Y217151D01*
X205818Y217195D01*
X205845Y217238D01*
X205872Y217282D01*
X205898Y217327D01*
X205924Y217372D01*
X205948Y217417D01*
X205972Y217462D01*
X205996Y217508D01*
X206018Y217555D01*
X206040Y217601D01*
X206061Y217648D01*
X206082Y217696D01*
X206102Y217743D01*
X206121Y217791D01*
X206139Y217839D01*
X206156Y217888D01*
X206173Y217936D01*
X206189Y217986D01*
X206204Y218035D01*
X206219Y218084D01*
X206233Y218134D01*
X206245Y218184D01*
X206258Y218234D01*
X206269Y218284D01*
X206280Y218335D01*
X206290Y218385D01*
X206299Y218436D01*
X206307Y218487D01*
X206314Y218538D01*
X206321Y218589D01*
X206327Y218640D01*
X206332Y218691D01*
X206337Y218743D01*
X206340Y218794D01*
X206343Y218845D01*
X206345Y218897D01*
X206346Y218949D01*
X206347Y219000D01*
X206346Y219052D01*
X206345Y219103D01*
X206343Y219155D01*
X206340Y219206D01*
X206337Y219257D01*
X206332Y219309D01*
X206327Y219360D01*
X206321Y219411D01*
X206314Y219462D01*
X206307Y219513D01*
X206299Y219564D01*
X206290Y219615D01*
X206280Y219666D01*
X206269Y219716D01*
X206258Y219766D01*
X206245Y219816D01*
X206233Y219866D01*
X206219Y219916D01*
X206204Y219965D01*
X206189Y220015D01*
X206173Y220063D01*
X206156Y220112D01*
X206139Y220161D01*
X206121Y220209D01*
X206102Y220257D01*
X206082Y220304D01*
X206061Y220352D01*
X206040Y220399D01*
X206018Y220445D01*
X205996Y220492D01*
X205972Y220538D01*
X205948Y220583D01*
X205924Y220628D01*
X205898Y220673D01*
X205872Y220718D01*
X205845Y220762D01*
X205818Y220805D01*
X205790Y220848D01*
X205761Y220891D01*
X205731Y220934D01*
X205701Y220975D01*
X205671Y221017D01*
X205639Y221058D01*
X205607Y221098D01*
X205575Y221138D01*
X205541Y221177D01*
X205508Y221216D01*
X205473Y221255D01*
X205438Y221292D01*
X205402Y221330D01*
X205366Y221366D01*
X205330Y221403D01*
X205325Y221407D01*
X205325Y221420D01*
X208265Y224360D01*
X212634D01*
X212656Y224360D01*
X212678Y224362D01*
X212699Y224363D01*
X212721Y224366D01*
X212743Y224370D01*
X212764Y224374D01*
X212785Y224378D01*
X212807Y224384D01*
X212827Y224390D01*
X212848Y224397D01*
X212869Y224405D01*
X212889Y224413D01*
X212909Y224422D01*
X212928Y224432D01*
X212947Y224442D01*
X212966Y224453D01*
X212985Y224465D01*
X213003Y224477D01*
X213020Y224490D01*
X213038Y224504D01*
X213054Y224518D01*
X213071Y224532D01*
X213086Y224548D01*
X214452Y225914D01*
X214468Y225929D01*
X214470Y225932D01*
X214482Y225928D01*
Y225887D01*
X212548Y223952D01*
X212532Y223937D01*
X212518Y223920D01*
X212504Y223904D01*
X212490Y223887D01*
X212477Y223869D01*
X212465Y223851D01*
X212453Y223833D01*
X212442Y223814D01*
X212432Y223794D01*
X212422Y223775D01*
X212413Y223755D01*
X212405Y223735D01*
X212397Y223714D01*
X212390Y223694D01*
X212384Y223673D01*
X212378Y223652D01*
X212373Y223630D01*
X212369Y223609D01*
X212366Y223587D01*
X212364Y223565D01*
X212362Y223544D01*
X212361Y223522D01*
X212360Y223500D01*
Y222346D01*
X209653D01*
Y215653D01*
X216347D01*
Y222346D01*
X213640D01*
Y223235D01*
X215575Y225170D01*
X215590Y225185D01*
X215604Y225202D01*
X215618Y225218D01*
X215632Y225235D01*
X215645Y225253D01*
X215657Y225271D01*
X215669Y225290D01*
X215680Y225308D01*
X215690Y225328D01*
X215700Y225347D01*
X215709Y225367D01*
X215717Y225387D01*
X215725Y225408D01*
X215732Y225429D01*
X215738Y225449D01*
X215744Y225471D01*
X215749Y225492D01*
X215753Y225513D01*
X215756Y225535D01*
X215759Y225557D01*
X215760Y225578D01*
X215761Y225600D01*
X215762Y225622D01*
Y234378D01*
X215761Y234400D01*
X215760Y234422D01*
X215759Y234443D01*
X215756Y234465D01*
X215753Y234487D01*
X215749Y234508D01*
X215744Y234529D01*
X215738Y234551D01*
X215732Y234572D01*
X215725Y234592D01*
X215717Y234613D01*
X215709Y234633D01*
X215700Y234653D01*
X215690Y234672D01*
X215680Y234692D01*
X215669Y234710D01*
X215657Y234729D01*
X215645Y234747D01*
X215632Y234765D01*
X215618Y234782D01*
X215604Y234799D01*
X215590Y234815D01*
X215575Y234830D01*
X210396Y240009D01*
Y241407D01*
X210407Y241424D01*
X210421Y241444D01*
X210434Y241465D01*
X210438Y241474D01*
X210451D01*
X210456Y241465D01*
X210469Y241444D01*
X210483Y241424D01*
X210497Y241403D01*
X210512Y241384D01*
X210527Y241364D01*
X210543Y241345D01*
X210560Y241327D01*
X210577Y241309D01*
X210595Y241292D01*
X210613Y241275D01*
X210632Y241259D01*
X210651Y241244D01*
X210671Y241229D01*
X210691Y241215D01*
X210712Y241201D01*
X210733Y241188D01*
X210754Y241176D01*
X210776Y241164D01*
X210799Y241154D01*
X210821Y241143D01*
X210844Y241134D01*
X210867Y241125D01*
X210891Y241117D01*
X210914Y241110D01*
X210938Y241103D01*
X210962Y241098D01*
X210986Y241093D01*
X211011Y241088D01*
X211035Y241085D01*
X211060Y241082D01*
X211084Y241080D01*
X211109Y241079D01*
X211134Y241079D01*
X211159Y241079D01*
X211183Y241080D01*
X211208Y241082D01*
X211232Y241085D01*
X211257Y241088D01*
X211281Y241093D01*
X211306Y241098D01*
X211330Y241103D01*
X211354Y241110D01*
X211377Y241117D01*
X211401Y241125D01*
X211424Y241134D01*
X211447Y241143D01*
X211469Y241154D01*
X211491Y241164D01*
X211513Y241176D01*
X211535Y241188D01*
X211556Y241201D01*
X211577Y241215D01*
X211597Y241229D01*
X211616Y241244D01*
X211636Y241259D01*
X211655Y241275D01*
X211673Y241292D01*
X211691Y241309D01*
X211708Y241327D01*
X211725Y241345D01*
X211741Y241364D01*
X211756Y241384D01*
X211771Y241403D01*
X211785Y241424D01*
X211799Y241444D01*
X211812Y241465D01*
X211817Y241474D01*
X211829D01*
X211834Y241465D01*
X211847Y241444D01*
X211860Y241424D01*
X211872Y241407D01*
Y239488D01*
X211872Y239466D01*
X211874Y239444D01*
X211875Y239423D01*
X211878Y239401D01*
X211881Y239380D01*
X211885Y239358D01*
X211890Y239337D01*
X211896Y239316D01*
X211902Y239295D01*
X211909Y239274D01*
X211917Y239253D01*
X211925Y239233D01*
X211934Y239213D01*
X211944Y239194D01*
X211954Y239175D01*
X211965Y239156D01*
X211977Y239137D01*
X211989Y239119D01*
X212002Y239102D01*
X212016Y239084D01*
X212030Y239068D01*
X212044Y239052D01*
X212059Y239036D01*
X216860Y234235D01*
Y229953D01*
X216861Y229931D01*
X216862Y229909D01*
X216863Y229887D01*
X216866Y229866D01*
X216869Y229844D01*
X216874Y229823D01*
X216878Y229801D01*
X216884Y229780D01*
X216890Y229759D01*
X216897Y229738D01*
X216905Y229718D01*
X216913Y229698D01*
X216922Y229678D01*
X216932Y229658D01*
X216942Y229639D01*
X216953Y229620D01*
X216965Y229602D01*
X216977Y229584D01*
X216990Y229566D01*
X217004Y229549D01*
X217018Y229532D01*
X217032Y229516D01*
X217048Y229500D01*
X217630Y228918D01*
X217646Y228903D01*
X217662Y228888D01*
X217679Y228874D01*
X217696Y228860D01*
X217697Y228860D01*
Y227059D01*
X220370D01*
Y226059D01*
X217697D01*
Y223689D01*
X220480D01*
Y222913D01*
X222012D01*
Y222413D01*
X222512D01*
Y220823D01*
X223543D01*
Y221429D01*
X225181D01*
Y223398D01*
X224896D01*
Y224295D01*
X226965D01*
Y228823D01*
X223736D01*
X223172Y229386D01*
X223177Y229398D01*
X224398D01*
Y232268D01*
X224898D01*
Y232768D01*
X227571D01*
Y235138D01*
X225409D01*
Y235756D01*
X223878D01*
Y236256D01*
X223378D01*
Y237846D01*
X222346D01*
Y237240D01*
X220709D01*
Y235272D01*
X220994D01*
Y234531D01*
X220373D01*
X214530Y240375D01*
Y241407D01*
X214541Y241424D01*
X214555Y241444D01*
X214568Y241465D01*
X214580Y241487D01*
X214591Y241509D01*
X214602Y241531D01*
X214613Y241553D01*
X214622Y241576D01*
X214631Y241599D01*
X214639Y241623D01*
X214646Y241646D01*
X214652Y241670D01*
X214658Y241694D01*
X214663Y241719D01*
X214668Y241743D01*
X214671Y241767D01*
X214674Y241792D01*
X214676Y241817D01*
X214677Y241841D01*
X214677Y241866D01*
X214677Y241891D01*
X214676Y241916D01*
X214674Y241940D01*
X214671Y241965D01*
X214668Y241989D01*
X214663Y242014D01*
X214658Y242038D01*
X214652Y242062D01*
X214646Y242086D01*
X214639Y242109D01*
X214631Y242133D01*
X214622Y242156D01*
X214613Y242179D01*
X214602Y242201D01*
X214591Y242224D01*
X214580Y242246D01*
X214568Y242267D01*
X214555Y242288D01*
X214541Y242309D01*
X214527Y242329D01*
X214512Y242349D01*
X214496Y242368D01*
X214480Y242387D01*
X214464Y242405D01*
X214447Y242423D01*
X214429Y242440D01*
X214424Y242445D01*
X214428Y242457D01*
X214796D01*
X217983Y239270D01*
X218000Y239253D01*
X218019Y239236D01*
X218037Y239220D01*
X218057Y239205D01*
X218076Y239190D01*
X218097Y239175D01*
X218117Y239162D01*
X218139Y239149D01*
X218160Y239137D01*
X218182Y239125D01*
X218204Y239114D01*
X218227Y239104D01*
X218250Y239095D01*
X218273Y239086D01*
X218296Y239078D01*
X218320Y239071D01*
X218343Y239064D01*
X218368Y239058D01*
X218392Y239053D01*
X218416Y239049D01*
X218441Y239046D01*
X218465Y239043D01*
X218490Y239041D01*
X218515Y239040D01*
X218539Y239039D01*
X221709D01*
Y238784D01*
X223346D01*
Y238177D01*
X224378D01*
Y239768D01*
Y241358D01*
X223346D01*
Y240752D01*
X221709D01*
Y240614D01*
X218866D01*
X215679Y243801D01*
X215661Y243818D01*
X215643Y243835D01*
X215624Y243851D01*
X215605Y243866D01*
X215585Y243881D01*
X215565Y243895D01*
X215544Y243909D01*
X215523Y243922D01*
X215501Y243934D01*
X215480Y243946D01*
X215457Y243957D01*
X215435Y243967D01*
X215412Y243976D01*
X215389Y243985D01*
X215365Y243993D01*
X215342Y244000D01*
X215318Y244007D01*
X215294Y244013D01*
X215270Y244018D01*
X215245Y244022D01*
X215221Y244025D01*
X215196Y244028D01*
X215172Y244030D01*
X215163Y244030D01*
X215157Y244041D01*
X215158Y244043D01*
X215171Y244073D01*
X215184Y244104D01*
X215191Y244122D01*
X213890D01*
Y244622D01*
X213398D01*
X213398Y244648D01*
X213396Y244673D01*
X213394Y244699D01*
X213392Y244725D01*
X213390Y244741D01*
Y245923D01*
X213372Y245916D01*
X213341Y245903D01*
X213311Y245890D01*
X213281Y245876D01*
X213251Y245861D01*
X213222Y245845D01*
X213193Y245829D01*
X213164Y245812D01*
X213136Y245795D01*
X213108Y245776D01*
X213081Y245757D01*
X213054Y245738D01*
X213028Y245718D01*
X213002Y245697D01*
X212977Y245675D01*
X212952Y245653D01*
X212928Y245631D01*
X212904Y245608D01*
X212881Y245584D01*
X212858Y245560D01*
X212836Y245535D01*
X212815Y245510D01*
X212794Y245484D01*
X212781Y245466D01*
X212766Y245471D01*
X212741Y245478D01*
X212716Y245484D01*
X212691Y245490D01*
X212666Y245495D01*
X212640Y245499D01*
X212615Y245502D01*
X212589Y245505D01*
X212563Y245507D01*
X212538Y245508D01*
X212512Y245508D01*
X212486Y245508D01*
X212460Y245507D01*
X212449Y245506D01*
X212441Y245518D01*
X212451Y245544D01*
X212461Y245576D01*
X212471Y245607D01*
X212480Y245639D01*
X212488Y245671D01*
X212496Y245704D01*
X212503Y245736D01*
X212508Y245769D01*
X212513Y245802D01*
X212518Y245834D01*
X212521Y245867D01*
X212524Y245901D01*
X212526Y245934D01*
X212527Y245967D01*
X212528Y246000D01*
X212527Y246033D01*
X212526Y246066D01*
X212524Y246099D01*
X212521Y246132D01*
X212518Y246165D01*
X212513Y246198D01*
X212508Y246231D01*
X212503Y246264D01*
X212496Y246296D01*
X212488Y246329D01*
X212480Y246361D01*
X212471Y246393D01*
X212461Y246424D01*
X212451Y246456D01*
X212440Y246487D01*
X212428Y246518D01*
X212415Y246549D01*
X212402Y246579D01*
X212398Y246588D01*
X212405Y246598D01*
X212413Y246597D01*
X212438Y246594D01*
X212462Y246592D01*
X212487Y246591D01*
X212512Y246590D01*
X212537Y246591D01*
X212561Y246592D01*
X212586Y246594D01*
X212611Y246597D01*
X212635Y246600D01*
X212659Y246604D01*
X212684Y246609D01*
X212708Y246615D01*
X212732Y246622D01*
X212755Y246629D01*
X212779Y246637D01*
X212802Y246646D01*
X212825Y246655D01*
X212847Y246665D01*
X212869Y246676D01*
X212891Y246688D01*
X212913Y246700D01*
X212934Y246713D01*
X212954Y246727D01*
X212975Y246741D01*
X212995Y246756D01*
X213014Y246771D01*
X213033Y246787D01*
X213051Y246804D01*
X213069Y246821D01*
X213086Y246839D01*
X213103Y246857D01*
X213119Y246876D01*
X213134Y246895D01*
X213149Y246915D01*
X213163Y246935D01*
X213177Y246956D01*
X213190Y246977D01*
X213194Y246986D01*
X213207D01*
X213212Y246977D01*
X213225Y246956D01*
X213238Y246935D01*
X213253Y246915D01*
X213267Y246895D01*
X213283Y246876D01*
X213299Y246857D01*
X213316Y246839D01*
X213333Y246821D01*
X213351Y246804D01*
X213369Y246787D01*
X213388Y246771D01*
X213407Y246756D01*
X213427Y246741D01*
X213447Y246727D01*
X213468Y246713D01*
X213489Y246700D01*
X213510Y246688D01*
X213532Y246676D01*
X213555Y246665D01*
X213577Y246655D01*
X213600Y246646D01*
X213623Y246637D01*
X213646Y246629D01*
X213670Y246622D01*
X213694Y246615D01*
X213718Y246609D01*
X213742Y246604D01*
X213767Y246600D01*
X213791Y246597D01*
X213816Y246594D01*
X213840Y246592D01*
X213865Y246591D01*
X213890Y246590D01*
X215910D01*
Y245756D01*
X219091D01*
Y246394D01*
X220803D01*
Y246975D01*
X220816Y246978D01*
X220818Y246974D01*
X220840Y246938D01*
X220862Y246903D01*
X220885Y246868D01*
X220908Y246833D01*
X220932Y246799D01*
X220957Y246765D01*
X220982Y246731D01*
X221008Y246698D01*
X221035Y246666D01*
X221062Y246634D01*
X221089Y246603D01*
X221117Y246572D01*
X221146Y246541D01*
X221176Y246511D01*
X221197Y246490D01*
Y246394D01*
X221302D01*
X221330Y246370D01*
X221363Y246344D01*
X221396Y246318D01*
X221429Y246292D01*
X221463Y246268D01*
X221497Y246244D01*
X221532Y246220D01*
X221567Y246198D01*
X221603Y246175D01*
X221639Y246154D01*
X221675Y246133D01*
X221712Y246113D01*
X221749Y246093D01*
X221786Y246075D01*
X221824Y246056D01*
X221862Y246039D01*
X221901Y246022D01*
X221939Y246006D01*
X221978Y245991D01*
X222017Y245976D01*
X222057Y245962D01*
X222097Y245949D01*
X222137Y245937D01*
X222177Y245925D01*
X222217Y245914D01*
X222258Y245904D01*
X222299Y245894D01*
X222340Y245886D01*
X222381Y245878D01*
X222422Y245870D01*
X222464Y245864D01*
X222505Y245858D01*
X222547Y245853D01*
X222588Y245849D01*
X222630Y245846D01*
X222672Y245843D01*
X222714Y245841D01*
X222756Y245840D01*
X222798Y245840D01*
X222839Y245840D01*
X222881Y245841D01*
X222923Y245843D01*
X222965Y245846D01*
X223007Y245849D01*
X223048Y245853D01*
X223090Y245858D01*
X223132Y245864D01*
X223173Y245870D01*
X223214Y245878D01*
X223255Y245886D01*
X223296Y245894D01*
X223337Y245904D01*
X223378Y245914D01*
X223418Y245925D01*
X223458Y245937D01*
X223498Y245949D01*
X223538Y245962D01*
X223578Y245976D01*
X223617Y245991D01*
X223656Y246006D01*
X223695Y246022D01*
X223733Y246039D01*
X223771Y246056D01*
X223809Y246075D01*
X223846Y246093D01*
X223884Y246113D01*
X223920Y246133D01*
X223957Y246154D01*
X223992Y246175D01*
X224028Y246198D01*
X224063Y246220D01*
X224098Y246244D01*
X224132Y246268D01*
X224166Y246292D01*
X224200Y246318D01*
X224232Y246344D01*
X224265Y246370D01*
X224297Y246397D01*
X224328Y246425D01*
X224359Y246453D01*
X224390Y246482D01*
X224419Y246511D01*
X224449Y246541D01*
X224478Y246572D01*
X224506Y246603D01*
X224534Y246634D01*
X224561Y246666D01*
X224587Y246698D01*
X224613Y246731D01*
X224638Y246765D01*
X224663Y246799D01*
X224687Y246833D01*
X224706Y246861D01*
X224706Y246861D01*
X224707Y246862D01*
X224711Y246868D01*
X224713Y246872D01*
X224720Y246882D01*
X224737Y246907D01*
X224786Y246984D01*
X224834Y247060D01*
X224882Y247137D01*
X224930Y247215D01*
X224976Y247292D01*
X225022Y247371D01*
X225067Y247449D01*
X225112Y247528D01*
X225156Y247607D01*
X225199Y247687D01*
X225241Y247767D01*
X225283Y247848D01*
X225324Y247929D01*
X225365Y248010D01*
X225404Y248091D01*
X225443Y248173D01*
X225482Y248255D01*
X225519Y248338D01*
X225556Y248421D01*
X225592Y248504D01*
X225628Y248587D01*
X225662Y248671D01*
X225696Y248755D01*
X225730Y248840D01*
X225762Y248924D01*
X225794Y249009D01*
X225825Y249094D01*
X225855Y249180D01*
X225885Y249266D01*
X225914Y249352D01*
X225942Y249438D01*
X225969Y249524D01*
X225996Y249611D01*
X226022Y249698D01*
X226047Y249785D01*
X226071Y249872D01*
X226095Y249960D01*
X226117Y250048D01*
X226140Y250136D01*
X226161Y250224D01*
X226182Y250312D01*
X226201Y250401D01*
X226220Y250489D01*
X226239Y250578D01*
X226256Y250667D01*
X226273Y250756D01*
X226289Y250845D01*
X226304Y250935D01*
X226318Y251024D01*
X226332Y251114D01*
X226345Y251204D01*
X226357Y251294D01*
X226368Y251384D01*
X226379Y251474D01*
X226389Y251564D01*
X226398Y251654D01*
X226406Y251744D01*
X226413Y251835D01*
X226420Y251925D01*
X226426Y252016D01*
X226431Y252106D01*
X226435Y252197D01*
X226439Y252287D01*
X226441Y252378D01*
X226443Y252469D01*
X226445Y252559D01*
X226445Y252650D01*
X226445Y252741D01*
X226443Y252831D01*
X226441Y252922D01*
X226439Y253013D01*
X226435Y253100D01*
X226435D01*
X226434Y253127D01*
X226431Y253169D01*
X226428Y253211D01*
X226424Y253253D01*
X226419Y253294D01*
X226413Y253336D01*
X226407Y253377D01*
X226399Y253418D01*
X226391Y253459D01*
X226382Y253500D01*
X226373Y253541D01*
X226363Y253582D01*
X226352Y253622D01*
X226340Y253662D01*
X226328Y253702D01*
X226314Y253742D01*
X226301Y253782D01*
X226286Y253821D01*
X226271Y253860D01*
X226255Y253899D01*
X226238Y253937D01*
X226220Y253975D01*
X226202Y254013D01*
X226184Y254050D01*
X226164Y254087D01*
X226144Y254124D01*
X226123Y254161D01*
X226102Y254197D01*
X226079Y254232D01*
X226057Y254267D01*
X226033Y254302D01*
X226009Y254336D01*
X225984Y254370D01*
X225959Y254403D01*
X225933Y254436D01*
X225907Y254469D01*
X225880Y254501D01*
X225852Y254532D01*
X225824Y254563D01*
X225795Y254594D01*
X225766Y254624D01*
X225736Y254653D01*
X225705Y254682D01*
X225674Y254710D01*
X225643Y254738D01*
X225611Y254765D01*
X225578Y254791D01*
X225546Y254817D01*
X225512Y254842D01*
X225478Y254867D01*
X225444Y254891D01*
X225409Y254915D01*
X225374Y254937D01*
X225339Y254960D01*
X225303Y254981D01*
X225266Y255002D01*
X225230Y255022D01*
X225192Y255042D01*
X225155Y255060D01*
X225117Y255079D01*
X225079Y255096D01*
X225041Y255113D01*
X225002Y255129D01*
X224963Y255144D01*
X224924Y255159D01*
X224884Y255172D01*
X224849Y255184D01*
X224851Y255197D01*
X224984D01*
Y256013D01*
X224986Y256014D01*
X225009Y256038D01*
X225031Y256062D01*
X225053Y256087D01*
X225075Y256113D01*
X225096Y256138D01*
X225116Y256165D01*
X225135Y256191D01*
X225154Y256219D01*
X225172Y256246D01*
X225190Y256275D01*
X225207Y256303D01*
X225223Y256332D01*
X225239Y256361D01*
X225254Y256391D01*
X225268Y256421D01*
X225281Y256451D01*
X225294Y256482D01*
X225306Y256513D01*
X225317Y256544D01*
X225328Y256576D01*
X225337Y256607D01*
X225346Y256639D01*
X225355Y256671D01*
X225362Y256704D01*
X225369Y256736D01*
X225375Y256769D01*
X225380Y256802D01*
X225384Y256835D01*
X225388Y256868D01*
X225390Y256901D01*
X225392Y256934D01*
X225393Y256967D01*
X225394Y257000D01*
X225393Y257033D01*
X225392Y257066D01*
X225390Y257099D01*
X225388Y257133D01*
X225384Y257166D01*
X225380Y257198D01*
X225375Y257231D01*
X225369Y257264D01*
X225362Y257296D01*
X225355Y257329D01*
X225346Y257361D01*
X225342Y257375D01*
Y260721D01*
X225342Y260754D01*
X225341Y260787D01*
X225339Y260820D01*
X225336Y260853D01*
X225333Y260886D01*
X225328Y260919D01*
X225323Y260952D01*
X225317Y260984D01*
X225311Y261017D01*
X225303Y261049D01*
X225295Y261081D01*
X225286Y261113D01*
X225276Y261145D01*
X225266Y261176D01*
X225255Y261208D01*
X225243Y261239D01*
X225230Y261269D01*
X225217Y261300D01*
X225202Y261330D01*
X225187Y261359D01*
X225172Y261389D01*
X225156Y261418D01*
X225139Y261446D01*
X225121Y261474D01*
X225103Y261502D01*
X225084Y261529D01*
X225064Y261556D01*
X225044Y261582D01*
X225023Y261608D01*
X225002Y261633D01*
X224980Y261658D01*
X224957Y261683D01*
X224934Y261706D01*
X224910Y261729D01*
X224886Y261752D01*
X224861Y261774D01*
X224836Y261795D01*
X224810Y261816D01*
X224784Y261836D01*
X224757Y261856D01*
X224730Y261875D01*
X224721Y261881D01*
X224724Y261894D01*
X229106D01*
Y213894D01*
X180000D01*
Y223000D01*
X169500D01*
Y225622D01*
Y233630D01*
X177130D01*
X182000Y238500D01*
Y251000D01*
X160500D01*
X153000Y258500D01*
X114861D01*
Y259098D01*
X111680D01*
Y258500D01*
X110394D01*
Y286106D01*
X204468D01*
Y266634D01*
D02*
G37*
%LPC*%
G36*
X200965Y285480D02*
X198201D01*
Y283504D01*
X200965D01*
Y285480D01*
D02*
G37*
G36*
X188563D02*
X185799D01*
Y283504D01*
X188563D01*
Y285480D01*
D02*
G37*
G36*
X197201D02*
X194437D01*
Y283504D01*
X197201D01*
Y285480D01*
D02*
G37*
G36*
X184799D02*
X182035D01*
Y283504D01*
X184799D01*
Y285480D01*
D02*
G37*
G36*
X174453Y284953D02*
X171000D01*
Y281500D01*
X174453D01*
Y284953D01*
D02*
G37*
G36*
X170000D02*
X166547D01*
Y281500D01*
X170000D01*
Y284953D01*
D02*
G37*
G36*
X200965Y282504D02*
X198201D01*
Y280527D01*
X200965D01*
Y282504D01*
D02*
G37*
G36*
X197201D02*
X194437D01*
Y280527D01*
X197201D01*
Y282504D01*
D02*
G37*
G36*
X188563D02*
X185299D01*
X182035D01*
Y280756D01*
X180461D01*
Y277500D01*
X183331D01*
X186201D01*
Y280527D01*
X188563D01*
Y282504D01*
D02*
G37*
G36*
X174453Y280500D02*
X171000D01*
Y277047D01*
X174453D01*
Y280500D01*
D02*
G37*
G36*
X170000D02*
X166547D01*
Y277047D01*
X170000D01*
Y280500D01*
D02*
G37*
G36*
X154264Y280953D02*
X144421D01*
Y275047D01*
X154264D01*
Y280953D01*
D02*
G37*
G36*
X124736D02*
X114894D01*
Y275047D01*
X124736D01*
Y280953D01*
D02*
G37*
G36*
X143831Y282134D02*
X135169D01*
Y273866D01*
X143831D01*
Y282134D01*
D02*
G37*
G36*
X133988D02*
X125327D01*
Y273866D01*
X133988D01*
Y282134D01*
D02*
G37*
G36*
X201933Y280150D02*
X197405D01*
Y273850D01*
X201933D01*
Y280150D01*
D02*
G37*
G36*
X200965Y273472D02*
X198201D01*
Y271496D01*
X200965D01*
Y273472D01*
D02*
G37*
G36*
X197201D02*
X194437D01*
Y271496D01*
X197201D01*
Y273472D01*
D02*
G37*
G36*
X186201Y276500D02*
X183331D01*
X180461D01*
Y273244D01*
X182035D01*
Y271496D01*
X185299D01*
X188563D01*
Y273472D01*
X186201D01*
Y276500D01*
D02*
G37*
G36*
X113591Y269776D02*
X112500D01*
Y268744D01*
X113591D01*
Y269776D01*
D02*
G37*
G36*
X111500D02*
X110409D01*
Y268744D01*
X111500D01*
Y269776D01*
D02*
G37*
G36*
X200965Y270496D02*
X198201D01*
Y268519D01*
X200965D01*
Y270496D01*
D02*
G37*
G36*
X197201D02*
X194437D01*
Y268519D01*
X197201D01*
Y270496D01*
D02*
G37*
G36*
X188563D02*
X185799D01*
Y268519D01*
X188563D01*
Y270496D01*
D02*
G37*
G36*
X184799D02*
X182035D01*
Y268519D01*
X184799D01*
Y270496D01*
D02*
G37*
G36*
X133201Y270520D02*
X130839D01*
Y267750D01*
X130826Y267749D01*
X130823Y267765D01*
X130815Y267797D01*
X130807Y267829D01*
X130798Y267861D01*
X130788Y267893D01*
X130778Y267924D01*
X130766Y267956D01*
X130755Y267986D01*
X130742Y268017D01*
X130728Y268047D01*
X130714Y268077D01*
X130700Y268107D01*
X130684Y268137D01*
X130668Y268165D01*
X130651Y268194D01*
X130642Y268208D01*
Y270520D01*
X128279D01*
Y268208D01*
X128270Y268194D01*
X128253Y268165D01*
X128237Y268137D01*
X128222Y268107D01*
X128207Y268077D01*
X128193Y268047D01*
X128179Y268017D01*
X128167Y267986D01*
X128155Y267956D01*
X128144Y267924D01*
X128133Y267893D01*
X128123Y267861D01*
X128114Y267829D01*
X128106Y267797D01*
X128099Y267765D01*
X128092Y267732D01*
X128086Y267700D01*
X128081Y267667D01*
X128077Y267634D01*
X128073Y267601D01*
X128070Y267568D01*
X128068Y267535D01*
X128067Y267502D01*
X128067Y267469D01*
Y264991D01*
X126970Y263894D01*
X116077D01*
X113270Y266701D01*
X113275Y266713D01*
X113591D01*
Y267744D01*
X112000D01*
X110409D01*
Y266713D01*
X110789D01*
X110796Y266702D01*
X110793Y266697D01*
X110777Y266668D01*
X110761Y266639D01*
X110746Y266609D01*
X110732Y266579D01*
X110719Y266549D01*
X110706Y266518D01*
X110694Y266487D01*
X110683Y266456D01*
X110672Y266424D01*
X110663Y266393D01*
X110654Y266361D01*
X110645Y266329D01*
X110638Y266296D01*
X110631Y266264D01*
X110626Y266231D01*
X110620Y266198D01*
X110616Y266165D01*
X110612Y266132D01*
X110610Y266099D01*
X110608Y266066D01*
X110607Y266033D01*
X110606Y266000D01*
X110607Y265967D01*
X110608Y265934D01*
X110610Y265901D01*
X110612Y265867D01*
X110616Y265834D01*
X110620Y265802D01*
X110626Y265769D01*
X110631Y265736D01*
X110638Y265704D01*
X110645Y265671D01*
X110654Y265639D01*
X110663Y265607D01*
X110672Y265576D01*
X110683Y265544D01*
X110694Y265513D01*
X110706Y265482D01*
X110719Y265451D01*
X110732Y265421D01*
X110746Y265391D01*
X110761Y265361D01*
X110777Y265332D01*
X110793Y265303D01*
X110810Y265275D01*
X110828Y265247D01*
X110846Y265219D01*
X110865Y265192D01*
X110884Y265165D01*
X110904Y265138D01*
X110925Y265113D01*
X110947Y265087D01*
X110969Y265062D01*
X110991Y265038D01*
X111014Y265014D01*
X114514Y261515D01*
X114514Y261514D01*
X114538Y261491D01*
X114562Y261469D01*
X114587Y261447D01*
X114613Y261425D01*
X114638Y261404D01*
X114665Y261384D01*
X114691Y261365D01*
X114719Y261346D01*
X114746Y261328D01*
X114775Y261310D01*
X114803Y261293D01*
X114832Y261277D01*
X114861Y261261D01*
X114891Y261246D01*
X114921Y261232D01*
X114951Y261219D01*
X114982Y261206D01*
X115013Y261194D01*
X115044Y261183D01*
X115076Y261172D01*
X115107Y261163D01*
X115139Y261154D01*
X115171Y261145D01*
X115204Y261138D01*
X115236Y261131D01*
X115269Y261125D01*
X115302Y261120D01*
X115334Y261116D01*
X115367Y261112D01*
X115401Y261110D01*
X115434Y261108D01*
X115467Y261107D01*
X115500Y261106D01*
X115501Y261106D01*
X127546D01*
X127547Y261106D01*
X127580Y261107D01*
X127614Y261108D01*
X127647Y261110D01*
X127680Y261112D01*
X127713Y261116D01*
X127746Y261120D01*
X127778Y261125D01*
X127811Y261131D01*
X127843Y261138D01*
X127876Y261145D01*
X127908Y261154D01*
X127940Y261163D01*
X127972Y261172D01*
X128003Y261183D01*
X128034Y261194D01*
X128065Y261206D01*
X128096Y261219D01*
X128126Y261232D01*
X128156Y261246D01*
X128186Y261261D01*
X128215Y261277D01*
X128244Y261293D01*
X128273Y261310D01*
X128301Y261328D01*
X128329Y261346D01*
X128356Y261365D01*
X128383Y261384D01*
X128409Y261404D01*
X128435Y261425D01*
X128460Y261447D01*
X128485Y261469D01*
X128509Y261491D01*
X128533Y261514D01*
X130446Y263427D01*
X130446Y263428D01*
X130469Y263452D01*
X130492Y263476D01*
X130514Y263501D01*
X130535Y263526D01*
X130556Y263552D01*
X130576Y263578D01*
X130596Y263605D01*
X130615Y263632D01*
X130633Y263660D01*
X130651Y263688D01*
X130668Y263717D01*
X130684Y263745D01*
X130700Y263775D01*
X130714Y263804D01*
X130728Y263834D01*
X130742Y263865D01*
X130755Y263895D01*
X130767Y263926D01*
X130778Y263958D01*
X130788Y263989D01*
X130798Y264021D01*
X130807Y264053D01*
X130815Y264085D01*
X130823Y264117D01*
X130829Y264150D01*
X130835Y264182D01*
X130840Y264215D01*
X130845Y264248D01*
X130848Y264281D01*
X130851Y264314D01*
X130853Y264347D01*
X130854Y264380D01*
X130854Y264413D01*
X130866Y264417D01*
X133201D01*
Y270520D01*
D02*
G37*
G36*
X165091Y268154D02*
X164000D01*
Y267122D01*
X165091D01*
Y268154D01*
D02*
G37*
G36*
X163000D02*
X161909D01*
Y267122D01*
X163000D01*
Y268154D01*
D02*
G37*
G36*
X160500Y284347D02*
X160449Y284346D01*
X160397Y284345D01*
X160345Y284343D01*
X160294Y284340D01*
X160243Y284337D01*
X160191Y284332D01*
X160140Y284327D01*
X160089Y284321D01*
X160038Y284314D01*
X159987Y284307D01*
X159936Y284299D01*
X159885Y284290D01*
X159835Y284280D01*
X159784Y284269D01*
X159734Y284258D01*
X159684Y284245D01*
X159634Y284232D01*
X159584Y284219D01*
X159535Y284204D01*
X159485Y284189D01*
X159437Y284173D01*
X159388Y284156D01*
X159339Y284139D01*
X159291Y284121D01*
X159243Y284102D01*
X159196Y284082D01*
X159148Y284061D01*
X159101Y284040D01*
X159055Y284018D01*
X159008Y283996D01*
X158962Y283972D01*
X158917Y283948D01*
X158872Y283924D01*
X158827Y283898D01*
X158782Y283872D01*
X158738Y283845D01*
X158695Y283818D01*
X158651Y283790D01*
X158609Y283761D01*
X158566Y283731D01*
X158525Y283701D01*
X158483Y283671D01*
X158442Y283639D01*
X158402Y283607D01*
X158362Y283575D01*
X158323Y283541D01*
X158284Y283508D01*
X158245Y283473D01*
X158208Y283438D01*
X158170Y283402D01*
X158134Y283366D01*
X158098Y283330D01*
X158062Y283292D01*
X158027Y283255D01*
X157992Y283216D01*
X157959Y283177D01*
X157925Y283138D01*
X157893Y283098D01*
X157861Y283058D01*
X157829Y283017D01*
X157799Y282975D01*
X157769Y282934D01*
X157739Y282891D01*
X157710Y282849D01*
X157682Y282805D01*
X157655Y282762D01*
X157628Y282718D01*
X157602Y282673D01*
X157576Y282628D01*
X157552Y282583D01*
X157528Y282538D01*
X157504Y282492D01*
X157482Y282445D01*
X157460Y282399D01*
X157439Y282352D01*
X157418Y282304D01*
X157398Y282257D01*
X157379Y282209D01*
X157361Y282161D01*
X157344Y282112D01*
X157327Y282064D01*
X157311Y282014D01*
X157296Y281965D01*
X157281Y281916D01*
X157267Y281866D01*
X157255Y281816D01*
X157242Y281766D01*
X157231Y281716D01*
X157220Y281665D01*
X157210Y281615D01*
X157201Y281564D01*
X157193Y281513D01*
X157185Y281462D01*
X157179Y281411D01*
X157173Y281360D01*
X157168Y281309D01*
X157163Y281257D01*
X157160Y281206D01*
X157157Y281155D01*
X157155Y281103D01*
X157154Y281051D01*
X157153Y281000D01*
X157154Y280948D01*
X157155Y280897D01*
X157157Y280845D01*
X157160Y280794D01*
X157163Y280743D01*
X157168Y280691D01*
X157173Y280640D01*
X157179Y280589D01*
X157185Y280538D01*
X157193Y280487D01*
X157201Y280436D01*
X157210Y280385D01*
X157220Y280334D01*
X157231Y280284D01*
X157242Y280234D01*
X157255Y280184D01*
X157267Y280134D01*
X157281Y280084D01*
X157296Y280035D01*
X157311Y279985D01*
X157327Y279937D01*
X157344Y279888D01*
X157361Y279839D01*
X157379Y279791D01*
X157398Y279743D01*
X157418Y279696D01*
X157439Y279648D01*
X157460Y279601D01*
X157482Y279555D01*
X157504Y279508D01*
X157528Y279462D01*
X157552Y279417D01*
X157576Y279372D01*
X157602Y279327D01*
X157628Y279282D01*
X157655Y279238D01*
X157682Y279195D01*
X157710Y279152D01*
X157739Y279109D01*
X157769Y279066D01*
X157799Y279025D01*
X157829Y278983D01*
X157861Y278942D01*
X157893Y278902D01*
X157925Y278862D01*
X157959Y278823D01*
X157992Y278784D01*
X158027Y278745D01*
X158062Y278708D01*
X158098Y278670D01*
X158134Y278634D01*
X158170Y278597D01*
X158208Y278562D01*
X158245Y278527D01*
X158284Y278492D01*
X158323Y278459D01*
X158362Y278425D01*
X158402Y278393D01*
X158442Y278361D01*
X158483Y278329D01*
X158525Y278299D01*
X158566Y278269D01*
X158606Y278241D01*
Y265362D01*
X150721D01*
Y271504D01*
X143634D01*
Y265362D01*
X141573D01*
X141091Y265845D01*
Y267469D01*
X141090Y267502D01*
X141089Y267535D01*
X141087Y267568D01*
X141084Y267601D01*
X141081Y267634D01*
X141077Y267667D01*
X141071Y267700D01*
X141066Y267732D01*
X141059Y267765D01*
X141051Y267797D01*
X141043Y267829D01*
X141034Y267861D01*
X141024Y267893D01*
X141014Y267924D01*
X141003Y267956D01*
X140991Y267986D01*
X140978Y268017D01*
X140965Y268047D01*
X140951Y268077D01*
X140936Y268107D01*
X140920Y268137D01*
X140904Y268165D01*
X140887Y268194D01*
X140878Y268208D01*
Y270520D01*
X138516D01*
Y268208D01*
X138507Y268194D01*
X138490Y268165D01*
X138474Y268137D01*
X138458Y268107D01*
X138443Y268077D01*
X138429Y268047D01*
X138416Y268017D01*
X138403Y267986D01*
X138391Y267956D01*
X138380Y267924D01*
X138369Y267893D01*
X138359Y267861D01*
X138350Y267829D01*
X138342Y267797D01*
X138335Y267765D01*
X138332Y267749D01*
X138319Y267750D01*
Y270520D01*
X135957D01*
Y264417D01*
X136498D01*
Y263484D01*
X136498Y263462D01*
X136499Y263441D01*
X136501Y263419D01*
X136504Y263397D01*
X136507Y263375D01*
X136511Y263354D01*
X136516Y263333D01*
X136522Y263312D01*
X136528Y263291D01*
X136535Y263270D01*
X136543Y263249D01*
X136551Y263229D01*
X136560Y263209D01*
X136570Y263190D01*
X136580Y263171D01*
X136591Y263152D01*
X136603Y263133D01*
X136615Y263115D01*
X136628Y263098D01*
X136642Y263080D01*
X136655Y263064D01*
X136670Y263048D01*
X136685Y263032D01*
X139170Y260548D01*
X139185Y260532D01*
X139201Y260518D01*
X139218Y260504D01*
X139235Y260490D01*
X139253Y260477D01*
X139271Y260465D01*
X139290Y260453D01*
X139308Y260442D01*
X139328Y260432D01*
X139347Y260422D01*
X139367Y260413D01*
X139387Y260405D01*
X139408Y260397D01*
X139428Y260390D01*
X139449Y260384D01*
X139471Y260378D01*
X139492Y260373D01*
X139513Y260369D01*
X139535Y260366D01*
X139557Y260364D01*
X139578Y260362D01*
X139600Y260361D01*
X139622Y260360D01*
X154735D01*
X162443Y252652D01*
X162439Y252640D01*
X161765D01*
X154248Y260157D01*
X154232Y260172D01*
X154216Y260187D01*
X154199Y260201D01*
X154182Y260215D01*
X154164Y260227D01*
X154146Y260240D01*
X154128Y260251D01*
X154109Y260262D01*
X154090Y260273D01*
X154070Y260282D01*
X154050Y260292D01*
X154030Y260300D01*
X154010Y260308D01*
X153989Y260315D01*
X153968Y260321D01*
X153947Y260326D01*
X153926Y260331D01*
X153904Y260335D01*
X153882Y260339D01*
X153861Y260341D01*
X153839Y260343D01*
X153817Y260344D01*
X153795Y260345D01*
X138592D01*
X135219Y263718D01*
Y264417D01*
X135760D01*
Y270520D01*
X133398D01*
Y264417D01*
X133939D01*
Y263453D01*
X133939Y263431D01*
X133940Y263409D01*
X133942Y263387D01*
X133945Y263366D01*
X133948Y263344D01*
X133952Y263323D01*
X133957Y263301D01*
X133963Y263280D01*
X133969Y263259D01*
X133976Y263239D01*
X133984Y263218D01*
X133992Y263198D01*
X134001Y263178D01*
X134011Y263158D01*
X134021Y263139D01*
X134032Y263120D01*
X134044Y263102D01*
X134056Y263084D01*
X134069Y263066D01*
X134082Y263049D01*
X134097Y263032D01*
X134111Y263016D01*
X134126Y263000D01*
X137874Y259252D01*
X137890Y259237D01*
X137906Y259222D01*
X137923Y259208D01*
X137940Y259195D01*
X137958Y259182D01*
X137976Y259170D01*
X137994Y259158D01*
X138013Y259147D01*
X138032Y259137D01*
X138052Y259127D01*
X138072Y259118D01*
X138092Y259109D01*
X138112Y259102D01*
X138133Y259095D01*
X138154Y259089D01*
X138175Y259083D01*
X138197Y259078D01*
X138218Y259074D01*
X138240Y259071D01*
X138261Y259068D01*
X138283Y259066D01*
X138305Y259065D01*
X138327Y259065D01*
X153530D01*
X161048Y251548D01*
X161063Y251532D01*
X161080Y251518D01*
X161096Y251504D01*
X161113Y251490D01*
X161131Y251477D01*
X161149Y251465D01*
X161168Y251453D01*
X161186Y251442D01*
X161206Y251432D01*
X161225Y251422D01*
X161245Y251413D01*
X161265Y251405D01*
X161286Y251397D01*
X161306Y251390D01*
X161327Y251384D01*
X161348Y251378D01*
X161370Y251374D01*
X161391Y251370D01*
X161413Y251366D01*
X161435Y251363D01*
X161456Y251362D01*
X161478Y251361D01*
X161500Y251360D01*
X175350D01*
X175372Y251361D01*
X175394Y251362D01*
X175415Y251363D01*
X175437Y251366D01*
X175459Y251370D01*
X175480Y251374D01*
X175502Y251378D01*
X175523Y251384D01*
X175543Y251390D01*
X175564Y251397D01*
X175585Y251405D01*
X175605Y251413D01*
X175625Y251422D01*
X175644Y251432D01*
X175664Y251442D01*
X175682Y251453D01*
X175701Y251465D01*
X175719Y251477D01*
X175737Y251490D01*
X175754Y251504D01*
X175770Y251518D01*
X175787Y251532D01*
X175802Y251548D01*
X176019Y251764D01*
X176026Y251764D01*
X176051Y251766D01*
X176077Y251767D01*
X176103Y251770D01*
X176128Y251774D01*
X176154Y251778D01*
X176179Y251782D01*
X176204Y251788D01*
X176229Y251794D01*
X176254Y251801D01*
X176279Y251809D01*
X176303Y251817D01*
X176327Y251827D01*
X176351Y251837D01*
X176374Y251847D01*
X176398Y251858D01*
X176420Y251870D01*
X176443Y251883D01*
X176465Y251896D01*
X176487Y251910D01*
X176508Y251924D01*
X176529Y251939D01*
X176549Y251955D01*
X176569Y251971D01*
X176589Y251988D01*
X176608Y252006D01*
X176626Y252024D01*
X176644Y252042D01*
X176662Y252061D01*
X176679Y252081D01*
X176695Y252101D01*
X176711Y252121D01*
X176726Y252142D01*
X176740Y252163D01*
X176754Y252185D01*
X176767Y252207D01*
X176780Y252230D01*
X176792Y252252D01*
X176803Y252276D01*
X176813Y252299D01*
X176823Y252323D01*
X176832Y252347D01*
X176841Y252371D01*
X176849Y252396D01*
X176856Y252421D01*
X176862Y252446D01*
X176868Y252471D01*
X176873Y252496D01*
X176877Y252522D01*
X176880Y252547D01*
X176883Y252573D01*
X176884Y252599D01*
X176885Y252624D01*
X176886Y252650D01*
X176885Y252676D01*
X176884Y252701D01*
X176883Y252727D01*
X176880Y252753D01*
X176877Y252778D01*
X176873Y252804D01*
X176868Y252829D01*
X176862Y252854D01*
X176856Y252879D01*
X176849Y252904D01*
X176841Y252929D01*
X176832Y252953D01*
X176823Y252977D01*
X176813Y253001D01*
X176803Y253024D01*
X176792Y253048D01*
X176780Y253070D01*
X176767Y253093D01*
X176754Y253115D01*
X176740Y253137D01*
X176726Y253158D01*
X176711Y253179D01*
X176695Y253200D01*
X176679Y253220D01*
X176662Y253239D01*
X176644Y253258D01*
X176626Y253276D01*
X176608Y253294D01*
X176589Y253312D01*
X176569Y253329D01*
X176549Y253345D01*
X176529Y253361D01*
X176508Y253376D01*
X176487Y253390D01*
X176465Y253404D01*
X176443Y253417D01*
X176420Y253430D01*
X176398Y253442D01*
X176374Y253453D01*
X176351Y253464D01*
X176327Y253473D01*
X176303Y253483D01*
X176279Y253491D01*
X176254Y253499D01*
X176229Y253506D01*
X176204Y253512D01*
X176179Y253518D01*
X176154Y253522D01*
X176128Y253527D01*
X176103Y253530D01*
X176077Y253533D01*
X176051Y253534D01*
X176026Y253536D01*
X176000Y253536D01*
X175974Y253536D01*
X175949Y253534D01*
X175923Y253533D01*
X175897Y253530D01*
X175872Y253527D01*
X175846Y253522D01*
X175821Y253518D01*
X175796Y253512D01*
X175771Y253506D01*
X175746Y253499D01*
X175721Y253491D01*
X175697Y253483D01*
X175673Y253473D01*
X175649Y253464D01*
X175626Y253453D01*
X175602Y253442D01*
X175580Y253430D01*
X175557Y253417D01*
X175535Y253404D01*
X175513Y253390D01*
X175492Y253376D01*
X175471Y253361D01*
X175451Y253345D01*
X175431Y253329D01*
X175411Y253312D01*
X175392Y253294D01*
X175374Y253276D01*
X175356Y253258D01*
X175338Y253239D01*
X175321Y253220D01*
X175305Y253200D01*
X175289Y253179D01*
X175274Y253158D01*
X175260Y253137D01*
X175246Y253115D01*
X175233Y253093D01*
X175220Y253070D01*
X175208Y253048D01*
X175197Y253024D01*
X175187Y253001D01*
X175177Y252977D01*
X175168Y252953D01*
X175159Y252929D01*
X175151Y252904D01*
X175144Y252879D01*
X175138Y252854D01*
X175132Y252829D01*
X175127Y252804D01*
X175123Y252778D01*
X175120Y252753D01*
X175118Y252727D01*
X175116Y252701D01*
X175115Y252676D01*
X175114Y252669D01*
X175085Y252640D01*
X174329D01*
X174324Y252652D01*
X175570Y253898D01*
X176910D01*
X178136Y252672D01*
X178152Y252656D01*
X178168Y252642D01*
X178185Y252628D01*
X178202Y252614D01*
X178220Y252601D01*
X178238Y252589D01*
X178256Y252577D01*
X178275Y252566D01*
X178294Y252556D01*
X178314Y252546D01*
X178334Y252537D01*
X178354Y252529D01*
X178374Y252521D01*
X178395Y252514D01*
X178416Y252508D01*
X178437Y252502D01*
X178458Y252498D01*
X178480Y252494D01*
X178501Y252490D01*
X178523Y252487D01*
X178545Y252486D01*
X178567Y252484D01*
X178589Y252484D01*
X181887D01*
X181892Y252480D01*
X181911Y252462D01*
X181930Y252445D01*
X181950Y252429D01*
X181971Y252413D01*
X181992Y252398D01*
X182013Y252384D01*
X182035Y252370D01*
X182057Y252357D01*
X182080Y252344D01*
X182102Y252332D01*
X182126Y252321D01*
X182149Y252311D01*
X182173Y252301D01*
X182197Y252291D01*
X182221Y252283D01*
X182246Y252275D01*
X182271Y252268D01*
X182296Y252262D01*
X182321Y252256D01*
X182346Y252252D01*
X182372Y252248D01*
X182397Y252244D01*
X182423Y252241D01*
X182448Y252240D01*
X182474Y252238D01*
X182500Y252238D01*
X182526Y252238D01*
X182552Y252240D01*
X182577Y252241D01*
X182603Y252244D01*
X182628Y252248D01*
X182654Y252252D01*
X182679Y252256D01*
X182704Y252262D01*
X182729Y252268D01*
X182754Y252275D01*
X182779Y252283D01*
X182803Y252291D01*
X182827Y252301D01*
X182851Y252311D01*
X182874Y252321D01*
X182898Y252332D01*
X182921Y252344D01*
X182943Y252357D01*
X182965Y252370D01*
X182987Y252384D01*
X183008Y252398D01*
X183029Y252413D01*
X183049Y252429D01*
X183070Y252445D01*
X183089Y252462D01*
X183108Y252480D01*
X183126Y252498D01*
X183144Y252516D01*
X183162Y252535D01*
X183179Y252555D01*
X183195Y252574D01*
X183211Y252595D01*
X183226Y252616D01*
X183240Y252637D01*
X183254Y252659D01*
X183267Y252681D01*
X183280Y252704D01*
X183292Y252726D01*
X183303Y252750D01*
X183314Y252773D01*
X183323Y252797D01*
X183333Y252821D01*
X183341Y252845D01*
X183349Y252870D01*
X183356Y252895D01*
X183362Y252920D01*
X183368Y252945D01*
X183372Y252970D01*
X183377Y252996D01*
X183380Y253021D01*
X183382Y253047D01*
X183384Y253073D01*
X183386Y253098D01*
X183386Y253124D01*
X183386Y253150D01*
X183384Y253175D01*
X183382Y253201D01*
X183380Y253227D01*
X183377Y253252D01*
X183372Y253278D01*
X183368Y253303D01*
X183362Y253328D01*
X183356Y253353D01*
X183349Y253378D01*
X183347Y253382D01*
X183357Y253394D01*
X183372Y253391D01*
X183397Y253388D01*
X183423Y253385D01*
X183449Y253383D01*
X183474Y253382D01*
X183500Y253382D01*
X183526Y253382D01*
X183552Y253383D01*
X183577Y253385D01*
X183603Y253388D01*
X183628Y253391D01*
X183654Y253395D01*
X183679Y253400D01*
X183704Y253406D01*
X183729Y253412D01*
X183754Y253419D01*
X183779Y253427D01*
X183803Y253435D01*
X183827Y253444D01*
X183851Y253454D01*
X183874Y253465D01*
X183898Y253476D01*
X183921Y253488D01*
X183943Y253501D01*
X183965Y253514D01*
X183987Y253528D01*
X184008Y253542D01*
X184029Y253557D01*
X184049Y253573D01*
X184070Y253589D01*
X184089Y253606D01*
X184108Y253623D01*
X184126Y253641D01*
X184144Y253660D01*
X184162Y253679D01*
X184179Y253698D01*
X184195Y253718D01*
X184211Y253739D01*
X184226Y253760D01*
X184240Y253781D01*
X184254Y253803D01*
X184267Y253825D01*
X184280Y253847D01*
X184292Y253870D01*
X184303Y253893D01*
X184313Y253917D01*
X184323Y253941D01*
X184333Y253965D01*
X184341Y253989D01*
X184349Y254014D01*
X184356Y254038D01*
X184362Y254063D01*
X184368Y254089D01*
X184372Y254114D01*
X184377Y254139D01*
X184380Y254165D01*
X184382Y254190D01*
X184384Y254216D01*
X184386Y254242D01*
X184386Y254268D01*
X184386Y254293D01*
X184384Y254319D01*
X184382Y254345D01*
X184380Y254371D01*
X184377Y254396D01*
X184372Y254422D01*
X184368Y254447D01*
X184362Y254472D01*
X184356Y254497D01*
X184349Y254522D01*
X184341Y254546D01*
X184333Y254571D01*
X184323Y254595D01*
X184313Y254619D01*
X184303Y254642D01*
X184292Y254665D01*
X184280Y254688D01*
X184267Y254711D01*
X184254Y254733D01*
X184240Y254754D01*
X184226Y254776D01*
X184211Y254797D01*
X184195Y254817D01*
X184179Y254837D01*
X184162Y254857D01*
X184144Y254876D01*
X184126Y254894D01*
X184108Y254912D01*
X184089Y254929D01*
X184070Y254946D01*
X184049Y254963D01*
X184029Y254978D01*
X184008Y254993D01*
X183987Y255008D01*
X183965Y255022D01*
X183943Y255035D01*
X183921Y255047D01*
X183898Y255059D01*
X183874Y255071D01*
X183851Y255081D01*
X183827Y255091D01*
X183803Y255100D01*
X183779Y255109D01*
X183754Y255116D01*
X183729Y255123D01*
X183704Y255130D01*
X183679Y255135D01*
X183654Y255140D01*
X183628Y255144D01*
X183603Y255148D01*
X183577Y255150D01*
X183552Y255152D01*
X183526Y255153D01*
X183500Y255154D01*
X183474Y255153D01*
X183449Y255152D01*
X183423Y255150D01*
X183397Y255148D01*
X183372Y255144D01*
X183346Y255140D01*
X183321Y255135D01*
X183296Y255130D01*
X183271Y255123D01*
X183246Y255116D01*
X183221Y255109D01*
X183197Y255100D01*
X183173Y255091D01*
X183149Y255081D01*
X183126Y255071D01*
X183102Y255059D01*
X183080Y255047D01*
X183057Y255035D01*
X183035Y255022D01*
X183013Y255008D01*
X182992Y254993D01*
X182971Y254978D01*
X182950Y254963D01*
X182931Y254946D01*
X182911Y254929D01*
X182892Y254912D01*
X182887Y254908D01*
X180997D01*
X179640Y256265D01*
Y257714D01*
X179653Y257716D01*
X179660Y257694D01*
X179669Y257670D01*
X179679Y257646D01*
X179690Y257622D01*
X179701Y257599D01*
X179713Y257576D01*
X179726Y257553D01*
X179739Y257531D01*
X179753Y257509D01*
X179768Y257487D01*
X179783Y257466D01*
X179799Y257446D01*
X179815Y257425D01*
X179832Y257406D01*
X179850Y257387D01*
X179868Y257368D01*
X181368Y255868D01*
X181387Y255850D01*
X181406Y255832D01*
X181425Y255815D01*
X181446Y255799D01*
X181466Y255783D01*
X181487Y255768D01*
X181509Y255753D01*
X181531Y255739D01*
X181553Y255726D01*
X181576Y255713D01*
X181599Y255701D01*
X181622Y255690D01*
X181646Y255679D01*
X181670Y255669D01*
X181694Y255660D01*
X181719Y255652D01*
X181744Y255644D01*
X181769Y255637D01*
X181794Y255630D01*
X181819Y255625D01*
X181845Y255620D01*
X181870Y255616D01*
X181896Y255612D01*
X181922Y255610D01*
X181948Y255608D01*
X181974Y255607D01*
X182000Y255606D01*
X183451D01*
X183458Y255598D01*
X183480Y255573D01*
X183503Y255549D01*
X183526Y255526D01*
X183549Y255503D01*
X183573Y255480D01*
X183598Y255458D01*
X183623Y255437D01*
X183648Y255417D01*
X183674Y255397D01*
X183701Y255378D01*
X183728Y255359D01*
X183755Y255341D01*
X183783Y255323D01*
X183811Y255307D01*
X183840Y255291D01*
X183869Y255275D01*
X183898Y255260D01*
X183928Y255246D01*
X183958Y255233D01*
X183988Y255221D01*
X184018Y255209D01*
X184049Y255198D01*
X184080Y255187D01*
X184112Y255178D01*
X184143Y255169D01*
X184175Y255161D01*
X184207Y255153D01*
X184239Y255147D01*
X184272Y255141D01*
X184304Y255136D01*
X184336Y255132D01*
X184369Y255128D01*
X184402Y255125D01*
X184434Y255123D01*
X184467Y255122D01*
X184500Y255122D01*
X184533Y255122D01*
X184566Y255123D01*
X184598Y255125D01*
X184631Y255128D01*
X184664Y255132D01*
X184696Y255136D01*
X184729Y255141D01*
X184761Y255147D01*
X184793Y255153D01*
X184825Y255161D01*
X184857Y255169D01*
X184888Y255178D01*
X184920Y255187D01*
X184951Y255198D01*
X184982Y255209D01*
X185012Y255221D01*
X185043Y255233D01*
X185073Y255246D01*
X185102Y255260D01*
X185132Y255275D01*
X185160Y255291D01*
X185189Y255307D01*
X185217Y255323D01*
X185245Y255341D01*
X185272Y255359D01*
X185299Y255378D01*
X185326Y255397D01*
X185352Y255417D01*
X185377Y255437D01*
X185402Y255458D01*
X185427Y255480D01*
X185451Y255503D01*
X185474Y255526D01*
X185497Y255549D01*
X185520Y255573D01*
X185541Y255598D01*
X185563Y255623D01*
X185583Y255648D01*
X185603Y255674D01*
X185623Y255701D01*
X185641Y255728D01*
X185659Y255755D01*
X185677Y255783D01*
X185693Y255811D01*
X185710Y255840D01*
X185725Y255869D01*
X185740Y255898D01*
X185754Y255927D01*
X185767Y255958D01*
X185779Y255988D01*
X185791Y256018D01*
X185802Y256049D01*
X185813Y256080D01*
X185822Y256112D01*
X185831Y256143D01*
X185838Y256169D01*
X185850Y256168D01*
Y254016D01*
X187531D01*
Y256000D01*
X188031D01*
Y256500D01*
X190213D01*
Y257984D01*
X188750D01*
Y260000D01*
X186250D01*
X183750D01*
Y257900D01*
X185850D01*
Y256832D01*
X185838Y256831D01*
X185831Y256857D01*
X185822Y256888D01*
X185813Y256920D01*
X185802Y256951D01*
X185791Y256982D01*
X185779Y257012D01*
X185767Y257043D01*
X185754Y257072D01*
X185740Y257102D01*
X185725Y257132D01*
X185710Y257160D01*
X185693Y257189D01*
X185677Y257217D01*
X185659Y257245D01*
X185641Y257272D01*
X185623Y257299D01*
X185603Y257326D01*
X185583Y257352D01*
X185563Y257377D01*
X185541Y257402D01*
X185520Y257427D01*
X185497Y257451D01*
X185474Y257474D01*
X185451Y257497D01*
X185427Y257520D01*
X185402Y257541D01*
X185377Y257563D01*
X185352Y257583D01*
X185326Y257603D01*
X185299Y257623D01*
X185272Y257641D01*
X185245Y257659D01*
X185217Y257677D01*
X185189Y257693D01*
X185160Y257710D01*
X185132Y257725D01*
X185102Y257739D01*
X185073Y257753D01*
X185043Y257767D01*
X185012Y257779D01*
X184982Y257791D01*
X184951Y257802D01*
X184920Y257813D01*
X184888Y257822D01*
X184857Y257831D01*
X184825Y257839D01*
X184793Y257847D01*
X184761Y257853D01*
X184729Y257859D01*
X184696Y257864D01*
X184664Y257868D01*
X184631Y257872D01*
X184598Y257874D01*
X184566Y257876D01*
X184533Y257878D01*
X184500Y257878D01*
X184467Y257878D01*
X184434Y257876D01*
X184402Y257874D01*
X184369Y257872D01*
X184336Y257868D01*
X184304Y257864D01*
X184272Y257859D01*
X184239Y257853D01*
X184207Y257847D01*
X184175Y257839D01*
X184143Y257831D01*
X184112Y257822D01*
X184080Y257813D01*
X184049Y257802D01*
X184018Y257791D01*
X183988Y257779D01*
X183958Y257767D01*
X183928Y257753D01*
X183898Y257739D01*
X183869Y257725D01*
X183840Y257710D01*
X183811Y257693D01*
X183783Y257677D01*
X183755Y257659D01*
X183728Y257641D01*
X183701Y257623D01*
X183674Y257603D01*
X183648Y257583D01*
X183623Y257563D01*
X183598Y257541D01*
X183573Y257520D01*
X183549Y257497D01*
X183526Y257474D01*
X183503Y257451D01*
X183480Y257427D01*
X183458Y257402D01*
X183451Y257394D01*
X182370D01*
X181394Y258370D01*
Y267000D01*
X181393Y267026D01*
X181392Y267052D01*
X181390Y267078D01*
X181388Y267104D01*
X181384Y267129D01*
X181380Y267155D01*
X181375Y267181D01*
X181370Y267206D01*
X181363Y267231D01*
X181356Y267256D01*
X181348Y267281D01*
X181340Y267306D01*
X181331Y267330D01*
X181321Y267354D01*
X181310Y267378D01*
X181299Y267401D01*
X181287Y267424D01*
X181274Y267447D01*
X181261Y267469D01*
X181247Y267491D01*
X181232Y267513D01*
X181217Y267534D01*
X181201Y267554D01*
X181185Y267575D01*
X181168Y267594D01*
X181150Y267613D01*
X181132Y267632D01*
X178136Y270628D01*
X178117Y270646D01*
X178098Y270664D01*
X178078Y270681D01*
X178058Y270697D01*
X178038Y270713D01*
X178017Y270728D01*
X177995Y270743D01*
X177973Y270757D01*
X177951Y270770D01*
X177928Y270783D01*
X177905Y270795D01*
X177882Y270806D01*
X177858Y270817D01*
X177834Y270827D01*
X177810Y270836D01*
X177785Y270844D01*
X177760Y270852D01*
X177735Y270859D01*
X177710Y270866D01*
X177685Y270871D01*
X177659Y270876D01*
X177634Y270880D01*
X177608Y270884D01*
X177582Y270886D01*
X177556Y270888D01*
X177530Y270889D01*
X177504Y270890D01*
X174919D01*
X174893Y270889D01*
X174867Y270888D01*
X174841Y270886D01*
X174816Y270884D01*
X174790Y270880D01*
X174764Y270876D01*
X174739Y270871D01*
X174713Y270866D01*
X174688Y270859D01*
X174663Y270852D01*
X174638Y270844D01*
X174614Y270836D01*
X174589Y270827D01*
X174565Y270817D01*
X174542Y270806D01*
X174518Y270795D01*
X174495Y270783D01*
X174472Y270770D01*
X174450Y270757D01*
X174428Y270743D01*
X174407Y270728D01*
X174386Y270713D01*
X174365Y270697D01*
X174345Y270681D01*
X174325Y270664D01*
X174306Y270646D01*
X174287Y270628D01*
X173165Y269506D01*
X173147Y269487D01*
X173130Y269468D01*
X173113Y269448D01*
X173096Y269428D01*
X173080Y269408D01*
X173065Y269387D01*
X173051Y269365D01*
X173037Y269343D01*
X173023Y269321D01*
X173011Y269298D01*
X172999Y269275D01*
X172987Y269252D01*
X172977Y269228D01*
X172967Y269204D01*
X172958Y269180D01*
X172949Y269155D01*
X172941Y269130D01*
X172934Y269105D01*
X172928Y269080D01*
X172922Y269055D01*
X172917Y269029D01*
X172913Y269004D01*
X172910Y268984D01*
X172872D01*
Y268894D01*
X172047D01*
Y268985D01*
X170197D01*
Y268489D01*
X170185Y268487D01*
X170184Y268487D01*
X170172Y268518D01*
X170160Y268549D01*
X170146Y268579D01*
X170132Y268609D01*
X170117Y268639D01*
X170102Y268668D01*
X170085Y268697D01*
X170068Y268726D01*
X170051Y268754D01*
X170033Y268782D01*
X170014Y268809D01*
X169994Y268836D01*
X169974Y268862D01*
X169953Y268888D01*
X169932Y268913D01*
X169910Y268938D01*
X169887Y268962D01*
X169864Y268986D01*
X169840Y269009D01*
X169816Y269032D01*
X169791Y269054D01*
X169766Y269075D01*
X169740Y269096D01*
X169714Y269116D01*
X169687Y269136D01*
X169659Y269155D01*
X169632Y269173D01*
X169604Y269191D01*
X169575Y269207D01*
X169546Y269224D01*
X169517Y269239D01*
X169487Y269254D01*
X169457Y269268D01*
X169427Y269282D01*
X169396Y269294D01*
X169365Y269306D01*
X169334Y269318D01*
X169303Y269328D01*
X169271Y269338D01*
X169239Y269347D01*
X169207Y269355D01*
X169175Y269362D01*
X169142Y269369D01*
X169109Y269375D01*
X169077Y269380D01*
X169044Y269384D01*
X169011Y269388D01*
X168978Y269391D01*
X168945Y269392D01*
X168912Y269394D01*
X168878Y269394D01*
X168845Y269394D01*
X168812Y269392D01*
X168779Y269391D01*
X168746Y269388D01*
X168713Y269384D01*
X168680Y269380D01*
X168647Y269375D01*
X168614Y269369D01*
X168582Y269362D01*
X168550Y269355D01*
X168518Y269347D01*
X168486Y269338D01*
X168454Y269328D01*
X168422Y269318D01*
X168391Y269306D01*
X168360Y269294D01*
X168330Y269282D01*
X168299Y269268D01*
X168269Y269254D01*
X168240Y269239D01*
X168210Y269224D01*
X168181Y269207D01*
X168153Y269191D01*
X168125Y269173D01*
X168097Y269155D01*
X168070Y269136D01*
X168043Y269116D01*
X168017Y269096D01*
X167991Y269075D01*
X167966Y269054D01*
X167941Y269032D01*
X167917Y269009D01*
X167893Y268986D01*
X167870Y268962D01*
X167847Y268938D01*
X167825Y268913D01*
X167804Y268888D01*
X167783Y268862D01*
X167762Y268836D01*
X167743Y268809D01*
X167724Y268782D01*
X167706Y268754D01*
X167688Y268726D01*
X167671Y268697D01*
X167655Y268668D01*
X167639Y268639D01*
X167625Y268609D01*
X167610Y268579D01*
X167597Y268549D01*
X167584Y268518D01*
X167572Y268487D01*
X167561Y268456D01*
X167551Y268425D01*
X167541Y268393D01*
X167532Y268361D01*
X167524Y268329D01*
X167516Y268297D01*
X167510Y268264D01*
X167504Y268231D01*
X167499Y268199D01*
X167494Y268166D01*
X167491Y268133D01*
X167488Y268100D01*
X167486Y268067D01*
X167485Y268034D01*
X167484Y268000D01*
Y266102D01*
X167185D01*
Y265429D01*
X165091D01*
Y266122D01*
X161909D01*
Y265429D01*
X161394D01*
Y277775D01*
X161416Y277781D01*
X161465Y277796D01*
X161514Y277811D01*
X161564Y277827D01*
X161612Y277844D01*
X161661Y277861D01*
X161709Y277879D01*
X161757Y277898D01*
X161804Y277918D01*
X161852Y277939D01*
X161899Y277960D01*
X161945Y277982D01*
X161992Y278004D01*
X162038Y278028D01*
X162083Y278052D01*
X162128Y278076D01*
X162173Y278102D01*
X162218Y278128D01*
X162262Y278155D01*
X162305Y278182D01*
X162348Y278210D01*
X162391Y278239D01*
X162434Y278269D01*
X162475Y278299D01*
X162517Y278329D01*
X162558Y278361D01*
X162598Y278393D01*
X162638Y278425D01*
X162677Y278459D01*
X162716Y278492D01*
X162755Y278527D01*
X162792Y278562D01*
X162830Y278597D01*
X162866Y278634D01*
X162902Y278670D01*
X162938Y278708D01*
X162973Y278745D01*
X163008Y278784D01*
X163041Y278823D01*
X163075Y278862D01*
X163107Y278902D01*
X163139Y278942D01*
X163171Y278983D01*
X163201Y279025D01*
X163231Y279066D01*
X163261Y279109D01*
X163290Y279152D01*
X163318Y279195D01*
X163345Y279238D01*
X163372Y279282D01*
X163398Y279327D01*
X163424Y279372D01*
X163448Y279417D01*
X163472Y279462D01*
X163496Y279508D01*
X163518Y279555D01*
X163540Y279601D01*
X163561Y279648D01*
X163582Y279696D01*
X163602Y279743D01*
X163621Y279791D01*
X163639Y279839D01*
X163656Y279888D01*
X163673Y279937D01*
X163689Y279985D01*
X163704Y280035D01*
X163719Y280084D01*
X163733Y280134D01*
X163745Y280184D01*
X163758Y280234D01*
X163769Y280284D01*
X163780Y280334D01*
X163790Y280385D01*
X163799Y280436D01*
X163807Y280487D01*
X163814Y280538D01*
X163821Y280589D01*
X163827Y280640D01*
X163832Y280691D01*
X163837Y280743D01*
X163840Y280794D01*
X163843Y280845D01*
X163845Y280897D01*
X163846Y280948D01*
X163847Y281000D01*
X163846Y281051D01*
X163845Y281103D01*
X163843Y281155D01*
X163840Y281206D01*
X163837Y281257D01*
X163832Y281309D01*
X163827Y281360D01*
X163821Y281411D01*
X163814Y281462D01*
X163807Y281513D01*
X163799Y281564D01*
X163790Y281615D01*
X163780Y281665D01*
X163769Y281716D01*
X163758Y281766D01*
X163745Y281816D01*
X163733Y281866D01*
X163719Y281916D01*
X163704Y281965D01*
X163689Y282014D01*
X163673Y282064D01*
X163656Y282112D01*
X163639Y282161D01*
X163621Y282209D01*
X163602Y282257D01*
X163582Y282304D01*
X163561Y282352D01*
X163540Y282399D01*
X163518Y282445D01*
X163496Y282492D01*
X163472Y282538D01*
X163448Y282583D01*
X163424Y282628D01*
X163398Y282673D01*
X163372Y282718D01*
X163345Y282762D01*
X163318Y282805D01*
X163290Y282849D01*
X163261Y282891D01*
X163231Y282934D01*
X163201Y282975D01*
X163171Y283017D01*
X163139Y283058D01*
X163107Y283098D01*
X163075Y283138D01*
X163041Y283177D01*
X163008Y283216D01*
X162973Y283255D01*
X162938Y283292D01*
X162902Y283330D01*
X162866Y283366D01*
X162830Y283402D01*
X162792Y283438D01*
X162755Y283473D01*
X162716Y283508D01*
X162677Y283541D01*
X162638Y283575D01*
X162598Y283607D01*
X162558Y283639D01*
X162517Y283671D01*
X162475Y283701D01*
X162434Y283731D01*
X162391Y283761D01*
X162348Y283790D01*
X162305Y283818D01*
X162262Y283845D01*
X162218Y283872D01*
X162173Y283898D01*
X162128Y283924D01*
X162083Y283948D01*
X162038Y283972D01*
X161992Y283996D01*
X161945Y284018D01*
X161899Y284040D01*
X161852Y284061D01*
X161804Y284082D01*
X161757Y284102D01*
X161709Y284121D01*
X161661Y284139D01*
X161612Y284156D01*
X161564Y284173D01*
X161514Y284189D01*
X161465Y284204D01*
X161416Y284219D01*
X161366Y284232D01*
X161316Y284245D01*
X161266Y284258D01*
X161216Y284269D01*
X161165Y284280D01*
X161115Y284290D01*
X161064Y284299D01*
X161013Y284307D01*
X160962Y284314D01*
X160911Y284321D01*
X160860Y284327D01*
X160809Y284332D01*
X160757Y284337D01*
X160706Y284340D01*
X160655Y284343D01*
X160603Y284345D01*
X160552Y284346D01*
X160500Y284347D01*
D02*
G37*
G36*
X125524Y271504D02*
X118437D01*
Y265205D01*
X125524D01*
Y271504D01*
D02*
G37*
G36*
X201500Y266634D02*
X199425D01*
Y264658D01*
X201500D01*
Y266634D01*
D02*
G37*
G36*
X198984Y266146D02*
X197500D01*
Y264464D01*
X198984D01*
Y266146D01*
D02*
G37*
G36*
X196500D02*
X195016D01*
Y264464D01*
X196500D01*
Y266146D01*
D02*
G37*
G36*
X198984Y263464D02*
X197500D01*
Y261783D01*
X198984D01*
Y263464D01*
D02*
G37*
G36*
X196500D02*
X195016D01*
Y261783D01*
X196500D01*
Y263464D01*
D02*
G37*
G36*
X201500Y263658D02*
X199425D01*
Y261681D01*
X201500D01*
Y263658D01*
D02*
G37*
G36*
X188750Y263100D02*
X186750D01*
Y261000D01*
X188750D01*
Y263100D01*
D02*
G37*
G36*
X185750D02*
X183750D01*
Y261000D01*
X185750D01*
Y263100D01*
D02*
G37*
G36*
X208591Y261653D02*
X207500D01*
Y260622D01*
X208591D01*
Y261653D01*
D02*
G37*
G36*
X212248D02*
X211157D01*
Y260622D01*
X212248D01*
Y261653D01*
D02*
G37*
G36*
X206500D02*
X205410D01*
Y260622D01*
X206500D01*
Y261653D01*
D02*
G37*
G36*
X210157D02*
X209067D01*
Y260622D01*
X210157D01*
Y261653D01*
D02*
G37*
G36*
X215480Y261531D02*
X214390D01*
Y260500D01*
X215480D01*
Y261531D01*
D02*
G37*
G36*
X213390D02*
X212299D01*
Y260500D01*
X213390D01*
Y261531D01*
D02*
G37*
G36*
X114861Y261130D02*
X113770D01*
Y260098D01*
X114861D01*
Y261130D01*
D02*
G37*
G36*
X112770D02*
X111680D01*
Y260098D01*
X112770D01*
Y261130D01*
D02*
G37*
G36*
X221012Y260067D02*
X219981D01*
Y258977D01*
X221012D01*
Y260067D01*
D02*
G37*
G36*
X193644Y262494D02*
X189856D01*
Y258506D01*
X193644D01*
Y262494D01*
D02*
G37*
G36*
X221012Y257977D02*
X219981D01*
Y256886D01*
X221012D01*
Y257977D01*
D02*
G37*
G36*
X200988Y255569D02*
X200970Y255562D01*
X200939Y255549D01*
X200909Y255536D01*
X200879Y255521D01*
X200850Y255507D01*
X200820Y255491D01*
X200791Y255475D01*
X200763Y255458D01*
X200735Y255440D01*
X200707Y255422D01*
X200680Y255403D01*
X200653Y255383D01*
X200627Y255363D01*
X200601Y255343D01*
X200575Y255321D01*
X200551Y255299D01*
X200526Y255276D01*
X200503Y255253D01*
X200479Y255230D01*
X200457Y255205D01*
X200435Y255181D01*
X200413Y255155D01*
X200393Y255129D01*
X200372Y255103D01*
X200353Y255076D01*
X200334Y255049D01*
X200316Y255021D01*
X200298Y254993D01*
X200281Y254965D01*
X200265Y254936D01*
X200249Y254906D01*
X200235Y254877D01*
X200220Y254847D01*
X200207Y254816D01*
X200194Y254786D01*
X200187Y254768D01*
X200988D01*
Y255569D01*
D02*
G37*
G36*
X190213Y255500D02*
X188531D01*
Y254016D01*
X190213D01*
Y255500D01*
D02*
G37*
G36*
X193528Y253468D02*
X189787D01*
Y249532D01*
X193528D01*
Y250724D01*
X195594D01*
X195602Y250720D01*
X195626Y250709D01*
X195649Y250698D01*
X195673Y250689D01*
X195697Y250679D01*
X195721Y250671D01*
X195746Y250663D01*
X195771Y250656D01*
X195796Y250650D01*
X195821Y250644D01*
X195846Y250639D01*
X195872Y250635D01*
X195897Y250632D01*
X195923Y250629D01*
X195949Y250627D01*
X195974Y250626D01*
X196000Y250626D01*
X196026Y250626D01*
X196052Y250627D01*
X196077Y250629D01*
X196103Y250632D01*
X196128Y250635D01*
X196154Y250639D01*
X196179Y250644D01*
X196204Y250650D01*
X196229Y250656D01*
X196254Y250663D01*
X196279Y250671D01*
X196303Y250679D01*
X196327Y250689D01*
X196351Y250698D01*
X196374Y250709D01*
X196398Y250720D01*
X196421Y250732D01*
X196443Y250745D01*
X196465Y250758D01*
X196487Y250772D01*
X196508Y250786D01*
X196529Y250801D01*
X196549Y250817D01*
X196570Y250833D01*
X196589Y250850D01*
X196608Y250867D01*
X196626Y250885D01*
X196644Y250904D01*
X196662Y250923D01*
X196679Y250942D01*
X196695Y250962D01*
X196711Y250983D01*
X196726Y251004D01*
X196740Y251025D01*
X196754Y251047D01*
X196767Y251069D01*
X196780Y251091D01*
X196792Y251114D01*
X196803Y251137D01*
X196813Y251161D01*
X196823Y251185D01*
X196833Y251209D01*
X196841Y251233D01*
X196849Y251258D01*
X196856Y251283D01*
X196862Y251308D01*
X196868Y251333D01*
X196872Y251358D01*
X196877Y251383D01*
X196880Y251409D01*
X196882Y251435D01*
X196884Y251460D01*
X196886Y251486D01*
X196886Y251512D01*
X196886Y251538D01*
X196884Y251563D01*
X196882Y251589D01*
X196880Y251615D01*
X196877Y251640D01*
X196872Y251666D01*
X196868Y251691D01*
X196862Y251716D01*
X196856Y251741D01*
X196849Y251766D01*
X196841Y251790D01*
X196833Y251815D01*
X196823Y251839D01*
X196813Y251863D01*
X196803Y251886D01*
X196792Y251909D01*
X196780Y251932D01*
X196767Y251955D01*
X196754Y251977D01*
X196740Y251999D01*
X196726Y252020D01*
X196711Y252041D01*
X196695Y252061D01*
X196679Y252081D01*
X196662Y252101D01*
X196644Y252120D01*
X196626Y252138D01*
X196608Y252156D01*
X196589Y252174D01*
X196570Y252190D01*
X196549Y252207D01*
X196529Y252222D01*
X196508Y252238D01*
X196487Y252252D01*
X196465Y252266D01*
X196443Y252279D01*
X196421Y252292D01*
X196398Y252304D01*
X196374Y252315D01*
X196351Y252325D01*
X196327Y252335D01*
X196303Y252344D01*
X196279Y252353D01*
X196254Y252361D01*
X196229Y252367D01*
X196204Y252374D01*
X196179Y252379D01*
X196154Y252384D01*
X196128Y252388D01*
X196103Y252392D01*
X196077Y252394D01*
X196052Y252396D01*
X196026Y252397D01*
X196000Y252398D01*
X195974Y252397D01*
X195949Y252396D01*
X195923Y252394D01*
X195897Y252392D01*
X195872Y252388D01*
X195846Y252384D01*
X195821Y252379D01*
X195796Y252374D01*
X195771Y252367D01*
X195746Y252361D01*
X195721Y252353D01*
X195697Y252344D01*
X195673Y252335D01*
X195649Y252325D01*
X195626Y252315D01*
X195602Y252304D01*
X195594Y252299D01*
X193528D01*
Y253468D01*
D02*
G37*
G36*
X185843Y248953D02*
X183866D01*
Y246878D01*
X185843D01*
Y248953D01*
D02*
G37*
G36*
X214390Y245923D02*
Y245122D01*
X215191D01*
X215184Y245140D01*
X215171Y245171D01*
X215158Y245201D01*
X215143Y245231D01*
X215129Y245261D01*
X215113Y245290D01*
X215097Y245319D01*
X215080Y245347D01*
X215062Y245376D01*
X215044Y245403D01*
X215025Y245430D01*
X215005Y245457D01*
X214985Y245484D01*
X214965Y245510D01*
X214943Y245535D01*
X214921Y245560D01*
X214898Y245584D01*
X214875Y245608D01*
X214852Y245631D01*
X214827Y245653D01*
X214803Y245675D01*
X214777Y245697D01*
X214751Y245718D01*
X214725Y245738D01*
X214698Y245757D01*
X214671Y245776D01*
X214643Y245795D01*
X214615Y245812D01*
X214587Y245829D01*
X214558Y245845D01*
X214528Y245861D01*
X214499Y245876D01*
X214469Y245890D01*
X214438Y245903D01*
X214408Y245916D01*
X214390Y245923D01*
D02*
G37*
G36*
X219091Y244756D02*
X218000D01*
Y243724D01*
X219091D01*
Y244756D01*
D02*
G37*
G36*
X217000D02*
X215910D01*
Y243724D01*
X217000D01*
Y244756D01*
D02*
G37*
G36*
X188819Y245878D02*
X186343D01*
X183866D01*
Y244100D01*
X183750D01*
Y242000D01*
X186250D01*
X188750D01*
Y243803D01*
X188819D01*
Y245878D01*
D02*
G37*
G36*
X226409Y241358D02*
X225378D01*
Y240268D01*
X226409D01*
Y241358D01*
D02*
G37*
G36*
X188750Y241000D02*
X186750D01*
Y238900D01*
X188750D01*
Y241000D01*
D02*
G37*
G36*
X185750D02*
X183750D01*
Y238900D01*
X185750D01*
Y241000D01*
D02*
G37*
G36*
X226409Y239268D02*
X225378D01*
Y238177D01*
X226409D01*
Y239268D01*
D02*
G37*
G36*
X225409Y237846D02*
X224378D01*
Y236756D01*
X225409D01*
Y237846D01*
D02*
G37*
G36*
X204000Y237090D02*
X202969D01*
Y236000D01*
X204000D01*
Y237090D01*
D02*
G37*
G36*
X196968Y233405D02*
X193032D01*
Y229665D01*
X196968D01*
Y233405D01*
D02*
G37*
G36*
X227571Y231768D02*
X225398D01*
Y229398D01*
X227571D01*
Y231768D01*
D02*
G37*
G36*
X207819Y231346D02*
X205842D01*
Y229272D01*
X207819D01*
Y231346D01*
D02*
G37*
G36*
X204842D02*
X202866D01*
Y229272D01*
X204842D01*
Y231346D01*
D02*
G37*
G36*
X197575Y228697D02*
X195500D01*
Y226720D01*
X197575D01*
Y228697D01*
D02*
G37*
G36*
X194500D02*
X192425D01*
Y226720D01*
X194500D01*
Y228697D01*
D02*
G37*
G36*
X202201Y229713D02*
X198264D01*
Y225972D01*
X202201D01*
Y226712D01*
X205457D01*
Y226122D01*
X208803D01*
Y228878D01*
X205457D01*
Y228288D01*
X202201D01*
Y229713D01*
D02*
G37*
G36*
X197575Y225721D02*
X195500D01*
Y223744D01*
X197575D01*
Y225721D01*
D02*
G37*
G36*
X194500D02*
X192425D01*
Y223744D01*
X194500D01*
Y225721D01*
D02*
G37*
G36*
X221512Y221913D02*
X220480D01*
Y220823D01*
X221512D01*
Y221913D01*
D02*
G37*
G36*
X187953Y222453D02*
X184500D01*
Y219000D01*
X187953D01*
Y222453D01*
D02*
G37*
G36*
X183500D02*
X180047D01*
Y219000D01*
X183500D01*
Y222453D01*
D02*
G37*
G36*
X187953Y218000D02*
X184500D01*
Y214547D01*
X187953D01*
Y218000D01*
D02*
G37*
G36*
X183500D02*
X180047D01*
Y214547D01*
X183500D01*
Y218000D01*
D02*
G37*
%LPD*%
G36*
X179606Y266630D02*
Y261517D01*
X179594Y261514D01*
X179587Y261530D01*
X179578Y261550D01*
X179568Y261570D01*
X179558Y261589D01*
X179547Y261608D01*
X179535Y261627D01*
X179523Y261645D01*
X179510Y261662D01*
X179496Y261679D01*
X179482Y261696D01*
X179468Y261712D01*
X179452Y261728D01*
X177815Y263366D01*
Y266102D01*
X174665D01*
Y261968D01*
X177402D01*
X178360Y261011D01*
Y256000D01*
X178360Y255978D01*
X178362Y255956D01*
X178364Y255935D01*
X178366Y255913D01*
X178369Y255891D01*
X178374Y255870D01*
X178378Y255849D01*
X178384Y255827D01*
X178390Y255806D01*
X178397Y255786D01*
X178405Y255765D01*
X178413Y255745D01*
X178422Y255725D01*
X178432Y255706D01*
X178442Y255686D01*
X178453Y255667D01*
X178465Y255649D01*
X178477Y255631D01*
X178490Y255613D01*
X178504Y255596D01*
X178518Y255579D01*
X178532Y255563D01*
X178548Y255548D01*
X180280Y253815D01*
X180296Y253800D01*
X180312Y253785D01*
X180322Y253777D01*
X180318Y253764D01*
X178854D01*
X177815Y254802D01*
Y258032D01*
X174665D01*
Y254802D01*
X173503Y253640D01*
X172516D01*
Y255465D01*
X166579D01*
Y253640D01*
X163265D01*
X159066Y257839D01*
X159071Y257850D01*
X159500D01*
Y259531D01*
X158016D01*
Y258906D01*
X158004Y258901D01*
X155452Y261452D01*
X155437Y261468D01*
X155420Y261482D01*
X155404Y261496D01*
X155387Y261510D01*
X155369Y261523D01*
X155351Y261535D01*
X155333Y261547D01*
X155314Y261558D01*
X155294Y261568D01*
X155275Y261578D01*
X155255Y261587D01*
X155235Y261595D01*
X155214Y261603D01*
X155194Y261610D01*
X155173Y261616D01*
X155151Y261622D01*
X155130Y261627D01*
X155109Y261631D01*
X155087Y261634D01*
X155065Y261636D01*
X155044Y261638D01*
X155022Y261639D01*
X155000Y261640D01*
X139887D01*
X137778Y263749D01*
Y264417D01*
X138319D01*
Y264986D01*
X138332Y264987D01*
X138335Y264971D01*
X138342Y264939D01*
X138350Y264907D01*
X138359Y264875D01*
X138369Y264843D01*
X138380Y264812D01*
X138391Y264781D01*
X138403Y264750D01*
X138416Y264719D01*
X138429Y264689D01*
X138443Y264659D01*
X138458Y264629D01*
X138474Y264600D01*
X138490Y264571D01*
X138507Y264542D01*
X138516Y264528D01*
Y264417D01*
X138593D01*
X138601Y264406D01*
X138622Y264380D01*
X138644Y264355D01*
X138665Y264330D01*
X138688Y264306D01*
X138711Y264282D01*
X140010Y262983D01*
X140010Y262983D01*
X140034Y262960D01*
X140058Y262937D01*
X140083Y262915D01*
X140109Y262894D01*
X140134Y262873D01*
X140161Y262853D01*
X140188Y262833D01*
X140215Y262814D01*
X140243Y262796D01*
X140271Y262778D01*
X140299Y262761D01*
X140328Y262745D01*
X140357Y262730D01*
X140387Y262715D01*
X140417Y262701D01*
X140447Y262687D01*
X140478Y262674D01*
X140509Y262663D01*
X140540Y262651D01*
X140572Y262641D01*
X140603Y262631D01*
X140635Y262622D01*
X140667Y262614D01*
X140700Y262607D01*
X140732Y262600D01*
X140765Y262594D01*
X140798Y262589D01*
X140831Y262585D01*
X140864Y262581D01*
X140897Y262578D01*
X140930Y262576D01*
X140963Y262575D01*
X140996Y262575D01*
X140997Y262575D01*
X158622D01*
Y262394D01*
X161378D01*
Y262642D01*
X162106D01*
Y261866D01*
X162107Y261833D01*
X162108Y261800D01*
X162110Y261767D01*
X162112Y261734D01*
X162116Y261701D01*
X162120Y261668D01*
X162126Y261635D01*
X162131Y261602D01*
X162138Y261570D01*
X162145Y261538D01*
X162154Y261505D01*
X162163Y261473D01*
X162172Y261442D01*
X162183Y261410D01*
X162194Y261379D01*
X162206Y261348D01*
X162219Y261317D01*
X162232Y261287D01*
X162246Y261257D01*
X162261Y261227D01*
X162277Y261198D01*
X162293Y261169D01*
X162296Y261165D01*
X162289Y261154D01*
X161984D01*
Y262213D01*
X160500D01*
Y260032D01*
Y257850D01*
X161984D01*
Y258091D01*
X163000D01*
Y259622D01*
X163500D01*
Y260122D01*
X165091D01*
Y261154D01*
X164711D01*
X164704Y261165D01*
X164707Y261169D01*
X164723Y261198D01*
X164739Y261227D01*
X164754Y261257D01*
X164768Y261287D01*
X164781Y261317D01*
X164794Y261348D01*
X164806Y261379D01*
X164817Y261410D01*
X164828Y261442D01*
X164837Y261473D01*
X164846Y261505D01*
X164855Y261538D01*
X164862Y261570D01*
X164869Y261602D01*
X164874Y261635D01*
X164880Y261668D01*
X164884Y261701D01*
X164887Y261734D01*
X164890Y261767D01*
X164892Y261800D01*
X164893Y261833D01*
X164894Y261866D01*
Y262642D01*
X167185D01*
Y261968D01*
X170335D01*
Y266102D01*
X170272D01*
Y267016D01*
X172047D01*
Y267106D01*
X172872D01*
Y267016D01*
X174510D01*
Y266409D01*
X175541D01*
Y268000D01*
X176041D01*
Y268500D01*
X177573D01*
Y268647D01*
X177585Y268651D01*
X179606Y266630D01*
D02*
G37*
%LPC*%
G36*
X177573Y267500D02*
X176541D01*
Y266409D01*
X177573D01*
Y267500D01*
D02*
G37*
G36*
X159500Y262213D02*
X158016D01*
Y260531D01*
X159500D01*
Y262213D01*
D02*
G37*
G36*
X165091Y259122D02*
X164000D01*
Y258091D01*
X165091D01*
Y259122D01*
D02*
G37*
G36*
X172516Y258638D02*
X170047D01*
Y256465D01*
X172516D01*
Y258638D01*
D02*
G37*
G36*
X169047D02*
X166579D01*
Y256465D01*
X169047D01*
Y258638D01*
D02*
G37*
%LPD*%
D10*
X206744Y235760D02*
X210658Y231846D01*
X217500Y247378D02*
X219878D01*
X210658Y257878D02*
X213890D01*
X218539Y239827D02*
X222634D01*
X191969Y256000D02*
X196500D01*
X199610Y252890D01*
X196500Y256000D02*
X197000Y256500D01*
X213890Y247378D02*
X217500D01*
X208378Y255598D02*
X210658Y257878D01*
X208378Y254268D02*
Y255598D01*
X213890Y257756D02*
Y257878D01*
Y254268D02*
Y257756D01*
X201488Y252890D02*
X202866D01*
X211134Y243244D02*
X215122D01*
X218539Y239827D01*
X186343Y251500D02*
X191465Y246378D01*
X197000Y260028D02*
Y260032D01*
Y256500D02*
Y260028D01*
X191657Y246378D02*
X194378D01*
X191465D02*
X191657D01*
X200232Y233157D02*
Y235732D01*
X202866Y238366D01*
Y241866D01*
X200232Y227500D02*
X207130D01*
X210658Y227713D02*
Y231846D01*
X206744Y235760D02*
Y238591D01*
X204244Y241090D02*
X206744Y238591D01*
X204244Y241090D02*
Y241866D01*
X201488Y240866D02*
Y241866D01*
X196122Y235500D02*
X201488Y240866D01*
X191669Y251512D02*
X196000D01*
X202866Y254268D02*
Y258476D01*
X199610Y252890D02*
X201488D01*
X222634Y239768D02*
Y239827D01*
X199512Y251512D02*
X201488D01*
X194378Y246378D02*
X199512Y251512D01*
D12*
X113270Y254026D02*
X114154Y253143D01*
X138122Y221921D02*
X140543Y219500D01*
X138122Y221921D02*
Y230391D01*
X160250Y263719D02*
X160567Y264035D01*
X158738Y242611D02*
X160185Y241164D01*
X158738Y242611D02*
Y247814D01*
X157590Y248961D02*
X158738Y247814D01*
X155168Y248961D02*
X157590D01*
X172011Y238000D02*
X172784Y237227D01*
X155441Y238000D02*
X172011D01*
X151299Y242143D02*
X155441Y238000D01*
X148602Y242143D02*
X151299D01*
X148580Y242164D02*
X148602Y242143D01*
X140717Y242623D02*
X146175Y237164D01*
X140717Y242623D02*
Y254267D01*
X146175Y237164D02*
X148580D01*
X143309Y254267D02*
X144063Y255021D01*
X148063D01*
X150307Y250521D02*
Y252143D01*
X149429Y249643D02*
X150307Y250521D01*
X144366Y249643D02*
X149429D01*
X143389Y248665D02*
X144366Y249643D01*
X143389Y244659D02*
Y248665D01*
X145884Y242164D02*
X148580D01*
X143389Y244659D02*
X145884Y242164D01*
X148580Y247164D02*
X149027Y246718D01*
X155168D01*
X140717Y254267D02*
X143309D01*
X133529Y253143D02*
X134654Y254267D01*
X120217Y253143D02*
X133529D01*
X120217Y253044D02*
Y253143D01*
X116092Y248920D02*
X120217Y253044D01*
X116092Y246664D02*
Y248920D01*
X111185Y236698D02*
X116092Y241605D01*
X111185Y222809D02*
Y236698D01*
Y222809D02*
X115330Y218664D01*
X116092Y241605D02*
Y241664D01*
X115330Y218664D02*
X115592D01*
X114185Y237198D02*
X116092Y239105D01*
X114185Y230071D02*
Y237198D01*
Y230071D02*
X115592Y228664D01*
X116092Y239105D02*
Y239164D01*
X118051Y246379D02*
X118336Y246664D01*
X118051Y246182D02*
Y246379D01*
X116092Y244223D02*
X118051Y246182D01*
X116092Y244164D02*
Y244223D01*
X128592Y246664D02*
X129092Y247164D01*
X118336Y246664D02*
X128592D01*
X118336Y241664D02*
Y244164D01*
X128592Y241664D02*
X129092Y242164D01*
X118336Y241664D02*
X128592D01*
X118336Y236664D02*
Y239164D01*
Y236664D02*
X128592D01*
X129092Y237164D01*
X129461Y267469D02*
X129500Y267429D01*
X178589Y253124D02*
X182500D01*
X175350Y252000D02*
X176000Y252650D01*
X161500Y252000D02*
X175350D01*
X153795Y259705D02*
X161500Y252000D01*
X179000Y256000D02*
X180732Y254268D01*
X179000Y256000D02*
Y261276D01*
X180732Y254268D02*
X183500D01*
X173768Y253000D02*
X176240Y255472D01*
X163000Y253000D02*
X173768D01*
X155000Y261000D02*
X163000Y253000D01*
X138327Y259705D02*
X153795D01*
X134579Y263453D02*
Y267469D01*
Y263453D02*
X138327Y259705D01*
X137138Y263484D02*
Y267469D01*
Y263484D02*
X139622Y261000D01*
X155000D01*
X192000Y238500D02*
X195124D01*
X187000Y233500D02*
X192000Y238500D01*
X179000Y233500D02*
X187000D01*
X174000Y228500D02*
X179000Y233500D01*
X185000Y228500D02*
Y229346D01*
X193154Y237500D02*
X195634D01*
X185000Y229346D02*
X193154Y237500D01*
X163500Y264035D02*
Y264378D01*
X176240Y255472D02*
X178589Y253124D01*
X173797Y268000D02*
X173797Y268000D01*
X171122Y268000D02*
X171123Y268000D01*
X168760Y264035D02*
X168878Y264154D01*
X176240Y264035D02*
X179000Y261276D01*
X223878Y268500D02*
Y269807D01*
X224000Y256122D02*
Y257000D01*
X223897Y260772D02*
X223949Y260721D01*
X202000Y259343D02*
X202866Y258476D01*
X207000Y254268D02*
Y257878D01*
X208000Y225000D02*
X212634D01*
X203000Y220000D02*
X208000Y225000D01*
X203000Y219000D02*
Y220000D01*
X215122Y225622D02*
Y234378D01*
X213000Y223500D02*
X215122Y225622D01*
X213000Y219000D02*
Y223500D01*
X212634Y225000D02*
X214000Y226366D01*
X201432Y243188D02*
X201488Y243244D01*
X209756Y239744D02*
X215122Y234378D01*
X209756Y239744D02*
Y241866D01*
X214000Y226366D02*
Y234000D01*
X208378Y239622D02*
X214000Y234000D01*
X217500Y229953D02*
Y234500D01*
X212512Y239488D02*
X217500Y234500D01*
X212512Y239488D02*
Y241866D01*
X220370Y232268D02*
Y233630D01*
X213890Y240110D02*
X220370Y233630D01*
X213890Y240110D02*
Y241866D01*
X224256Y222413D02*
Y225917D01*
X224898Y226559D01*
X197500Y243688D02*
Y247256D01*
X195312Y241500D02*
X197500Y243688D01*
X191750Y241500D02*
X195312D01*
X197500Y247256D02*
X199000Y248756D01*
X198490Y241866D02*
Y244235D01*
X195124Y238500D02*
X198490Y241866D01*
X199512Y241378D02*
Y243512D01*
X195634Y237500D02*
X199512Y241378D01*
X210658Y227713D02*
X210870Y227500D01*
X198490Y244235D02*
X200255Y246000D01*
X199512Y243512D02*
X200622Y244622D01*
X201488D01*
X200255Y246000D02*
X201488D01*
X191657Y251500D02*
X191669Y251512D01*
X218083Y229370D02*
X222283D01*
X217500Y229953D02*
X218083Y229370D01*
X222283D02*
X224898Y226756D01*
Y226559D02*
Y226756D01*
X220370Y232268D02*
X221634Y233531D01*
Y236256D01*
D13*
X152806Y255021D02*
X156000Y251827D01*
X150307Y255021D02*
X152806D01*
X148185Y252643D02*
X150307Y254765D01*
Y255021D01*
X182000Y256500D02*
X184500D01*
X180500Y258000D02*
X182000Y256500D01*
X180500Y258000D02*
Y267000D01*
X177504Y269996D02*
X180500Y267000D01*
X174919Y269996D02*
X177504D01*
X173797Y268874D02*
X174919Y269996D01*
X173797Y268000D02*
Y268874D01*
X171123Y268000D02*
X173797D01*
D17*
X113270Y259598D02*
D03*
Y257354D02*
D03*
X163500Y266622D02*
D03*
Y264378D02*
D03*
X155168Y248961D02*
D03*
Y246718D02*
D03*
X224000Y256122D02*
D03*
Y253878D02*
D03*
X223897Y260772D02*
D03*
Y263016D02*
D03*
X112000Y268244D02*
D03*
Y266000D02*
D03*
X163500Y261866D02*
D03*
Y259622D02*
D03*
X213890Y260000D02*
D03*
Y257756D02*
D03*
X210658Y260122D02*
D03*
Y257878D02*
D03*
X207000D02*
D03*
Y260122D02*
D03*
X217500Y245256D02*
D03*
Y247500D02*
D03*
D18*
X223878Y269807D02*
D03*
Y283193D02*
D03*
D19*
X199669Y277000D02*
D03*
X183331D02*
D03*
D20*
X197701Y270996D02*
D03*
Y283004D02*
D03*
X185299Y270996D02*
D03*
Y283004D02*
D03*
D21*
X168878Y268000D02*
D03*
X171122D02*
D03*
X176041Y268000D02*
D03*
X173797D02*
D03*
X148063Y252143D02*
D03*
X150307D02*
D03*
X221512Y258477D02*
D03*
X223756D02*
D03*
X148063Y255021D02*
D03*
X150307D02*
D03*
X118336Y246664D02*
D03*
X116092D02*
D03*
Y244164D02*
D03*
X118336D02*
D03*
X116092Y241664D02*
D03*
X118336D02*
D03*
Y239164D02*
D03*
X116092D02*
D03*
X118336Y236664D02*
D03*
X116092D02*
D03*
X222634Y239768D02*
D03*
X224878D02*
D03*
X219878Y247378D02*
D03*
X222122D02*
D03*
X221634Y236256D02*
D03*
X223878D02*
D03*
X224256Y222413D02*
D03*
X222012D02*
D03*
X196122Y235500D02*
D03*
X193878D02*
D03*
X206744D02*
D03*
X204500D02*
D03*
D22*
X160250Y242349D02*
D03*
D23*
X173045Y246286D02*
D03*
X172848Y238412D02*
D03*
D24*
X120217Y253143D02*
D03*
X114154D02*
D03*
X140717Y254267D02*
D03*
X134654D02*
D03*
D25*
X197000Y263965D02*
D03*
Y260028D02*
D03*
X160000Y260032D02*
D03*
Y263968D02*
D03*
D26*
X176240Y255965D02*
D03*
Y264035D02*
D03*
X168760D02*
D03*
D27*
X169547Y255965D02*
D03*
D28*
X148580Y247164D02*
D03*
Y242164D02*
D03*
Y237164D02*
D03*
Y232164D02*
D03*
Y227164D02*
D03*
Y222164D02*
D03*
Y217164D02*
D03*
X129092D02*
D03*
Y222164D02*
D03*
Y227164D02*
D03*
Y232164D02*
D03*
Y237164D02*
D03*
Y242164D02*
D03*
Y247164D02*
D03*
D29*
X186250Y260500D02*
D03*
X191750D02*
D03*
X186250Y241500D02*
D03*
X191750D02*
D03*
D30*
X224898Y232268D02*
D03*
X220370D02*
D03*
Y226559D02*
D03*
X224898D02*
D03*
D31*
X200232Y233157D02*
D03*
Y227842D02*
D03*
X195000Y226220D02*
D03*
Y231535D02*
D03*
X202000Y264158D02*
D03*
Y258843D02*
D03*
D32*
X210658Y231846D02*
D03*
X205343D02*
D03*
X191657Y251500D02*
D03*
X186343D02*
D03*
Y246378D02*
D03*
X191657D02*
D03*
D33*
X210870Y227500D02*
D03*
X207130D02*
D03*
D34*
X212512Y241866D02*
D03*
X211134D02*
D03*
X209756D02*
D03*
X208378D02*
D03*
X207000D02*
D03*
X205622D02*
D03*
X204244D02*
D03*
X202866D02*
D03*
X201488D02*
D03*
X211134Y243244D02*
D03*
X209756D02*
D03*
X208378D02*
D03*
X207000D02*
D03*
X205622D02*
D03*
X204244D02*
D03*
X202866D02*
D03*
X201488D02*
D03*
X209756Y244622D02*
D03*
X208378D02*
D03*
X207000D02*
D03*
X205622D02*
D03*
X204244D02*
D03*
X202866D02*
D03*
X201488D02*
D03*
X211134Y246000D02*
D03*
X209756D02*
D03*
X208378D02*
D03*
X207000D02*
D03*
X205622D02*
D03*
X204244D02*
D03*
X202866D02*
D03*
X201488D02*
D03*
X213890Y247378D02*
D03*
X212512D02*
D03*
X211134D02*
D03*
X209756D02*
D03*
X208378D02*
D03*
X207000D02*
D03*
X205622D02*
D03*
X204244D02*
D03*
X202866D02*
D03*
X201488D02*
D03*
X213890Y248756D02*
D03*
X212512D02*
D03*
X211134D02*
D03*
X209756D02*
D03*
X208378D02*
D03*
X207000D02*
D03*
X205622D02*
D03*
X204244D02*
D03*
X202866D02*
D03*
X201488D02*
D03*
X213890Y250134D02*
D03*
X212512D02*
D03*
X211134D02*
D03*
X209756D02*
D03*
X208378D02*
D03*
X207000D02*
D03*
X205622D02*
D03*
X204244D02*
D03*
X202866D02*
D03*
X201488D02*
D03*
X213890Y251512D02*
D03*
X212512D02*
D03*
X209756D02*
D03*
X208378D02*
D03*
X207000D02*
D03*
X205622D02*
D03*
X204244D02*
D03*
X202866D02*
D03*
X201488D02*
D03*
X213890Y252890D02*
D03*
X212512D02*
D03*
X211134D02*
D03*
X209756D02*
D03*
X208378D02*
D03*
X207000D02*
D03*
X205622D02*
D03*
X204244D02*
D03*
X202866D02*
D03*
X201488D02*
D03*
X213890Y254268D02*
D03*
X212512D02*
D03*
X211134D02*
D03*
X209756D02*
D03*
X208378D02*
D03*
X207000D02*
D03*
X205622D02*
D03*
X204244D02*
D03*
X202866D02*
D03*
X213890Y241866D02*
D03*
X212512Y244622D02*
D03*
X213890D02*
D03*
X201488Y254268D02*
D03*
D35*
X188031Y256000D02*
D03*
X191969D02*
D03*
D36*
X139500Y278000D02*
D03*
X129657D02*
D03*
D37*
X129461Y267469D02*
D03*
X139697D02*
D03*
X137138D02*
D03*
X134579D02*
D03*
X132020D02*
D03*
D38*
X147177Y268354D02*
D03*
X121980D02*
D03*
D39*
X119815Y278000D02*
D03*
X149343D02*
D03*
D66*
X222798Y248133D02*
G03*
X224144Y253002I-6859J4517D01*
G01*
D67*
X150000Y232164D02*
X159520D01*
X148580D02*
X150000D01*
X159520D02*
X164000Y227684D01*
X113270Y254026D02*
Y256465D01*
X163500Y264035D02*
X168760D01*
X160567D02*
X163500D01*
X138013Y237177D02*
Y243688D01*
X133000Y232164D02*
X138013Y237177D01*
X129092Y232164D02*
X133000D01*
X129461Y264413D02*
Y267469D01*
X127547Y262500D02*
X129461Y264413D01*
X115500Y262500D02*
X127547D01*
X112000Y266000D02*
X115500Y262500D01*
X140996Y263968D02*
X160000D01*
X139697Y265268D02*
X140996Y263968D01*
X139697Y265268D02*
Y267469D01*
X160000Y263968D02*
Y280500D01*
X163500Y261866D02*
Y264035D01*
X160000Y280500D02*
X160500Y281000D01*
X168878Y264154D02*
Y268000D01*
X223949Y257051D02*
Y260721D01*
Y257051D02*
X224000Y257000D01*
D68*
X223878Y268500D02*
X223897Y268481D01*
Y264500D02*
Y268481D01*
D69*
X210317Y245373D02*
D03*
D70*
X207000Y248067D02*
D03*
D71*
X163883Y218473D02*
D03*
X184000Y218500D02*
D03*
X115592Y228664D02*
D03*
D72*
X163883Y228473D02*
D03*
X203000Y219000D02*
D03*
X174000Y228500D02*
D03*
X184000D02*
D03*
X174000Y218500D02*
D03*
X115592Y218664D02*
D03*
X160500Y281000D02*
D03*
D73*
X213000Y219000D02*
D03*
X170500Y281000D02*
D03*
D74*
X135169Y259531D02*
D03*
X133000Y259500D02*
D03*
X130514Y259343D02*
D03*
X126500D02*
D03*
X124000D02*
D03*
X121500Y259500D02*
D03*
X119500D02*
D03*
X196026Y214500D02*
D03*
X193000D02*
D03*
X221700D02*
D03*
X225023D02*
D03*
X182500Y250964D02*
D03*
Y238194D02*
D03*
X169932Y232500D02*
D03*
X170335Y223794D02*
D03*
X190394Y223000D02*
D03*
X190500Y220304D02*
D03*
Y217327D02*
D03*
Y214547D02*
D03*
X112000Y275047D02*
D03*
Y278492D02*
D03*
Y282112D02*
D03*
X114891Y284953D02*
D03*
X112000D02*
D03*
X153817Y282500D02*
D03*
X153882Y285480D02*
D03*
X178465Y275047D02*
D03*
X178504Y277960D02*
D03*
X178432Y280691D02*
D03*
X178465Y283000D02*
D03*
X178390Y285480D02*
D03*
X203457Y285500D02*
D03*
X191465Y283402D02*
D03*
X228500Y214500D02*
D03*
Y216102D02*
D03*
Y218664D02*
D03*
Y221403D02*
D03*
Y224384D02*
D03*
Y228888D02*
D03*
Y232878D02*
D03*
Y236484D02*
D03*
Y240268D02*
D03*
Y243375D02*
D03*
X204583Y261154D02*
D03*
X216347Y261000D02*
D03*
X218083Y249451D02*
D03*
X220000Y249986D02*
D03*
X220721Y251999D02*
D03*
X221000Y253899D02*
D03*
X220370Y245171D02*
D03*
X222258Y245256D02*
D03*
X224878Y245829D02*
D03*
X225996Y247814D02*
D03*
X226965Y249733D02*
D03*
X227000Y251999D02*
D03*
Y254114D02*
D03*
X203257Y268000D02*
D03*
X203423Y270000D02*
D03*
X203309Y273000D02*
D03*
X203423Y275047D02*
D03*
Y277000D02*
D03*
Y279109D02*
D03*
Y281500D02*
D03*
X203500Y283761D02*
D03*
X218392Y261000D02*
D03*
X219000Y258469D02*
D03*
X221363Y256100D02*
D03*
X227000Y256020D02*
D03*
X226965Y258477D02*
D03*
Y261000D02*
D03*
X221482D02*
D03*
X155500Y246926D02*
D03*
X116092Y236664D02*
D03*
X194736Y243000D02*
D03*
X193878Y235500D02*
D03*
X160000Y260032D02*
D03*
X195000Y240136D02*
D03*
X206744Y235500D02*
D03*
X212512Y244622D02*
D03*
X205622Y243244D02*
D03*
X204244Y246000D02*
D03*
X207000Y248756D02*
D03*
X205622D02*
D03*
X204244D02*
D03*
Y250134D02*
D03*
X176240Y264035D02*
D03*
X176000Y252650D02*
D03*
X182500Y253124D02*
D03*
X183500Y254268D02*
D03*
X207000Y257878D02*
D03*
X213890Y254268D02*
D03*
X212512Y248756D02*
D03*
X204244Y254268D02*
D03*
Y252890D02*
D03*
X205622Y251512D02*
D03*
X201488Y248756D02*
D03*
Y243244D02*
D03*
X202866D02*
D03*
X211134D02*
D03*
X208378Y244622D02*
D03*
X204244Y243244D02*
D03*
X202866Y251512D02*
D03*
X208378Y239622D02*
D03*
X192000Y260500D02*
D03*
X199000Y248756D02*
D03*
X196000Y251512D02*
D03*
D75*
X156000Y251827D02*
D03*
X138122Y230391D02*
D03*
X140543Y219500D02*
D03*
X113000Y253098D02*
D03*
X138013Y243688D02*
D03*
X150000Y232000D02*
D03*
X200000Y277000D02*
D03*
X184500Y256500D02*
D03*
X196500Y256000D02*
D03*
X195000Y232000D02*
D03*
X186343Y251500D02*
D03*
M02*
