G04*
G04 #@! TF.GenerationSoftware,Altium Limited,Altium Designer,19.0.4 (130)*
G04*
G04 Layer_Color=32896*
%FSLAX25Y25*%
%MOIN*%
G70*
G01*
G75*
%ADD10C,0.00787*%
%ADD12C,0.00492*%
%ADD15C,0.00500*%
G36*
X215602Y249737D02*
X215732Y249722D01*
X215846Y249703D01*
X215902Y249689D01*
X215950Y249677D01*
X215994Y249666D01*
X216035Y249652D01*
X216072Y249640D01*
X216102Y249633D01*
X216124Y249622D01*
X216142Y249618D01*
X216154Y249611D01*
X216157D01*
X216268Y249555D01*
X216368Y249493D01*
X216453Y249426D01*
X216487Y249393D01*
X216520Y249363D01*
X216549Y249333D01*
X216575Y249304D01*
X216598Y249278D01*
X216612Y249256D01*
X216627Y249241D01*
X216638Y249226D01*
X216642Y249219D01*
X216646Y249215D01*
X216675Y249163D01*
X216701Y249111D01*
X216742Y249000D01*
X216771Y248889D01*
X216790Y248782D01*
X216797Y248730D01*
X216805Y248686D01*
X216808Y248645D01*
Y248612D01*
X216812Y248582D01*
Y248542D01*
X216808Y248468D01*
X216801Y248397D01*
X216794Y248331D01*
X216779Y248268D01*
X216760Y248209D01*
X216742Y248153D01*
X216723Y248101D01*
X216701Y248053D01*
X216683Y248012D01*
X216664Y247972D01*
X216646Y247942D01*
X216627Y247913D01*
X216612Y247894D01*
X216605Y247876D01*
X216598Y247868D01*
X216594Y247865D01*
X216549Y247813D01*
X216505Y247768D01*
X216453Y247728D01*
X216401Y247687D01*
X216298Y247620D01*
X216194Y247568D01*
X216146Y247546D01*
X216102Y247528D01*
X216061Y247513D01*
X216028Y247502D01*
X215998Y247491D01*
X215976Y247483D01*
X215961Y247480D01*
X215957D01*
X215872Y247820D01*
X215932Y247835D01*
X215987Y247853D01*
X216039Y247872D01*
X216087Y247890D01*
X216131Y247913D01*
X216168Y247935D01*
X216205Y247961D01*
X216239Y247983D01*
X216268Y248001D01*
X216290Y248024D01*
X216313Y248042D01*
X216331Y248057D01*
X216342Y248072D01*
X216353Y248083D01*
X216357Y248087D01*
X216361Y248090D01*
X216390Y248127D01*
X216412Y248168D01*
X216453Y248249D01*
X216483Y248327D01*
X216501Y248405D01*
X216516Y248471D01*
X216520Y248497D01*
Y248523D01*
X216524Y248545D01*
Y248571D01*
X216520Y248656D01*
X216505Y248738D01*
X216487Y248812D01*
X216464Y248878D01*
X216442Y248930D01*
X216431Y248952D01*
X216424Y248971D01*
X216416Y248986D01*
X216409Y248997D01*
X216405Y249004D01*
Y249008D01*
X216353Y249078D01*
X216298Y249137D01*
X216235Y249189D01*
X216176Y249230D01*
X216124Y249263D01*
X216079Y249285D01*
X216061Y249293D01*
X216050Y249300D01*
X216042Y249304D01*
X216039D01*
X215943Y249333D01*
X215846Y249356D01*
X215750Y249374D01*
X215661Y249385D01*
X215621Y249389D01*
X215584Y249393D01*
X215550D01*
X215525Y249396D01*
X215502D01*
X215484D01*
X215473D01*
X215469D01*
X215373Y249393D01*
X215284Y249385D01*
X215203Y249370D01*
X215129Y249356D01*
X215066Y249344D01*
X215040Y249337D01*
X215018Y249330D01*
X214999Y249326D01*
X214988Y249322D01*
X214981Y249319D01*
X214977D01*
X214892Y249282D01*
X214814Y249241D01*
X214751Y249197D01*
X214696Y249148D01*
X214651Y249108D01*
X214622Y249074D01*
X214603Y249048D01*
X214596Y249045D01*
Y249041D01*
X214548Y248963D01*
X214511Y248878D01*
X214485Y248797D01*
X214470Y248719D01*
X214459Y248649D01*
X214455Y248619D01*
Y248593D01*
X214452Y248575D01*
Y248545D01*
X214455Y248453D01*
X214470Y248368D01*
X214492Y248297D01*
X214514Y248235D01*
X214540Y248186D01*
X214559Y248149D01*
X214574Y248127D01*
X214581Y248120D01*
X214636Y248061D01*
X214699Y248005D01*
X214766Y247961D01*
X214833Y247924D01*
X214892Y247894D01*
X214921Y247883D01*
X214944Y247876D01*
X214962Y247868D01*
X214977Y247861D01*
X214984Y247857D01*
X214988D01*
X214910Y247524D01*
X214844Y247546D01*
X214785Y247568D01*
X214729Y247598D01*
X214673Y247624D01*
X214625Y247654D01*
X214581Y247687D01*
X214537Y247716D01*
X214500Y247746D01*
X214470Y247776D01*
X214440Y247802D01*
X214415Y247828D01*
X214396Y247846D01*
X214377Y247865D01*
X214366Y247879D01*
X214363Y247887D01*
X214359Y247890D01*
X214326Y247942D01*
X214292Y247994D01*
X214266Y248046D01*
X214244Y248101D01*
X214211Y248212D01*
X214189Y248312D01*
X214178Y248360D01*
X214174Y248401D01*
X214170Y248442D01*
X214167Y248475D01*
X214163Y248501D01*
Y248538D01*
X214170Y248660D01*
X214189Y248778D01*
X214211Y248882D01*
X214226Y248930D01*
X214241Y248974D01*
X214255Y249015D01*
X214270Y249052D01*
X214281Y249082D01*
X214292Y249111D01*
X214303Y249130D01*
X214311Y249145D01*
X214315Y249156D01*
X214318Y249160D01*
X214381Y249259D01*
X214455Y249344D01*
X214529Y249418D01*
X214603Y249481D01*
X214670Y249530D01*
X214699Y249548D01*
X214725Y249563D01*
X214744Y249578D01*
X214759Y249585D01*
X214770Y249589D01*
X214773Y249592D01*
X214888Y249644D01*
X215006Y249681D01*
X215125Y249707D01*
X215232Y249726D01*
X215280Y249733D01*
X215328Y249737D01*
X215365Y249740D01*
X215402D01*
X215428Y249744D01*
X215451D01*
X215465D01*
X215469D01*
X215602Y249737D01*
D02*
G37*
G36*
X215132Y247187D02*
X215195Y247180D01*
X215258Y247173D01*
X215317Y247158D01*
X215369Y247139D01*
X215421Y247121D01*
X215465Y247102D01*
X215506Y247080D01*
X215543Y247062D01*
X215576Y247043D01*
X215602Y247025D01*
X215628Y247006D01*
X215647Y246991D01*
X215658Y246984D01*
X215665Y246976D01*
X215669Y246973D01*
X215709Y246932D01*
X215743Y246888D01*
X215776Y246843D01*
X215802Y246795D01*
X215824Y246751D01*
X215843Y246706D01*
X215869Y246621D01*
X215880Y246584D01*
X215887Y246547D01*
X215891Y246518D01*
X215895Y246488D01*
X215898Y246466D01*
Y246436D01*
X215895Y246366D01*
X215883Y246299D01*
X215869Y246240D01*
X215850Y246185D01*
X215835Y246144D01*
X215821Y246111D01*
X215809Y246089D01*
X215806Y246081D01*
X215769Y246022D01*
X215728Y245970D01*
X215687Y245926D01*
X215650Y245889D01*
X215613Y245863D01*
X215587Y245841D01*
X215569Y245826D01*
X215562Y245822D01*
X215591D01*
X215610D01*
X215621D01*
X215624D01*
X215698Y245826D01*
X215769Y245830D01*
X215832Y245837D01*
X215891Y245844D01*
X215939Y245855D01*
X215976Y245863D01*
X215991Y245866D01*
X216002D01*
X216005Y245870D01*
X216009D01*
X216076Y245889D01*
X216135Y245907D01*
X216187Y245926D01*
X216231Y245944D01*
X216265Y245959D01*
X216290Y245974D01*
X216309Y245981D01*
X216313Y245985D01*
X216353Y246014D01*
X216387Y246044D01*
X216416Y246074D01*
X216442Y246103D01*
X216464Y246126D01*
X216479Y246148D01*
X216487Y246163D01*
X216490Y246166D01*
X216512Y246207D01*
X216527Y246251D01*
X216538Y246292D01*
X216546Y246333D01*
X216549Y246366D01*
X216553Y246392D01*
Y246418D01*
X216549Y246477D01*
X216538Y246533D01*
X216524Y246581D01*
X216505Y246621D01*
X216490Y246651D01*
X216475Y246677D01*
X216464Y246692D01*
X216461Y246695D01*
X216420Y246732D01*
X216372Y246762D01*
X216320Y246788D01*
X216268Y246806D01*
X216224Y246821D01*
X216183Y246832D01*
X216168Y246836D01*
X216161D01*
X216154Y246840D01*
X216150D01*
X216176Y247143D01*
X216283Y247121D01*
X216375Y247091D01*
X216457Y247054D01*
X216524Y247017D01*
X216575Y246980D01*
X216598Y246962D01*
X216616Y246947D01*
X216627Y246936D01*
X216638Y246925D01*
X216642Y246921D01*
X216646Y246917D01*
X216675Y246880D01*
X216701Y246840D01*
X216742Y246758D01*
X216771Y246677D01*
X216790Y246599D01*
X216805Y246529D01*
X216808Y246499D01*
Y246473D01*
X216812Y246455D01*
Y246425D01*
X216805Y246322D01*
X216790Y246229D01*
X216764Y246144D01*
X216734Y246074D01*
X216723Y246044D01*
X216708Y246014D01*
X216694Y245992D01*
X216683Y245970D01*
X216675Y245955D01*
X216668Y245944D01*
X216660Y245937D01*
Y245933D01*
X216598Y245859D01*
X216527Y245793D01*
X216453Y245741D01*
X216383Y245696D01*
X216320Y245659D01*
X216290Y245644D01*
X216268Y245633D01*
X216246Y245626D01*
X216231Y245619D01*
X216224Y245615D01*
X216220D01*
X216165Y245596D01*
X216102Y245578D01*
X215976Y245552D01*
X215843Y245533D01*
X215717Y245522D01*
X215661Y245515D01*
X215606Y245511D01*
X215558D01*
X215517Y245508D01*
X215484D01*
X215458D01*
X215439D01*
X215436D01*
X215351D01*
X215269Y245511D01*
X215195Y245519D01*
X215125Y245526D01*
X215062Y245533D01*
X215003Y245541D01*
X214947Y245552D01*
X214899Y245563D01*
X214859Y245574D01*
X214822Y245582D01*
X214788Y245593D01*
X214762Y245600D01*
X214744Y245607D01*
X214729Y245615D01*
X214722Y245619D01*
X214718D01*
X214629Y245663D01*
X214551Y245711D01*
X214485Y245767D01*
X214429Y245815D01*
X214389Y245863D01*
X214359Y245900D01*
X214348Y245915D01*
X214340Y245926D01*
X214333Y245929D01*
Y245933D01*
X214289Y246011D01*
X214255Y246089D01*
X214229Y246166D01*
X214215Y246236D01*
X214204Y246299D01*
X214200Y246325D01*
Y246344D01*
X214196Y246362D01*
Y246388D01*
X214200Y246451D01*
X214207Y246510D01*
X214218Y246569D01*
X214233Y246621D01*
X214274Y246721D01*
X214292Y246766D01*
X214315Y246803D01*
X214340Y246840D01*
X214359Y246869D01*
X214381Y246899D01*
X214400Y246921D01*
X214415Y246939D01*
X214426Y246951D01*
X214433Y246958D01*
X214437Y246962D01*
X214481Y247002D01*
X214533Y247036D01*
X214581Y247069D01*
X214633Y247095D01*
X214688Y247117D01*
X214740Y247136D01*
X214836Y247162D01*
X214884Y247173D01*
X214925Y247180D01*
X214966Y247184D01*
X214999Y247187D01*
X215025Y247191D01*
X215043D01*
X215058D01*
X215062D01*
X215132Y247187D01*
D02*
G37*
G36*
X195810Y247068D02*
X195873Y247064D01*
X195932Y247053D01*
X195988Y247042D01*
X196040Y247027D01*
X196088Y247012D01*
X196132Y246994D01*
X196173Y246975D01*
X196210Y246957D01*
X196239Y246938D01*
X196265Y246923D01*
X196288Y246909D01*
X196306Y246898D01*
X196317Y246886D01*
X196325Y246883D01*
X196328Y246879D01*
X196365Y246842D01*
X196398Y246801D01*
X196432Y246757D01*
X196458Y246713D01*
X196502Y246624D01*
X196532Y246535D01*
X196543Y246494D01*
X196554Y246454D01*
X196561Y246420D01*
X196569Y246391D01*
X196572Y246365D01*
Y246346D01*
X196576Y246335D01*
Y246332D01*
X196254Y246298D01*
X196247Y246383D01*
X196232Y246457D01*
X196210Y246524D01*
X196184Y246576D01*
X196162Y246620D01*
X196140Y246650D01*
X196125Y246668D01*
X196117Y246676D01*
X196062Y246720D01*
X196003Y246753D01*
X195940Y246779D01*
X195884Y246794D01*
X195832Y246805D01*
X195788Y246809D01*
X195773Y246813D01*
X195751D01*
X195673Y246809D01*
X195603Y246794D01*
X195544Y246772D01*
X195492Y246750D01*
X195451Y246724D01*
X195425Y246705D01*
X195407Y246690D01*
X195399Y246683D01*
X195355Y246631D01*
X195322Y246579D01*
X195296Y246528D01*
X195281Y246476D01*
X195270Y246435D01*
X195266Y246398D01*
X195263Y246376D01*
Y246372D01*
Y246369D01*
X195270Y246302D01*
X195285Y246232D01*
X195311Y246169D01*
X195337Y246110D01*
X195366Y246061D01*
X195392Y246021D01*
X195399Y246006D01*
X195407Y245995D01*
X195414Y245991D01*
Y245987D01*
X195444Y245947D01*
X195481Y245906D01*
X195522Y245862D01*
X195566Y245817D01*
X195659Y245728D01*
X195751Y245640D01*
X195799Y245599D01*
X195840Y245562D01*
X195880Y245529D01*
X195914Y245499D01*
X195940Y245477D01*
X195962Y245458D01*
X195977Y245447D01*
X195980Y245444D01*
X196073Y245366D01*
X196158Y245292D01*
X196228Y245225D01*
X196284Y245170D01*
X196332Y245122D01*
X196365Y245088D01*
X196384Y245066D01*
X196391Y245062D01*
Y245059D01*
X196443Y244996D01*
X196484Y244937D01*
X196521Y244877D01*
X196550Y244826D01*
X196572Y244781D01*
X196587Y244748D01*
X196595Y244726D01*
X196598Y244722D01*
Y244718D01*
X196613Y244678D01*
X196621Y244641D01*
X196628Y244604D01*
X196632Y244570D01*
X196635Y244541D01*
Y244518D01*
Y244504D01*
Y244500D01*
X194937D01*
Y244803D01*
X196199D01*
X196154Y244866D01*
X196132Y244892D01*
X196114Y244918D01*
X196095Y244940D01*
X196080Y244955D01*
X196069Y244966D01*
X196065Y244970D01*
X196047Y244988D01*
X196025Y245007D01*
X195973Y245055D01*
X195914Y245111D01*
X195851Y245166D01*
X195792Y245214D01*
X195766Y245236D01*
X195744Y245258D01*
X195725Y245273D01*
X195710Y245284D01*
X195703Y245292D01*
X195699Y245296D01*
X195640Y245347D01*
X195581Y245395D01*
X195529Y245444D01*
X195481Y245484D01*
X195437Y245525D01*
X195399Y245562D01*
X195362Y245595D01*
X195333Y245625D01*
X195303Y245654D01*
X195281Y245677D01*
X195263Y245695D01*
X195244Y245714D01*
X195226Y245736D01*
X195218Y245743D01*
X195166Y245806D01*
X195122Y245862D01*
X195085Y245917D01*
X195055Y245961D01*
X195033Y246002D01*
X195018Y246032D01*
X195011Y246050D01*
X195007Y246058D01*
X194985Y246113D01*
X194970Y246169D01*
X194956Y246220D01*
X194948Y246265D01*
X194944Y246306D01*
X194941Y246335D01*
Y246354D01*
Y246361D01*
X194944Y246417D01*
X194952Y246468D01*
X194959Y246520D01*
X194974Y246565D01*
X195011Y246653D01*
X195048Y246724D01*
X195070Y246757D01*
X195089Y246783D01*
X195107Y246809D01*
X195126Y246827D01*
X195141Y246842D01*
X195148Y246857D01*
X195155Y246861D01*
X195159Y246864D01*
X195200Y246901D01*
X195244Y246935D01*
X195292Y246960D01*
X195340Y246983D01*
X195437Y247020D01*
X195533Y247046D01*
X195573Y247053D01*
X195614Y247060D01*
X195651Y247064D01*
X195681Y247068D01*
X195707Y247072D01*
X195744D01*
X195810Y247068D01*
D02*
G37*
G36*
X206000Y244500D02*
X205660D01*
Y245636D01*
X205223D01*
X205182Y245632D01*
X205153D01*
X205127Y245628D01*
X205108Y245625D01*
X205094D01*
X205086Y245621D01*
X205082D01*
X205023Y245603D01*
X204997Y245591D01*
X204975Y245580D01*
X204953Y245569D01*
X204938Y245562D01*
X204931Y245558D01*
X204927Y245554D01*
X204897Y245532D01*
X204868Y245506D01*
X204812Y245451D01*
X204786Y245425D01*
X204768Y245403D01*
X204757Y245388D01*
X204753Y245384D01*
X204716Y245333D01*
X204675Y245277D01*
X204635Y245218D01*
X204594Y245162D01*
X204561Y245111D01*
X204535Y245070D01*
X204524Y245055D01*
X204516Y245044D01*
X204509Y245037D01*
Y245033D01*
X204172Y244500D01*
X203750D01*
X204191Y245196D01*
X204242Y245270D01*
X204291Y245336D01*
X204339Y245392D01*
X204379Y245444D01*
X204416Y245480D01*
X204446Y245510D01*
X204465Y245529D01*
X204472Y245536D01*
X204502Y245558D01*
X204535Y245584D01*
X204601Y245625D01*
X204631Y245640D01*
X204653Y245654D01*
X204668Y245662D01*
X204675Y245666D01*
X204609Y245677D01*
X204546Y245688D01*
X204490Y245706D01*
X204435Y245721D01*
X204387Y245740D01*
X204342Y245762D01*
X204302Y245780D01*
X204265Y245799D01*
X204235Y245821D01*
X204205Y245839D01*
X204183Y245854D01*
X204165Y245869D01*
X204150Y245880D01*
X204139Y245891D01*
X204135Y245895D01*
X204132Y245899D01*
X204102Y245936D01*
X204072Y245973D01*
X204028Y246050D01*
X203998Y246128D01*
X203976Y246202D01*
X203961Y246265D01*
X203958Y246291D01*
Y246317D01*
X203954Y246335D01*
Y246350D01*
Y246357D01*
Y246361D01*
X203958Y246439D01*
X203969Y246509D01*
X203987Y246576D01*
X204006Y246631D01*
X204028Y246679D01*
X204043Y246716D01*
X204058Y246739D01*
X204061Y246742D01*
Y246746D01*
X204106Y246805D01*
X204150Y246857D01*
X204198Y246901D01*
X204242Y246935D01*
X204283Y246960D01*
X204316Y246975D01*
X204339Y246986D01*
X204342Y246990D01*
X204346D01*
X204379Y247001D01*
X204420Y247012D01*
X204502Y247031D01*
X204590Y247042D01*
X204672Y247053D01*
X204749Y247057D01*
X204783D01*
X204812Y247060D01*
X206000D01*
Y244500D01*
D02*
G37*
G36*
X203436D02*
X201834D01*
Y244803D01*
X203096D01*
Y247060D01*
X203436D01*
Y244500D01*
D02*
G37*
G36*
X201427D02*
X199514D01*
Y244803D01*
X201086D01*
Y245673D01*
X199669D01*
Y245976D01*
X201086D01*
Y246757D01*
X199573D01*
Y247060D01*
X201427D01*
Y244500D01*
D02*
G37*
G36*
X199044D02*
X198123D01*
X198038Y244504D01*
X197960Y244507D01*
X197890Y244515D01*
X197830Y244522D01*
X197779Y244530D01*
X197742Y244533D01*
X197731Y244537D01*
X197719Y244541D01*
X197712D01*
X197645Y244559D01*
X197586Y244581D01*
X197534Y244600D01*
X197490Y244622D01*
X197453Y244641D01*
X197427Y244655D01*
X197412Y244667D01*
X197405Y244670D01*
X197357Y244704D01*
X197316Y244744D01*
X197275Y244781D01*
X197242Y244818D01*
X197213Y244851D01*
X197190Y244877D01*
X197176Y244896D01*
X197172Y244903D01*
X197135Y244963D01*
X197098Y245025D01*
X197068Y245085D01*
X197046Y245144D01*
X197024Y245196D01*
X197009Y245236D01*
X197005Y245251D01*
X197002Y245262D01*
X196998Y245270D01*
Y245273D01*
X196976Y245362D01*
X196957Y245451D01*
X196946Y245536D01*
X196935Y245617D01*
X196931Y245688D01*
Y245717D01*
X196928Y245743D01*
Y245762D01*
Y245780D01*
Y245788D01*
Y245791D01*
X196931Y245917D01*
X196942Y246032D01*
X196961Y246135D01*
X196968Y246183D01*
X196979Y246224D01*
X196991Y246265D01*
X196998Y246298D01*
X197005Y246328D01*
X197016Y246354D01*
X197020Y246376D01*
X197028Y246391D01*
X197031Y246398D01*
Y246402D01*
X197072Y246498D01*
X197120Y246583D01*
X197172Y246657D01*
X197220Y246720D01*
X197264Y246772D01*
X197301Y246809D01*
X197316Y246820D01*
X197327Y246831D01*
X197331Y246835D01*
X197335Y246838D01*
X197394Y246886D01*
X197457Y246923D01*
X197520Y246957D01*
X197579Y246983D01*
X197631Y247001D01*
X197671Y247012D01*
X197686Y247020D01*
X197697D01*
X197705Y247023D01*
X197708D01*
X197771Y247035D01*
X197845Y247046D01*
X197919Y247053D01*
X197993Y247057D01*
X198060Y247060D01*
X199044D01*
Y244500D01*
D02*
G37*
G36*
X198576Y256009D02*
X198617Y255949D01*
X198665Y255890D01*
X198710Y255838D01*
X198754Y255794D01*
X198787Y255757D01*
X198802Y255746D01*
X198813Y255735D01*
X198817Y255731D01*
X198821Y255727D01*
X198898Y255664D01*
X198976Y255605D01*
X199050Y255554D01*
X199124Y255513D01*
X199187Y255476D01*
X199213Y255461D01*
X199235Y255450D01*
X199254Y255439D01*
X199268Y255435D01*
X199276Y255428D01*
X199279D01*
Y255124D01*
X199224Y255147D01*
X199169Y255172D01*
X199113Y255198D01*
X199061Y255224D01*
X199017Y255246D01*
X198980Y255265D01*
X198958Y255280D01*
X198954Y255283D01*
X198950D01*
X198884Y255324D01*
X198824Y255365D01*
X198773Y255402D01*
X198732Y255435D01*
X198695Y255461D01*
X198673Y255483D01*
X198654Y255498D01*
X198651Y255502D01*
Y253500D01*
X198336D01*
Y256071D01*
X198539D01*
X198576Y256009D01*
D02*
G37*
G36*
X208929Y253500D02*
X208589D01*
Y254636D01*
X208152D01*
X208111Y254632D01*
X208082D01*
X208056Y254628D01*
X208037Y254625D01*
X208023D01*
X208015Y254621D01*
X208012D01*
X207952Y254603D01*
X207926Y254591D01*
X207904Y254580D01*
X207882Y254569D01*
X207867Y254562D01*
X207860Y254558D01*
X207856Y254555D01*
X207826Y254532D01*
X207797Y254506D01*
X207741Y254451D01*
X207716Y254425D01*
X207697Y254403D01*
X207686Y254388D01*
X207682Y254384D01*
X207645Y254332D01*
X207605Y254277D01*
X207564Y254218D01*
X207523Y254162D01*
X207490Y254111D01*
X207464Y254070D01*
X207453Y254055D01*
X207445Y254044D01*
X207438Y254036D01*
Y254033D01*
X207101Y253500D01*
X206680D01*
X207120Y254196D01*
X207172Y254270D01*
X207220Y254336D01*
X207268Y254392D01*
X207309Y254444D01*
X207346Y254481D01*
X207375Y254510D01*
X207394Y254529D01*
X207401Y254536D01*
X207431Y254558D01*
X207464Y254584D01*
X207530Y254625D01*
X207560Y254640D01*
X207582Y254654D01*
X207597Y254662D01*
X207605Y254665D01*
X207538Y254677D01*
X207475Y254688D01*
X207419Y254706D01*
X207364Y254721D01*
X207316Y254739D01*
X207272Y254762D01*
X207231Y254780D01*
X207194Y254799D01*
X207164Y254821D01*
X207135Y254839D01*
X207112Y254854D01*
X207094Y254869D01*
X207079Y254880D01*
X207068Y254891D01*
X207064Y254895D01*
X207061Y254899D01*
X207031Y254936D01*
X207001Y254973D01*
X206957Y255050D01*
X206927Y255128D01*
X206905Y255202D01*
X206890Y255265D01*
X206887Y255291D01*
Y255317D01*
X206883Y255335D01*
Y255350D01*
Y255357D01*
Y255361D01*
X206887Y255439D01*
X206898Y255509D01*
X206916Y255576D01*
X206935Y255631D01*
X206957Y255679D01*
X206972Y255716D01*
X206987Y255738D01*
X206990Y255742D01*
Y255746D01*
X207035Y255805D01*
X207079Y255857D01*
X207127Y255901D01*
X207172Y255935D01*
X207212Y255960D01*
X207246Y255975D01*
X207268Y255986D01*
X207272Y255990D01*
X207275D01*
X207309Y256001D01*
X207349Y256012D01*
X207431Y256031D01*
X207519Y256042D01*
X207601Y256053D01*
X207679Y256057D01*
X207712D01*
X207741Y256060D01*
X208929D01*
Y253500D01*
D02*
G37*
G36*
X206365D02*
X204763D01*
Y253803D01*
X206025D01*
Y256060D01*
X206365D01*
Y253500D01*
D02*
G37*
G36*
X204356D02*
X202443D01*
Y253803D01*
X204015D01*
Y254673D01*
X202598D01*
Y254976D01*
X204015D01*
Y255757D01*
X202502D01*
Y256060D01*
X204356D01*
Y253500D01*
D02*
G37*
G36*
X201973D02*
X201052D01*
X200967Y253504D01*
X200889Y253507D01*
X200819Y253515D01*
X200760Y253522D01*
X200708Y253530D01*
X200671Y253533D01*
X200660Y253537D01*
X200648Y253541D01*
X200641D01*
X200574Y253559D01*
X200515Y253581D01*
X200464Y253600D01*
X200419Y253622D01*
X200382Y253641D01*
X200356Y253655D01*
X200341Y253666D01*
X200334Y253670D01*
X200286Y253703D01*
X200245Y253744D01*
X200204Y253781D01*
X200171Y253818D01*
X200142Y253852D01*
X200119Y253877D01*
X200105Y253896D01*
X200101Y253903D01*
X200064Y253962D01*
X200027Y254025D01*
X199997Y254085D01*
X199975Y254144D01*
X199953Y254196D01*
X199938Y254236D01*
X199934Y254251D01*
X199931Y254262D01*
X199927Y254270D01*
Y254273D01*
X199905Y254362D01*
X199886Y254451D01*
X199875Y254536D01*
X199864Y254617D01*
X199860Y254688D01*
Y254717D01*
X199857Y254743D01*
Y254762D01*
Y254780D01*
Y254788D01*
Y254791D01*
X199860Y254917D01*
X199872Y255032D01*
X199890Y255135D01*
X199897Y255184D01*
X199908Y255224D01*
X199920Y255265D01*
X199927Y255298D01*
X199934Y255328D01*
X199945Y255354D01*
X199949Y255376D01*
X199957Y255391D01*
X199960Y255398D01*
Y255402D01*
X200001Y255498D01*
X200049Y255583D01*
X200101Y255657D01*
X200149Y255720D01*
X200193Y255772D01*
X200230Y255809D01*
X200245Y255820D01*
X200256Y255831D01*
X200260Y255835D01*
X200264Y255838D01*
X200323Y255887D01*
X200386Y255924D01*
X200449Y255957D01*
X200508Y255983D01*
X200560Y256001D01*
X200600Y256012D01*
X200615Y256020D01*
X200626D01*
X200634Y256023D01*
X200637D01*
X200700Y256034D01*
X200774Y256046D01*
X200848Y256053D01*
X200922Y256057D01*
X200989Y256060D01*
X201973D01*
Y253500D01*
D02*
G37*
G36*
X184500Y243593D02*
X183612Y242946D01*
X183590Y242931D01*
X183564Y242912D01*
X183505Y242871D01*
X183475Y242853D01*
X183453Y242838D01*
X183438Y242827D01*
X183434Y242823D01*
X183490Y242786D01*
X183542Y242753D01*
X183560Y242738D01*
X183575Y242731D01*
X183586Y242723D01*
X183590Y242720D01*
X184500Y242072D01*
Y241654D01*
X183157Y242613D01*
X181940Y241724D01*
Y242094D01*
X182620Y242605D01*
X182676Y242650D01*
X182728Y242687D01*
X182780Y242723D01*
X182820Y242753D01*
X182857Y242779D01*
X182887Y242797D01*
X182902Y242809D01*
X182909Y242812D01*
X182865Y242838D01*
X182817Y242868D01*
X182765Y242901D01*
X182713Y242934D01*
X182668Y242968D01*
X182632Y242990D01*
X182617Y243001D01*
X182606Y243008D01*
X182602Y243016D01*
X182598D01*
X181940Y243482D01*
Y243885D01*
X183175Y243012D01*
X184500Y244000D01*
Y243593D01*
D02*
G37*
G36*
Y239826D02*
X184197D01*
Y241088D01*
X184134Y241044D01*
X184108Y241021D01*
X184082Y241003D01*
X184060Y240985D01*
X184045Y240970D01*
X184034Y240959D01*
X184030Y240955D01*
X184012Y240936D01*
X183993Y240914D01*
X183945Y240862D01*
X183889Y240803D01*
X183834Y240740D01*
X183786Y240681D01*
X183764Y240655D01*
X183741Y240633D01*
X183727Y240615D01*
X183716Y240600D01*
X183708Y240592D01*
X183704Y240589D01*
X183653Y240529D01*
X183605Y240470D01*
X183556Y240418D01*
X183516Y240370D01*
X183475Y240326D01*
X183438Y240289D01*
X183405Y240252D01*
X183375Y240222D01*
X183346Y240193D01*
X183323Y240171D01*
X183305Y240152D01*
X183286Y240134D01*
X183264Y240115D01*
X183257Y240108D01*
X183194Y240056D01*
X183138Y240011D01*
X183083Y239974D01*
X183038Y239945D01*
X182998Y239923D01*
X182968Y239908D01*
X182950Y239900D01*
X182942Y239897D01*
X182887Y239875D01*
X182831Y239860D01*
X182780Y239845D01*
X182735Y239838D01*
X182694Y239834D01*
X182665Y239830D01*
X182646D01*
X182639D01*
X182583Y239834D01*
X182532Y239841D01*
X182480Y239849D01*
X182435Y239863D01*
X182347Y239900D01*
X182276Y239937D01*
X182243Y239960D01*
X182217Y239978D01*
X182191Y239997D01*
X182173Y240015D01*
X182158Y240030D01*
X182143Y240037D01*
X182139Y240045D01*
X182136Y240048D01*
X182099Y240089D01*
X182065Y240134D01*
X182039Y240182D01*
X182017Y240230D01*
X181980Y240326D01*
X181954Y240422D01*
X181947Y240463D01*
X181940Y240504D01*
X181936Y240541D01*
X181932Y240570D01*
X181929Y240596D01*
Y240633D01*
X181932Y240700D01*
X181936Y240762D01*
X181947Y240822D01*
X181958Y240877D01*
X181973Y240929D01*
X181988Y240977D01*
X182006Y241021D01*
X182025Y241062D01*
X182043Y241099D01*
X182062Y241129D01*
X182077Y241155D01*
X182091Y241177D01*
X182102Y241195D01*
X182114Y241207D01*
X182117Y241214D01*
X182121Y241218D01*
X182158Y241255D01*
X182199Y241288D01*
X182243Y241321D01*
X182287Y241347D01*
X182376Y241391D01*
X182465Y241421D01*
X182506Y241432D01*
X182546Y241443D01*
X182580Y241451D01*
X182609Y241458D01*
X182635Y241462D01*
X182654D01*
X182665Y241465D01*
X182668D01*
X182702Y241144D01*
X182617Y241136D01*
X182543Y241121D01*
X182476Y241099D01*
X182424Y241073D01*
X182380Y241051D01*
X182350Y241029D01*
X182332Y241014D01*
X182324Y241007D01*
X182280Y240951D01*
X182247Y240892D01*
X182221Y240829D01*
X182206Y240774D01*
X182195Y240722D01*
X182191Y240677D01*
X182187Y240663D01*
Y240640D01*
X182191Y240563D01*
X182206Y240492D01*
X182228Y240433D01*
X182250Y240381D01*
X182276Y240341D01*
X182295Y240315D01*
X182310Y240296D01*
X182317Y240289D01*
X182369Y240245D01*
X182421Y240211D01*
X182472Y240185D01*
X182524Y240171D01*
X182565Y240159D01*
X182602Y240156D01*
X182624Y240152D01*
X182628D01*
X182632D01*
X182698Y240159D01*
X182768Y240174D01*
X182831Y240200D01*
X182890Y240226D01*
X182939Y240256D01*
X182979Y240282D01*
X182994Y240289D01*
X183005Y240296D01*
X183009Y240304D01*
X183013D01*
X183053Y240333D01*
X183094Y240370D01*
X183138Y240411D01*
X183183Y240455D01*
X183272Y240548D01*
X183360Y240640D01*
X183401Y240688D01*
X183438Y240729D01*
X183471Y240770D01*
X183501Y240803D01*
X183523Y240829D01*
X183542Y240851D01*
X183553Y240866D01*
X183556Y240870D01*
X183634Y240962D01*
X183708Y241047D01*
X183775Y241118D01*
X183830Y241173D01*
X183878Y241221D01*
X183912Y241255D01*
X183934Y241273D01*
X183938Y241281D01*
X183941D01*
X184004Y241332D01*
X184063Y241373D01*
X184123Y241410D01*
X184174Y241440D01*
X184219Y241462D01*
X184252Y241477D01*
X184274Y241484D01*
X184278Y241488D01*
X184282D01*
X184322Y241502D01*
X184359Y241510D01*
X184396Y241517D01*
X184430Y241521D01*
X184459Y241525D01*
X184482D01*
X184496D01*
X184500D01*
Y239826D01*
D02*
G37*
G36*
X193334Y252737D02*
X193464Y252722D01*
X193579Y252703D01*
X193634Y252689D01*
X193682Y252677D01*
X193727Y252666D01*
X193767Y252652D01*
X193804Y252641D01*
X193834Y252633D01*
X193856Y252622D01*
X193875Y252618D01*
X193886Y252611D01*
X193889D01*
X194000Y252555D01*
X194100Y252492D01*
X194185Y252426D01*
X194219Y252393D01*
X194252Y252363D01*
X194282Y252333D01*
X194308Y252304D01*
X194330Y252278D01*
X194345Y252256D01*
X194359Y252241D01*
X194370Y252226D01*
X194374Y252219D01*
X194378Y252215D01*
X194407Y252163D01*
X194433Y252111D01*
X194474Y252000D01*
X194504Y251889D01*
X194522Y251782D01*
X194530Y251730D01*
X194537Y251686D01*
X194541Y251645D01*
Y251612D01*
X194544Y251582D01*
Y251542D01*
X194541Y251468D01*
X194533Y251397D01*
X194526Y251331D01*
X194511Y251268D01*
X194493Y251209D01*
X194474Y251153D01*
X194456Y251101D01*
X194433Y251053D01*
X194415Y251012D01*
X194396Y250972D01*
X194378Y250942D01*
X194359Y250913D01*
X194345Y250894D01*
X194337Y250876D01*
X194330Y250868D01*
X194326Y250865D01*
X194282Y250813D01*
X194237Y250768D01*
X194185Y250728D01*
X194134Y250687D01*
X194030Y250620D01*
X193927Y250569D01*
X193878Y250546D01*
X193834Y250528D01*
X193793Y250513D01*
X193760Y250502D01*
X193730Y250491D01*
X193708Y250483D01*
X193693Y250480D01*
X193690D01*
X193605Y250820D01*
X193664Y250835D01*
X193719Y250853D01*
X193771Y250872D01*
X193819Y250890D01*
X193864Y250913D01*
X193901Y250935D01*
X193938Y250961D01*
X193971Y250983D01*
X194000Y251001D01*
X194023Y251024D01*
X194045Y251042D01*
X194063Y251057D01*
X194074Y251072D01*
X194086Y251083D01*
X194089Y251086D01*
X194093Y251090D01*
X194123Y251127D01*
X194145Y251168D01*
X194185Y251249D01*
X194215Y251327D01*
X194234Y251405D01*
X194248Y251471D01*
X194252Y251497D01*
Y251523D01*
X194256Y251545D01*
Y251571D01*
X194252Y251656D01*
X194237Y251738D01*
X194219Y251812D01*
X194197Y251878D01*
X194174Y251930D01*
X194163Y251952D01*
X194156Y251971D01*
X194149Y251986D01*
X194141Y251997D01*
X194137Y252004D01*
Y252008D01*
X194086Y252078D01*
X194030Y252137D01*
X193967Y252189D01*
X193908Y252230D01*
X193856Y252263D01*
X193812Y252285D01*
X193793Y252293D01*
X193782Y252300D01*
X193775Y252304D01*
X193771D01*
X193675Y252333D01*
X193579Y252356D01*
X193482Y252374D01*
X193394Y252385D01*
X193353Y252389D01*
X193316Y252393D01*
X193283D01*
X193257Y252396D01*
X193235D01*
X193216D01*
X193205D01*
X193201D01*
X193105Y252393D01*
X193016Y252385D01*
X192935Y252370D01*
X192861Y252356D01*
X192798Y252344D01*
X192772Y252337D01*
X192750Y252330D01*
X192731Y252326D01*
X192720Y252322D01*
X192713Y252319D01*
X192709D01*
X192624Y252282D01*
X192546Y252241D01*
X192483Y252197D01*
X192428Y252148D01*
X192384Y252108D01*
X192354Y252074D01*
X192335Y252048D01*
X192328Y252045D01*
Y252041D01*
X192280Y251963D01*
X192243Y251878D01*
X192217Y251797D01*
X192202Y251719D01*
X192191Y251649D01*
X192188Y251619D01*
Y251593D01*
X192184Y251575D01*
Y251545D01*
X192188Y251453D01*
X192202Y251368D01*
X192225Y251297D01*
X192247Y251235D01*
X192273Y251186D01*
X192291Y251149D01*
X192306Y251127D01*
X192313Y251120D01*
X192369Y251061D01*
X192432Y251005D01*
X192498Y250961D01*
X192565Y250924D01*
X192624Y250894D01*
X192654Y250883D01*
X192676Y250876D01*
X192694Y250868D01*
X192709Y250861D01*
X192717Y250857D01*
X192720D01*
X192643Y250524D01*
X192576Y250546D01*
X192517Y250569D01*
X192461Y250598D01*
X192406Y250624D01*
X192358Y250654D01*
X192313Y250687D01*
X192269Y250716D01*
X192232Y250746D01*
X192202Y250776D01*
X192173Y250802D01*
X192147Y250828D01*
X192128Y250846D01*
X192110Y250865D01*
X192099Y250879D01*
X192095Y250887D01*
X192091Y250890D01*
X192058Y250942D01*
X192025Y250994D01*
X191999Y251046D01*
X191977Y251101D01*
X191943Y251212D01*
X191921Y251312D01*
X191910Y251360D01*
X191906Y251401D01*
X191903Y251442D01*
X191899Y251475D01*
X191895Y251501D01*
Y251538D01*
X191903Y251660D01*
X191921Y251778D01*
X191943Y251882D01*
X191958Y251930D01*
X191973Y251975D01*
X191988Y252015D01*
X192002Y252052D01*
X192014Y252082D01*
X192025Y252111D01*
X192036Y252130D01*
X192043Y252145D01*
X192047Y252156D01*
X192051Y252160D01*
X192113Y252259D01*
X192188Y252344D01*
X192262Y252418D01*
X192335Y252481D01*
X192402Y252530D01*
X192432Y252548D01*
X192458Y252563D01*
X192476Y252578D01*
X192491Y252585D01*
X192502Y252589D01*
X192506Y252592D01*
X192620Y252644D01*
X192739Y252681D01*
X192857Y252707D01*
X192964Y252726D01*
X193013Y252733D01*
X193061Y252737D01*
X193098Y252740D01*
X193135D01*
X193161Y252744D01*
X193183D01*
X193198D01*
X193201D01*
X193334Y252737D01*
D02*
G37*
G36*
X192853Y249895D02*
X192828Y249840D01*
X192802Y249784D01*
X192776Y249732D01*
X192754Y249688D01*
X192735Y249651D01*
X192720Y249629D01*
X192717Y249625D01*
Y249621D01*
X192676Y249555D01*
X192635Y249496D01*
X192598Y249444D01*
X192565Y249403D01*
X192539Y249366D01*
X192517Y249344D01*
X192502Y249325D01*
X192498Y249322D01*
X194500D01*
Y249007D01*
X191929D01*
Y249211D01*
X191991Y249248D01*
X192051Y249288D01*
X192110Y249336D01*
X192162Y249381D01*
X192206Y249425D01*
X192243Y249459D01*
X192254Y249473D01*
X192265Y249484D01*
X192269Y249488D01*
X192273Y249492D01*
X192335Y249570D01*
X192395Y249647D01*
X192446Y249721D01*
X192487Y249795D01*
X192524Y249858D01*
X192539Y249884D01*
X192550Y249906D01*
X192561Y249925D01*
X192565Y249939D01*
X192572Y249947D01*
Y249951D01*
X192876D01*
X192853Y249895D01*
D02*
G37*
G36*
X193823Y248200D02*
X193882Y248193D01*
X193938Y248182D01*
X193993Y248167D01*
X194086Y248130D01*
X194130Y248112D01*
X194167Y248090D01*
X194204Y248067D01*
X194234Y248049D01*
X194260Y248027D01*
X194282Y248012D01*
X194300Y247997D01*
X194311Y247986D01*
X194319Y247978D01*
X194322Y247975D01*
X194363Y247930D01*
X194396Y247882D01*
X194426Y247831D01*
X194452Y247779D01*
X194470Y247731D01*
X194489Y247679D01*
X194515Y247579D01*
X194526Y247534D01*
X194533Y247494D01*
X194537Y247457D01*
X194541Y247424D01*
X194544Y247398D01*
Y247361D01*
X194541Y247290D01*
X194533Y247227D01*
X194522Y247165D01*
X194511Y247105D01*
X194493Y247054D01*
X194474Y247002D01*
X194456Y246954D01*
X194433Y246913D01*
X194411Y246876D01*
X194393Y246843D01*
X194374Y246817D01*
X194356Y246791D01*
X194345Y246772D01*
X194334Y246761D01*
X194326Y246754D01*
X194322Y246750D01*
X194278Y246709D01*
X194234Y246672D01*
X194189Y246643D01*
X194141Y246617D01*
X194097Y246591D01*
X194049Y246572D01*
X193964Y246547D01*
X193923Y246535D01*
X193886Y246528D01*
X193852Y246524D01*
X193827Y246521D01*
X193804Y246517D01*
X193786D01*
X193775D01*
X193771D01*
X193686Y246521D01*
X193608Y246535D01*
X193538Y246558D01*
X193479Y246580D01*
X193431Y246602D01*
X193394Y246624D01*
X193371Y246639D01*
X193368Y246643D01*
X193364D01*
X193305Y246695D01*
X193253Y246750D01*
X193212Y246809D01*
X193175Y246865D01*
X193149Y246917D01*
X193131Y246961D01*
X193124Y246976D01*
X193120Y246987D01*
X193116Y246994D01*
Y246998D01*
X193087Y246931D01*
X193053Y246876D01*
X193020Y246828D01*
X192987Y246787D01*
X192957Y246758D01*
X192935Y246735D01*
X192920Y246721D01*
X192913Y246717D01*
X192861Y246684D01*
X192809Y246661D01*
X192757Y246643D01*
X192706Y246632D01*
X192665Y246624D01*
X192631Y246621D01*
X192609D01*
X192606D01*
X192602D01*
X192550Y246624D01*
X192502Y246628D01*
X192410Y246654D01*
X192328Y246687D01*
X192258Y246724D01*
X192202Y246761D01*
X192180Y246780D01*
X192158Y246795D01*
X192143Y246809D01*
X192132Y246820D01*
X192128Y246824D01*
X192125Y246828D01*
X192091Y246868D01*
X192058Y246909D01*
X192032Y246954D01*
X192010Y246998D01*
X191977Y247087D01*
X191954Y247176D01*
X191943Y247213D01*
X191940Y247250D01*
X191936Y247283D01*
X191932Y247312D01*
X191929Y247335D01*
Y247368D01*
X191932Y247427D01*
X191936Y247486D01*
X191958Y247590D01*
X191973Y247638D01*
X191988Y247682D01*
X192006Y247723D01*
X192025Y247760D01*
X192043Y247790D01*
X192062Y247819D01*
X192077Y247845D01*
X192091Y247864D01*
X192102Y247879D01*
X192113Y247890D01*
X192117Y247897D01*
X192121Y247901D01*
X192158Y247934D01*
X192195Y247967D01*
X192236Y247993D01*
X192276Y248015D01*
X192354Y248053D01*
X192428Y248075D01*
X192491Y248090D01*
X192520Y248093D01*
X192543Y248097D01*
X192565Y248101D01*
X192580D01*
X192587D01*
X192591D01*
X192657Y248097D01*
X192720Y248086D01*
X192776Y248071D01*
X192824Y248053D01*
X192861Y248038D01*
X192891Y248023D01*
X192905Y248012D01*
X192913Y248008D01*
X192957Y247967D01*
X192998Y247923D01*
X193035Y247875D01*
X193064Y247827D01*
X193087Y247782D01*
X193101Y247749D01*
X193109Y247734D01*
X193113Y247723D01*
X193116Y247720D01*
Y247716D01*
X193142Y247801D01*
X193175Y247871D01*
X193216Y247934D01*
X193253Y247986D01*
X193290Y248027D01*
X193320Y248056D01*
X193338Y248071D01*
X193342Y248078D01*
X193346D01*
X193412Y248119D01*
X193482Y248152D01*
X193549Y248175D01*
X193616Y248189D01*
X193675Y248197D01*
X193701Y248200D01*
X193723D01*
X193738Y248204D01*
X193753D01*
X193760D01*
X193764D01*
X193823Y248200D01*
D02*
G37*
G36*
X193334Y237615D02*
X193464Y237600D01*
X193579Y237581D01*
X193634Y237566D01*
X193682Y237555D01*
X193727Y237544D01*
X193767Y237529D01*
X193804Y237518D01*
X193834Y237511D01*
X193856Y237500D01*
X193875Y237496D01*
X193886Y237489D01*
X193889D01*
X194000Y237433D01*
X194100Y237370D01*
X194185Y237304D01*
X194219Y237270D01*
X194252Y237241D01*
X194282Y237211D01*
X194308Y237182D01*
X194330Y237156D01*
X194345Y237134D01*
X194359Y237119D01*
X194370Y237104D01*
X194374Y237097D01*
X194378Y237093D01*
X194407Y237041D01*
X194433Y236989D01*
X194474Y236878D01*
X194504Y236767D01*
X194522Y236660D01*
X194530Y236608D01*
X194537Y236564D01*
X194541Y236523D01*
Y236490D01*
X194544Y236460D01*
Y236420D01*
X194541Y236346D01*
X194533Y236275D01*
X194526Y236209D01*
X194511Y236146D01*
X194493Y236087D01*
X194474Y236031D01*
X194456Y235979D01*
X194433Y235931D01*
X194415Y235890D01*
X194396Y235850D01*
X194378Y235820D01*
X194359Y235790D01*
X194345Y235772D01*
X194337Y235753D01*
X194330Y235746D01*
X194326Y235742D01*
X194282Y235691D01*
X194237Y235646D01*
X194185Y235606D01*
X194134Y235565D01*
X194030Y235498D01*
X193927Y235446D01*
X193878Y235424D01*
X193834Y235406D01*
X193793Y235391D01*
X193760Y235380D01*
X193730Y235369D01*
X193708Y235361D01*
X193693Y235358D01*
X193690D01*
X193605Y235698D01*
X193664Y235713D01*
X193719Y235731D01*
X193771Y235750D01*
X193819Y235768D01*
X193864Y235790D01*
X193901Y235813D01*
X193938Y235839D01*
X193971Y235861D01*
X194000Y235879D01*
X194023Y235901D01*
X194045Y235920D01*
X194063Y235935D01*
X194074Y235950D01*
X194086Y235961D01*
X194089Y235964D01*
X194093Y235968D01*
X194123Y236005D01*
X194145Y236046D01*
X194185Y236127D01*
X194215Y236205D01*
X194234Y236283D01*
X194248Y236349D01*
X194252Y236375D01*
Y236401D01*
X194256Y236423D01*
Y236449D01*
X194252Y236534D01*
X194237Y236616D01*
X194219Y236690D01*
X194197Y236756D01*
X194174Y236808D01*
X194163Y236830D01*
X194156Y236849D01*
X194149Y236863D01*
X194141Y236875D01*
X194137Y236882D01*
Y236886D01*
X194086Y236956D01*
X194030Y237015D01*
X193967Y237067D01*
X193908Y237108D01*
X193856Y237141D01*
X193812Y237163D01*
X193793Y237171D01*
X193782Y237178D01*
X193775Y237182D01*
X193771D01*
X193675Y237211D01*
X193579Y237233D01*
X193482Y237252D01*
X193394Y237263D01*
X193353Y237267D01*
X193316Y237270D01*
X193283D01*
X193257Y237274D01*
X193235D01*
X193216D01*
X193205D01*
X193201D01*
X193105Y237270D01*
X193016Y237263D01*
X192935Y237248D01*
X192861Y237233D01*
X192798Y237222D01*
X192772Y237215D01*
X192750Y237208D01*
X192731Y237204D01*
X192720Y237200D01*
X192713Y237196D01*
X192709D01*
X192624Y237159D01*
X192546Y237119D01*
X192483Y237074D01*
X192428Y237026D01*
X192384Y236986D01*
X192354Y236952D01*
X192335Y236926D01*
X192328Y236923D01*
Y236919D01*
X192280Y236841D01*
X192243Y236756D01*
X192217Y236675D01*
X192202Y236597D01*
X192191Y236527D01*
X192188Y236497D01*
Y236471D01*
X192184Y236453D01*
Y236423D01*
X192188Y236331D01*
X192202Y236246D01*
X192225Y236175D01*
X192247Y236112D01*
X192273Y236064D01*
X192291Y236027D01*
X192306Y236005D01*
X192313Y235998D01*
X192369Y235939D01*
X192432Y235883D01*
X192498Y235839D01*
X192565Y235802D01*
X192624Y235772D01*
X192654Y235761D01*
X192676Y235753D01*
X192694Y235746D01*
X192709Y235739D01*
X192717Y235735D01*
X192720D01*
X192643Y235402D01*
X192576Y235424D01*
X192517Y235446D01*
X192461Y235476D01*
X192406Y235502D01*
X192358Y235531D01*
X192313Y235565D01*
X192269Y235594D01*
X192232Y235624D01*
X192202Y235654D01*
X192173Y235680D01*
X192147Y235705D01*
X192128Y235724D01*
X192110Y235742D01*
X192099Y235757D01*
X192095Y235765D01*
X192091Y235768D01*
X192058Y235820D01*
X192025Y235872D01*
X191999Y235924D01*
X191977Y235979D01*
X191943Y236090D01*
X191921Y236190D01*
X191910Y236238D01*
X191906Y236279D01*
X191903Y236320D01*
X191899Y236353D01*
X191895Y236379D01*
Y236416D01*
X191903Y236538D01*
X191921Y236656D01*
X191943Y236760D01*
X191958Y236808D01*
X191973Y236852D01*
X191988Y236893D01*
X192002Y236930D01*
X192014Y236960D01*
X192025Y236989D01*
X192036Y237008D01*
X192043Y237023D01*
X192047Y237034D01*
X192051Y237037D01*
X192113Y237137D01*
X192188Y237222D01*
X192262Y237296D01*
X192335Y237359D01*
X192402Y237407D01*
X192432Y237426D01*
X192458Y237441D01*
X192476Y237456D01*
X192491Y237463D01*
X192502Y237467D01*
X192506Y237470D01*
X192620Y237522D01*
X192739Y237559D01*
X192857Y237585D01*
X192964Y237603D01*
X193013Y237611D01*
X193061Y237615D01*
X193098Y237618D01*
X193135D01*
X193161Y237622D01*
X193183D01*
X193198D01*
X193201D01*
X193334Y237615D01*
D02*
G37*
G36*
X192853Y234773D02*
X192828Y234717D01*
X192802Y234662D01*
X192776Y234610D01*
X192754Y234566D01*
X192735Y234529D01*
X192720Y234507D01*
X192717Y234503D01*
Y234499D01*
X192676Y234433D01*
X192635Y234373D01*
X192598Y234322D01*
X192565Y234281D01*
X192539Y234244D01*
X192517Y234222D01*
X192502Y234203D01*
X192498Y234200D01*
X194500D01*
Y233885D01*
X191929D01*
Y234088D01*
X191991Y234125D01*
X192051Y234166D01*
X192110Y234214D01*
X192162Y234259D01*
X192206Y234303D01*
X192243Y234336D01*
X192254Y234351D01*
X192265Y234362D01*
X192269Y234366D01*
X192273Y234370D01*
X192335Y234447D01*
X192395Y234525D01*
X192446Y234599D01*
X192487Y234673D01*
X192524Y234736D01*
X192539Y234762D01*
X192550Y234784D01*
X192561Y234803D01*
X192565Y234817D01*
X192572Y234825D01*
Y234828D01*
X192876D01*
X192853Y234773D01*
D02*
G37*
G36*
X192276Y231802D02*
X192384Y231891D01*
X192498Y231976D01*
X192609Y232050D01*
X192717Y232120D01*
X192765Y232150D01*
X192809Y232176D01*
X192850Y232202D01*
X192883Y232220D01*
X192913Y232235D01*
X192931Y232246D01*
X192946Y232253D01*
X192950Y232257D01*
X193098Y232331D01*
X193246Y232398D01*
X193386Y232453D01*
X193449Y232475D01*
X193512Y232498D01*
X193568Y232520D01*
X193619Y232535D01*
X193664Y232549D01*
X193701Y232560D01*
X193734Y232572D01*
X193756Y232579D01*
X193771Y232583D01*
X193775D01*
X193927Y232620D01*
X194000Y232634D01*
X194067Y232646D01*
X194130Y232657D01*
X194193Y232668D01*
X194245Y232675D01*
X194297Y232682D01*
X194341Y232686D01*
X194382Y232690D01*
X194419Y232694D01*
X194448D01*
X194470Y232697D01*
X194485D01*
X194496D01*
X194500D01*
Y232375D01*
X194359Y232364D01*
X194230Y232346D01*
X194112Y232327D01*
X194056Y232316D01*
X194004Y232305D01*
X193960Y232298D01*
X193919Y232287D01*
X193882Y232279D01*
X193852Y232272D01*
X193830Y232264D01*
X193812Y232261D01*
X193801Y232257D01*
X193797D01*
X193627Y232202D01*
X193468Y232142D01*
X193390Y232113D01*
X193316Y232083D01*
X193249Y232050D01*
X193183Y232020D01*
X193124Y231994D01*
X193072Y231968D01*
X193027Y231946D01*
X192987Y231928D01*
X192953Y231909D01*
X192931Y231898D01*
X192916Y231891D01*
X192913Y231887D01*
X192835Y231843D01*
X192757Y231798D01*
X192687Y231754D01*
X192620Y231709D01*
X192561Y231669D01*
X192502Y231628D01*
X192450Y231587D01*
X192406Y231554D01*
X192361Y231521D01*
X192324Y231491D01*
X192295Y231462D01*
X192269Y231439D01*
X192247Y231424D01*
X192232Y231410D01*
X192225Y231402D01*
X192221Y231399D01*
X191973D01*
Y233056D01*
X192276D01*
Y231802D01*
D02*
G37*
G36*
X151344Y240890D02*
X151425Y240875D01*
X151495Y240853D01*
X151555Y240831D01*
X151603Y240809D01*
X151640Y240786D01*
X151662Y240772D01*
X151669Y240768D01*
X151725Y240716D01*
X151773Y240661D01*
X151810Y240601D01*
X151839Y240542D01*
X151862Y240490D01*
X151876Y240450D01*
X151880Y240435D01*
X151884Y240424D01*
X151888Y240416D01*
Y240413D01*
X151921Y240476D01*
X151954Y240527D01*
X151991Y240572D01*
X152024Y240609D01*
X152054Y240638D01*
X152080Y240661D01*
X152095Y240672D01*
X152102Y240675D01*
X152154Y240705D01*
X152206Y240727D01*
X152258Y240746D01*
X152306Y240757D01*
X152346Y240764D01*
X152376Y240768D01*
X152398D01*
X152406D01*
X152468Y240764D01*
X152531Y240753D01*
X152587Y240738D01*
X152635Y240720D01*
X152676Y240701D01*
X152709Y240686D01*
X152727Y240675D01*
X152735Y240672D01*
X152790Y240635D01*
X152838Y240590D01*
X152879Y240546D01*
X152916Y240501D01*
X152942Y240464D01*
X152964Y240431D01*
X152975Y240409D01*
X152979Y240405D01*
Y240402D01*
X153009Y240335D01*
X153031Y240268D01*
X153049Y240202D01*
X153060Y240142D01*
X153068Y240094D01*
X153071Y240054D01*
Y239961D01*
X153064Y239909D01*
X153046Y239809D01*
X153016Y239724D01*
X152986Y239650D01*
X152968Y239617D01*
X152953Y239591D01*
X152938Y239565D01*
X152924Y239547D01*
X152912Y239532D01*
X152905Y239521D01*
X152901Y239513D01*
X152898Y239510D01*
X152827Y239440D01*
X152750Y239384D01*
X152668Y239340D01*
X152587Y239303D01*
X152516Y239280D01*
X152487Y239269D01*
X152461Y239262D01*
X152439Y239258D01*
X152424Y239254D01*
X152413Y239251D01*
X152409D01*
X152354Y239565D01*
X152435Y239580D01*
X152505Y239602D01*
X152565Y239628D01*
X152613Y239654D01*
X152650Y239680D01*
X152676Y239702D01*
X152694Y239717D01*
X152698Y239721D01*
X152735Y239769D01*
X152764Y239821D01*
X152783Y239869D01*
X152798Y239917D01*
X152805Y239961D01*
X152813Y239995D01*
Y240024D01*
X152809Y240091D01*
X152794Y240150D01*
X152776Y240202D01*
X152757Y240246D01*
X152735Y240279D01*
X152716Y240305D01*
X152701Y240324D01*
X152698Y240328D01*
X152653Y240368D01*
X152605Y240398D01*
X152557Y240416D01*
X152513Y240431D01*
X152472Y240439D01*
X152443Y240446D01*
X152420D01*
X152417D01*
X152413D01*
X152372D01*
X152335Y240439D01*
X152272Y240420D01*
X152217Y240394D01*
X152169Y240365D01*
X152135Y240335D01*
X152110Y240309D01*
X152095Y240290D01*
X152091Y240287D01*
Y240283D01*
X152058Y240220D01*
X152032Y240161D01*
X152013Y240098D01*
X152002Y240043D01*
X151995Y239995D01*
X151987Y239954D01*
Y239906D01*
X151991Y239891D01*
Y239872D01*
X151714Y239835D01*
X151725Y239883D01*
X151732Y239928D01*
X151740Y239965D01*
X151743Y239998D01*
X151747Y240024D01*
Y240057D01*
X151740Y240135D01*
X151725Y240205D01*
X151702Y240268D01*
X151677Y240320D01*
X151651Y240361D01*
X151628Y240390D01*
X151614Y240409D01*
X151606Y240416D01*
X151551Y240464D01*
X151492Y240501D01*
X151432Y240527D01*
X151373Y240542D01*
X151325Y240553D01*
X151284Y240557D01*
X151270Y240561D01*
X151259D01*
X151251D01*
X151247D01*
X151166Y240553D01*
X151092Y240535D01*
X151029Y240512D01*
X150974Y240483D01*
X150929Y240453D01*
X150896Y240431D01*
X150874Y240413D01*
X150866Y240405D01*
X150814Y240346D01*
X150777Y240283D01*
X150752Y240220D01*
X150733Y240161D01*
X150722Y240109D01*
X150718Y240069D01*
X150715Y240054D01*
Y240032D01*
X150718Y239965D01*
X150733Y239902D01*
X150752Y239846D01*
X150774Y239802D01*
X150792Y239765D01*
X150811Y239736D01*
X150826Y239721D01*
X150829Y239713D01*
X150881Y239669D01*
X150940Y239632D01*
X151003Y239599D01*
X151070Y239573D01*
X151125Y239554D01*
X151151Y239547D01*
X151173Y239543D01*
X151192Y239539D01*
X151207Y239536D01*
X151214Y239532D01*
X151218D01*
X151177Y239217D01*
X151118Y239225D01*
X151062Y239236D01*
X150959Y239269D01*
X150870Y239310D01*
X150833Y239332D01*
X150796Y239354D01*
X150763Y239377D01*
X150737Y239399D01*
X150711Y239417D01*
X150692Y239436D01*
X150678Y239447D01*
X150666Y239458D01*
X150659Y239465D01*
X150655Y239469D01*
X150622Y239513D01*
X150589Y239558D01*
X150563Y239602D01*
X150541Y239650D01*
X150504Y239743D01*
X150481Y239832D01*
X150474Y239872D01*
X150467Y239909D01*
X150463Y239943D01*
X150459Y239972D01*
X150456Y239995D01*
Y240028D01*
X150459Y240098D01*
X150467Y240161D01*
X150478Y240224D01*
X150493Y240283D01*
X150511Y240339D01*
X150530Y240387D01*
X150552Y240435D01*
X150574Y240476D01*
X150593Y240516D01*
X150615Y240549D01*
X150633Y240579D01*
X150652Y240601D01*
X150666Y240620D01*
X150678Y240635D01*
X150685Y240642D01*
X150689Y240646D01*
X150733Y240690D01*
X150781Y240727D01*
X150829Y240760D01*
X150877Y240790D01*
X150922Y240812D01*
X150970Y240834D01*
X151059Y240864D01*
X151099Y240871D01*
X151136Y240879D01*
X151170Y240886D01*
X151199Y240890D01*
X151222Y240894D01*
X151240D01*
X151251D01*
X151255D01*
X151344Y240890D01*
D02*
G37*
G36*
X153060Y238489D02*
X152143D01*
X152183Y238455D01*
X152217Y238418D01*
X152250Y238385D01*
X152276Y238348D01*
X152295Y238318D01*
X152313Y238296D01*
X152320Y238281D01*
X152324Y238274D01*
X152350Y238226D01*
X152368Y238174D01*
X152380Y238122D01*
X152391Y238074D01*
X152394Y238034D01*
X152398Y238004D01*
Y237974D01*
X152394Y237893D01*
X152380Y237815D01*
X152361Y237745D01*
X152339Y237686D01*
X152313Y237634D01*
X152295Y237597D01*
X152287Y237582D01*
X152280Y237571D01*
X152276Y237567D01*
Y237564D01*
X152228Y237497D01*
X152169Y237441D01*
X152113Y237393D01*
X152058Y237356D01*
X152006Y237327D01*
X151965Y237305D01*
X151950Y237297D01*
X151939Y237290D01*
X151932Y237286D01*
X151928D01*
X151843Y237257D01*
X151754Y237234D01*
X151669Y237216D01*
X151592Y237205D01*
X151525Y237197D01*
X151495D01*
X151473Y237194D01*
X151451D01*
X151436D01*
X151429D01*
X151425D01*
X151321Y237197D01*
X151225Y237208D01*
X151140Y237227D01*
X151066Y237245D01*
X151033Y237253D01*
X151007Y237260D01*
X150981Y237271D01*
X150959Y237279D01*
X150944Y237286D01*
X150933Y237290D01*
X150926Y237294D01*
X150922D01*
X150844Y237334D01*
X150777Y237382D01*
X150718Y237430D01*
X150670Y237478D01*
X150633Y237519D01*
X150604Y237552D01*
X150589Y237575D01*
X150581Y237578D01*
Y237582D01*
X150541Y237652D01*
X150511Y237723D01*
X150489Y237793D01*
X150474Y237856D01*
X150467Y237908D01*
X150463Y237952D01*
X150459Y237967D01*
Y237989D01*
X150463Y238052D01*
X150470Y238111D01*
X150485Y238167D01*
X150504Y238215D01*
X150522Y238263D01*
X150544Y238307D01*
X150570Y238344D01*
X150596Y238378D01*
X150622Y238411D01*
X150648Y238437D01*
X150670Y238459D01*
X150689Y238477D01*
X150707Y238492D01*
X150722Y238503D01*
X150729Y238507D01*
X150733Y238511D01*
X150500D01*
Y238803D01*
X153060D01*
Y238489D01*
D02*
G37*
G36*
X152328Y237060D02*
X152354Y237001D01*
X152372Y236949D01*
X152387Y236901D01*
X152394Y236861D01*
X152398Y236827D01*
Y236801D01*
X152394Y236761D01*
X152387Y236724D01*
X152376Y236687D01*
X152365Y236657D01*
X152354Y236635D01*
X152343Y236613D01*
X152335Y236602D01*
X152331Y236598D01*
X152302Y236565D01*
X152265Y236531D01*
X152220Y236498D01*
X152180Y236468D01*
X152139Y236439D01*
X152106Y236420D01*
X152080Y236405D01*
X152076Y236402D01*
X152357D01*
Y236117D01*
X150500D01*
Y236431D01*
X151469D01*
X151543Y236435D01*
X151610Y236439D01*
X151673Y236446D01*
X151728Y236457D01*
X151773Y236468D01*
X151806Y236476D01*
X151828Y236479D01*
X151836Y236483D01*
X151876Y236498D01*
X151910Y236516D01*
X151939Y236535D01*
X151965Y236554D01*
X151984Y236572D01*
X151998Y236583D01*
X152006Y236594D01*
X152010Y236598D01*
X152032Y236628D01*
X152047Y236661D01*
X152058Y236694D01*
X152065Y236720D01*
X152069Y236746D01*
X152073Y236764D01*
Y236783D01*
X152069Y236824D01*
X152061Y236864D01*
X152050Y236905D01*
X152039Y236938D01*
X152028Y236968D01*
X152017Y236990D01*
X152010Y237005D01*
X152006Y237009D01*
X152295Y237123D01*
X152328Y237060D01*
D02*
G37*
G36*
X150541Y235714D02*
X150581Y235695D01*
X150618Y235680D01*
X150652Y235673D01*
X150681Y235662D01*
X150704Y235658D01*
X150718Y235654D01*
X150722D01*
X150748Y235651D01*
X150781Y235647D01*
X150818D01*
X150859Y235643D01*
X150951Y235640D01*
X151044D01*
X151133Y235636D01*
X151173D01*
X151207D01*
X151236D01*
X151259D01*
X151273D01*
X151277D01*
X151699D01*
X151769D01*
X151832Y235632D01*
X151880Y235629D01*
X151921D01*
X151950Y235625D01*
X151973Y235621D01*
X151984Y235617D01*
X151987D01*
X152035Y235606D01*
X152076Y235592D01*
X152110Y235577D01*
X152143Y235558D01*
X152165Y235543D01*
X152183Y235532D01*
X152195Y235525D01*
X152198Y235521D01*
X152228Y235492D01*
X152258Y235458D01*
X152280Y235421D01*
X152302Y235384D01*
X152317Y235351D01*
X152328Y235325D01*
X152335Y235307D01*
X152339Y235299D01*
X152357Y235240D01*
X152372Y235177D01*
X152383Y235114D01*
X152391Y235051D01*
X152394Y234996D01*
X152398Y234955D01*
Y234914D01*
X152394Y234826D01*
X152387Y234748D01*
X152376Y234674D01*
X152365Y234615D01*
X152354Y234563D01*
X152343Y234526D01*
X152339Y234511D01*
X152335Y234500D01*
X152331Y234496D01*
Y234493D01*
X152306Y234430D01*
X152272Y234374D01*
X152243Y234326D01*
X152213Y234285D01*
X152183Y234256D01*
X152161Y234234D01*
X152146Y234219D01*
X152143Y234215D01*
X152095Y234182D01*
X152043Y234152D01*
X151991Y234130D01*
X151943Y234111D01*
X151895Y234097D01*
X151862Y234086D01*
X151847Y234082D01*
X151836D01*
X151832Y234078D01*
X151828D01*
X151788Y234385D01*
X151854Y234407D01*
X151913Y234430D01*
X151962Y234456D01*
X151998Y234478D01*
X152028Y234500D01*
X152047Y234519D01*
X152058Y234533D01*
X152061Y234537D01*
X152087Y234581D01*
X152106Y234633D01*
X152121Y234689D01*
X152128Y234740D01*
X152135Y234792D01*
X152139Y234829D01*
Y234866D01*
X152135Y234951D01*
X152124Y235025D01*
X152106Y235085D01*
X152087Y235136D01*
X152065Y235173D01*
X152050Y235203D01*
X152035Y235222D01*
X152032Y235225D01*
X151998Y235255D01*
X151958Y235277D01*
X151913Y235296D01*
X151869Y235307D01*
X151828Y235314D01*
X151791Y235318D01*
X151769D01*
X151765D01*
X151762D01*
X151754D01*
X151740D01*
X151714D01*
X151691Y235314D01*
X151684D01*
X151680D01*
X151669Y235277D01*
X151658Y235236D01*
X151636Y235151D01*
X151617Y235055D01*
X151599Y234966D01*
X151592Y234922D01*
X151588Y234881D01*
X151580Y234844D01*
X151577Y234815D01*
X151573Y234789D01*
Y234770D01*
X151569Y234755D01*
Y234752D01*
X151562Y234685D01*
X151551Y234630D01*
X151543Y234581D01*
X151536Y234544D01*
X151532Y234515D01*
X151525Y234493D01*
X151521Y234478D01*
Y234474D01*
X151506Y234426D01*
X151492Y234385D01*
X151473Y234345D01*
X151458Y234311D01*
X151444Y234282D01*
X151429Y234263D01*
X151421Y234248D01*
X151418Y234245D01*
X151392Y234208D01*
X151362Y234178D01*
X151332Y234149D01*
X151303Y234126D01*
X151277Y234108D01*
X151255Y234093D01*
X151240Y234086D01*
X151236Y234082D01*
X151196Y234063D01*
X151151Y234049D01*
X151110Y234037D01*
X151070Y234030D01*
X151037Y234026D01*
X151011Y234023D01*
X150996D01*
X150988D01*
X150944Y234026D01*
X150907Y234030D01*
X150829Y234049D01*
X150766Y234074D01*
X150711Y234104D01*
X150666Y234134D01*
X150633Y234160D01*
X150615Y234178D01*
X150607Y234186D01*
X150559Y234252D01*
X150522Y234326D01*
X150496Y234407D01*
X150478Y234482D01*
X150467Y234548D01*
X150463Y234578D01*
Y234604D01*
X150459Y234626D01*
Y234655D01*
X150463Y234722D01*
X150470Y234789D01*
X150478Y234848D01*
X150489Y234900D01*
X150500Y234940D01*
X150511Y234974D01*
X150515Y234996D01*
X150519Y235003D01*
X150544Y235066D01*
X150578Y235125D01*
X150615Y235181D01*
X150648Y235236D01*
X150681Y235281D01*
X150707Y235314D01*
X150726Y235336D01*
X150733Y235340D01*
Y235344D01*
X150685Y235351D01*
X150641Y235358D01*
X150600Y235366D01*
X150567Y235377D01*
X150537Y235388D01*
X150519Y235395D01*
X150504Y235399D01*
X150500Y235403D01*
Y235732D01*
X150541Y235714D01*
D02*
G37*
G36*
X151395Y233412D02*
X151336Y233397D01*
X151281Y233379D01*
X151229Y233360D01*
X151181Y233342D01*
X151136Y233320D01*
X151099Y233297D01*
X151062Y233272D01*
X151029Y233249D01*
X150999Y233231D01*
X150977Y233209D01*
X150955Y233190D01*
X150937Y233175D01*
X150926Y233161D01*
X150914Y233150D01*
X150911Y233146D01*
X150907Y233142D01*
X150877Y233105D01*
X150855Y233064D01*
X150814Y232983D01*
X150785Y232905D01*
X150766Y232828D01*
X150752Y232761D01*
X150748Y232735D01*
Y232709D01*
X150744Y232687D01*
Y232661D01*
X150748Y232576D01*
X150763Y232495D01*
X150781Y232421D01*
X150803Y232354D01*
X150826Y232302D01*
X150837Y232280D01*
X150844Y232261D01*
X150852Y232247D01*
X150859Y232236D01*
X150863Y232228D01*
Y232224D01*
X150914Y232154D01*
X150970Y232095D01*
X151033Y232043D01*
X151092Y232002D01*
X151144Y231969D01*
X151188Y231947D01*
X151207Y231940D01*
X151218Y231932D01*
X151225Y231928D01*
X151229D01*
X151325Y231899D01*
X151421Y231877D01*
X151517Y231858D01*
X151606Y231847D01*
X151647Y231843D01*
X151684Y231840D01*
X151717D01*
X151743Y231836D01*
X151765D01*
X151784D01*
X151795D01*
X151799D01*
X151895Y231840D01*
X151984Y231847D01*
X152065Y231862D01*
X152139Y231877D01*
X152202Y231888D01*
X152228Y231895D01*
X152250Y231903D01*
X152269Y231906D01*
X152280Y231910D01*
X152287Y231914D01*
X152291D01*
X152376Y231951D01*
X152454Y231991D01*
X152516Y232036D01*
X152572Y232084D01*
X152616Y232125D01*
X152646Y232158D01*
X152664Y232184D01*
X152672Y232188D01*
Y232191D01*
X152720Y232269D01*
X152757Y232354D01*
X152783Y232435D01*
X152798Y232513D01*
X152809Y232583D01*
X152813Y232613D01*
Y232639D01*
X152816Y232657D01*
Y232687D01*
X152813Y232780D01*
X152798Y232865D01*
X152776Y232935D01*
X152753Y232998D01*
X152727Y233046D01*
X152709Y233083D01*
X152694Y233105D01*
X152687Y233113D01*
X152631Y233172D01*
X152568Y233227D01*
X152502Y233272D01*
X152435Y233309D01*
X152376Y233338D01*
X152346Y233349D01*
X152324Y233357D01*
X152306Y233364D01*
X152291Y233371D01*
X152283Y233375D01*
X152280D01*
X152357Y233708D01*
X152424Y233686D01*
X152483Y233664D01*
X152539Y233634D01*
X152594Y233608D01*
X152642Y233579D01*
X152687Y233545D01*
X152731Y233516D01*
X152768Y233486D01*
X152798Y233457D01*
X152827Y233431D01*
X152853Y233405D01*
X152872Y233386D01*
X152890Y233368D01*
X152901Y233353D01*
X152905Y233346D01*
X152909Y233342D01*
X152942Y233290D01*
X152975Y233238D01*
X153001Y233187D01*
X153023Y233131D01*
X153057Y233020D01*
X153079Y232920D01*
X153090Y232872D01*
X153094Y232831D01*
X153097Y232791D01*
X153101Y232757D01*
X153105Y232731D01*
Y232694D01*
X153097Y232572D01*
X153079Y232454D01*
X153057Y232350D01*
X153042Y232302D01*
X153027Y232258D01*
X153012Y232217D01*
X152998Y232180D01*
X152986Y232151D01*
X152975Y232121D01*
X152964Y232102D01*
X152957Y232088D01*
X152953Y232077D01*
X152949Y232073D01*
X152886Y231973D01*
X152813Y231888D01*
X152738Y231814D01*
X152664Y231751D01*
X152598Y231703D01*
X152568Y231684D01*
X152542Y231669D01*
X152524Y231655D01*
X152509Y231647D01*
X152498Y231644D01*
X152494Y231640D01*
X152380Y231588D01*
X152261Y231551D01*
X152143Y231525D01*
X152035Y231507D01*
X151987Y231499D01*
X151939Y231496D01*
X151902Y231492D01*
X151865D01*
X151839Y231488D01*
X151817D01*
X151802D01*
X151799D01*
X151665Y231496D01*
X151536Y231510D01*
X151421Y231529D01*
X151366Y231544D01*
X151318Y231555D01*
X151273Y231566D01*
X151233Y231581D01*
X151196Y231592D01*
X151166Y231599D01*
X151144Y231610D01*
X151125Y231614D01*
X151114Y231621D01*
X151110D01*
X150999Y231677D01*
X150900Y231740D01*
X150814Y231806D01*
X150781Y231840D01*
X150748Y231869D01*
X150718Y231899D01*
X150692Y231928D01*
X150670Y231954D01*
X150655Y231977D01*
X150641Y231991D01*
X150629Y232006D01*
X150626Y232014D01*
X150622Y232017D01*
X150593Y232069D01*
X150567Y232121D01*
X150526Y232232D01*
X150496Y232343D01*
X150478Y232450D01*
X150470Y232502D01*
X150463Y232546D01*
X150459Y232587D01*
Y232620D01*
X150456Y232650D01*
Y232691D01*
X150459Y232765D01*
X150467Y232835D01*
X150474Y232902D01*
X150489Y232964D01*
X150507Y233024D01*
X150526Y233079D01*
X150544Y233131D01*
X150567Y233179D01*
X150585Y233220D01*
X150604Y233260D01*
X150622Y233290D01*
X150641Y233320D01*
X150655Y233338D01*
X150663Y233357D01*
X150670Y233364D01*
X150674Y233368D01*
X150718Y233420D01*
X150763Y233464D01*
X150814Y233505D01*
X150866Y233545D01*
X150970Y233612D01*
X151074Y233664D01*
X151122Y233686D01*
X151166Y233704D01*
X151207Y233719D01*
X151240Y233730D01*
X151270Y233741D01*
X151292Y233749D01*
X151307Y233753D01*
X151310D01*
X151395Y233412D01*
D02*
G37*
G36*
X135303Y242237D02*
X135366Y242282D01*
X135392Y242304D01*
X135418Y242322D01*
X135440Y242341D01*
X135455Y242356D01*
X135466Y242367D01*
X135470Y242371D01*
X135488Y242389D01*
X135507Y242411D01*
X135555Y242463D01*
X135610Y242522D01*
X135666Y242585D01*
X135714Y242644D01*
X135736Y242670D01*
X135758Y242692D01*
X135773Y242711D01*
X135784Y242726D01*
X135792Y242733D01*
X135795Y242737D01*
X135847Y242796D01*
X135895Y242855D01*
X135943Y242907D01*
X135984Y242955D01*
X136025Y243000D01*
X136062Y243037D01*
X136095Y243074D01*
X136125Y243103D01*
X136154Y243133D01*
X136177Y243155D01*
X136195Y243174D01*
X136214Y243192D01*
X136236Y243211D01*
X136243Y243218D01*
X136306Y243270D01*
X136362Y243314D01*
X136417Y243351D01*
X136461Y243381D01*
X136502Y243403D01*
X136532Y243418D01*
X136550Y243425D01*
X136558Y243429D01*
X136613Y243451D01*
X136669Y243466D01*
X136721Y243481D01*
X136765Y243488D01*
X136806Y243492D01*
X136835Y243495D01*
X136854D01*
X136861D01*
X136917Y243492D01*
X136968Y243484D01*
X137020Y243477D01*
X137065Y243462D01*
X137153Y243425D01*
X137224Y243388D01*
X137257Y243366D01*
X137283Y243347D01*
X137309Y243329D01*
X137327Y243310D01*
X137342Y243296D01*
X137357Y243288D01*
X137361Y243281D01*
X137364Y243277D01*
X137401Y243236D01*
X137435Y243192D01*
X137460Y243144D01*
X137483Y243096D01*
X137520Y243000D01*
X137546Y242903D01*
X137553Y242863D01*
X137560Y242822D01*
X137564Y242785D01*
X137568Y242755D01*
X137572Y242729D01*
Y242692D01*
X137568Y242626D01*
X137564Y242563D01*
X137553Y242504D01*
X137542Y242448D01*
X137527Y242396D01*
X137512Y242348D01*
X137494Y242304D01*
X137475Y242263D01*
X137457Y242226D01*
X137438Y242197D01*
X137424Y242171D01*
X137409Y242149D01*
X137398Y242130D01*
X137387Y242119D01*
X137383Y242112D01*
X137379Y242108D01*
X137342Y242071D01*
X137301Y242038D01*
X137257Y242004D01*
X137213Y241978D01*
X137124Y241934D01*
X137035Y241904D01*
X136994Y241893D01*
X136954Y241882D01*
X136920Y241875D01*
X136891Y241867D01*
X136865Y241864D01*
X136846D01*
X136835Y241860D01*
X136831D01*
X136798Y242182D01*
X136883Y242189D01*
X136957Y242204D01*
X137024Y242226D01*
X137076Y242252D01*
X137120Y242274D01*
X137150Y242297D01*
X137168Y242311D01*
X137176Y242319D01*
X137220Y242374D01*
X137253Y242434D01*
X137279Y242496D01*
X137294Y242552D01*
X137305Y242604D01*
X137309Y242648D01*
X137312Y242663D01*
Y242685D01*
X137309Y242763D01*
X137294Y242833D01*
X137272Y242892D01*
X137250Y242944D01*
X137224Y242985D01*
X137205Y243011D01*
X137190Y243029D01*
X137183Y243037D01*
X137131Y243081D01*
X137079Y243114D01*
X137028Y243140D01*
X136976Y243155D01*
X136935Y243166D01*
X136898Y243170D01*
X136876Y243174D01*
X136872D01*
X136869D01*
X136802Y243166D01*
X136732Y243151D01*
X136669Y243125D01*
X136609Y243099D01*
X136561Y243070D01*
X136521Y243044D01*
X136506Y243037D01*
X136495Y243029D01*
X136491Y243022D01*
X136487D01*
X136447Y242992D01*
X136406Y242955D01*
X136362Y242915D01*
X136317Y242870D01*
X136228Y242778D01*
X136140Y242685D01*
X136099Y242637D01*
X136062Y242596D01*
X136029Y242556D01*
X135999Y242522D01*
X135977Y242496D01*
X135958Y242474D01*
X135947Y242459D01*
X135943Y242456D01*
X135866Y242363D01*
X135792Y242278D01*
X135725Y242208D01*
X135670Y242152D01*
X135622Y242104D01*
X135588Y242071D01*
X135566Y242052D01*
X135562Y242045D01*
X135559D01*
X135496Y241993D01*
X135437Y241952D01*
X135377Y241915D01*
X135326Y241886D01*
X135281Y241864D01*
X135248Y241849D01*
X135226Y241842D01*
X135222Y241838D01*
X135218D01*
X135178Y241823D01*
X135141Y241816D01*
X135104Y241808D01*
X135070Y241805D01*
X135041Y241801D01*
X135019D01*
X135004D01*
X135000D01*
Y243499D01*
X135303D01*
Y242237D01*
D02*
G37*
G36*
X137560Y241068D02*
X136080D01*
X135995D01*
X135914Y241061D01*
X135844Y241053D01*
X135777Y241042D01*
X135718Y241031D01*
X135662Y241016D01*
X135614Y241005D01*
X135573Y240990D01*
X135540Y240976D01*
X135507Y240961D01*
X135485Y240946D01*
X135462Y240935D01*
X135448Y240924D01*
X135437Y240916D01*
X135433Y240913D01*
X135429Y240909D01*
X135400Y240876D01*
X135374Y240839D01*
X135333Y240757D01*
X135303Y240672D01*
X135285Y240583D01*
X135270Y240502D01*
X135266Y240469D01*
Y240436D01*
X135263Y240413D01*
Y240376D01*
X135266Y240299D01*
X135277Y240228D01*
X135289Y240162D01*
X135307Y240110D01*
X135322Y240066D01*
X135333Y240032D01*
X135344Y240014D01*
X135348Y240006D01*
X135381Y239954D01*
X135422Y239910D01*
X135462Y239873D01*
X135500Y239847D01*
X135537Y239825D01*
X135562Y239807D01*
X135581Y239799D01*
X135588Y239795D01*
X135622Y239784D01*
X135655Y239777D01*
X135733Y239762D01*
X135814Y239751D01*
X135895Y239744D01*
X135966Y239740D01*
X135999D01*
X136025Y239736D01*
X136047D01*
X136066D01*
X136077D01*
X136080D01*
X137560D01*
Y239396D01*
X136080D01*
X136006D01*
X135936Y239400D01*
X135870Y239403D01*
X135807Y239411D01*
X135751Y239418D01*
X135699Y239425D01*
X135651Y239437D01*
X135607Y239444D01*
X135566Y239451D01*
X135533Y239462D01*
X135503Y239470D01*
X135481Y239477D01*
X135462Y239485D01*
X135448Y239488D01*
X135440Y239492D01*
X135437D01*
X135355Y239533D01*
X135281Y239584D01*
X135222Y239636D01*
X135170Y239692D01*
X135129Y239740D01*
X135100Y239781D01*
X135092Y239795D01*
X135085Y239807D01*
X135078Y239814D01*
Y239818D01*
X135037Y239910D01*
X135007Y240006D01*
X134985Y240106D01*
X134970Y240199D01*
X134967Y240239D01*
X134963Y240280D01*
X134959Y240317D01*
Y240347D01*
X134956Y240373D01*
Y240406D01*
X134963Y240539D01*
X134970Y240598D01*
X134978Y240654D01*
X134989Y240709D01*
X135000Y240757D01*
X135011Y240802D01*
X135026Y240843D01*
X135041Y240880D01*
X135052Y240909D01*
X135063Y240939D01*
X135074Y240961D01*
X135085Y240979D01*
X135089Y240990D01*
X135096Y240998D01*
Y241002D01*
X135152Y241083D01*
X135215Y241150D01*
X135274Y241201D01*
X135333Y241246D01*
X135385Y241279D01*
X135425Y241301D01*
X135440Y241309D01*
X135451Y241316D01*
X135459Y241320D01*
X135462D01*
X135507Y241335D01*
X135555Y241349D01*
X135655Y241372D01*
X135758Y241386D01*
X135858Y241398D01*
X135903Y241401D01*
X135947Y241405D01*
X135984D01*
X136018Y241409D01*
X136043D01*
X136062D01*
X136077D01*
X136080D01*
X137560D01*
Y241068D01*
D02*
G37*
G36*
X115426Y265045D02*
X115488Y265089D01*
X115514Y265112D01*
X115540Y265130D01*
X115562Y265149D01*
X115577Y265163D01*
X115588Y265175D01*
X115592Y265178D01*
X115610Y265197D01*
X115629Y265219D01*
X115677Y265271D01*
X115733Y265330D01*
X115788Y265393D01*
X115836Y265452D01*
X115858Y265478D01*
X115881Y265500D01*
X115895Y265519D01*
X115906Y265533D01*
X115914Y265541D01*
X115918Y265545D01*
X115969Y265604D01*
X116017Y265663D01*
X116066Y265715D01*
X116106Y265763D01*
X116147Y265807D01*
X116184Y265844D01*
X116217Y265881D01*
X116247Y265911D01*
X116276Y265940D01*
X116299Y265963D01*
X116317Y265981D01*
X116336Y266000D01*
X116358Y266018D01*
X116365Y266025D01*
X116428Y266077D01*
X116484Y266122D01*
X116539Y266159D01*
X116584Y266188D01*
X116624Y266211D01*
X116654Y266225D01*
X116672Y266233D01*
X116680Y266236D01*
X116735Y266259D01*
X116791Y266273D01*
X116843Y266288D01*
X116887Y266296D01*
X116928Y266299D01*
X116957Y266303D01*
X116976D01*
X116983D01*
X117039Y266299D01*
X117090Y266292D01*
X117142Y266284D01*
X117187Y266270D01*
X117276Y266233D01*
X117346Y266196D01*
X117379Y266174D01*
X117405Y266155D01*
X117431Y266137D01*
X117449Y266118D01*
X117464Y266103D01*
X117479Y266096D01*
X117483Y266088D01*
X117486Y266085D01*
X117523Y266044D01*
X117557Y266000D01*
X117582Y265951D01*
X117605Y265903D01*
X117642Y265807D01*
X117668Y265711D01*
X117675Y265670D01*
X117682Y265630D01*
X117686Y265593D01*
X117690Y265563D01*
X117694Y265537D01*
Y265500D01*
X117690Y265434D01*
X117686Y265371D01*
X117675Y265311D01*
X117664Y265256D01*
X117649Y265204D01*
X117634Y265156D01*
X117616Y265112D01*
X117597Y265071D01*
X117579Y265034D01*
X117560Y265004D01*
X117546Y264978D01*
X117531Y264956D01*
X117520Y264938D01*
X117508Y264927D01*
X117505Y264919D01*
X117501Y264915D01*
X117464Y264879D01*
X117423Y264845D01*
X117379Y264812D01*
X117335Y264786D01*
X117246Y264742D01*
X117157Y264712D01*
X117116Y264701D01*
X117076Y264690D01*
X117042Y264682D01*
X117013Y264675D01*
X116987Y264671D01*
X116968D01*
X116957Y264668D01*
X116954D01*
X116920Y264989D01*
X117005Y264997D01*
X117079Y265012D01*
X117146Y265034D01*
X117198Y265060D01*
X117242Y265082D01*
X117272Y265104D01*
X117290Y265119D01*
X117298Y265126D01*
X117342Y265182D01*
X117375Y265241D01*
X117401Y265304D01*
X117416Y265359D01*
X117427Y265411D01*
X117431Y265456D01*
X117435Y265471D01*
Y265493D01*
X117431Y265570D01*
X117416Y265641D01*
X117394Y265700D01*
X117372Y265752D01*
X117346Y265792D01*
X117327Y265818D01*
X117312Y265837D01*
X117305Y265844D01*
X117253Y265889D01*
X117201Y265922D01*
X117150Y265948D01*
X117098Y265963D01*
X117057Y265974D01*
X117020Y265977D01*
X116998Y265981D01*
X116994D01*
X116991D01*
X116924Y265974D01*
X116854Y265959D01*
X116791Y265933D01*
X116732Y265907D01*
X116683Y265878D01*
X116643Y265852D01*
X116628Y265844D01*
X116617Y265837D01*
X116613Y265829D01*
X116609D01*
X116569Y265800D01*
X116528Y265763D01*
X116484Y265722D01*
X116439Y265678D01*
X116350Y265585D01*
X116262Y265493D01*
X116221Y265445D01*
X116184Y265404D01*
X116151Y265363D01*
X116121Y265330D01*
X116099Y265304D01*
X116080Y265282D01*
X116069Y265267D01*
X116066Y265263D01*
X115988Y265171D01*
X115914Y265086D01*
X115847Y265015D01*
X115792Y264960D01*
X115744Y264912D01*
X115710Y264879D01*
X115688Y264860D01*
X115684Y264853D01*
X115681D01*
X115618Y264801D01*
X115559Y264760D01*
X115499Y264723D01*
X115448Y264693D01*
X115403Y264671D01*
X115370Y264656D01*
X115348Y264649D01*
X115344Y264645D01*
X115340D01*
X115300Y264631D01*
X115263Y264623D01*
X115226Y264616D01*
X115192Y264612D01*
X115163Y264608D01*
X115141D01*
X115126D01*
X115122D01*
Y266307D01*
X115426D01*
Y265045D01*
D02*
G37*
G36*
X117682Y263928D02*
X116765D01*
X116806Y263894D01*
X116839Y263857D01*
X116872Y263824D01*
X116898Y263787D01*
X116917Y263757D01*
X116935Y263735D01*
X116943Y263720D01*
X116946Y263713D01*
X116972Y263665D01*
X116991Y263613D01*
X117002Y263561D01*
X117013Y263513D01*
X117016Y263473D01*
X117020Y263443D01*
Y263413D01*
X117016Y263332D01*
X117002Y263254D01*
X116983Y263184D01*
X116961Y263125D01*
X116935Y263073D01*
X116917Y263036D01*
X116909Y263021D01*
X116902Y263010D01*
X116898Y263006D01*
Y263003D01*
X116850Y262936D01*
X116791Y262880D01*
X116735Y262832D01*
X116680Y262795D01*
X116628Y262766D01*
X116587Y262744D01*
X116572Y262736D01*
X116561Y262729D01*
X116554Y262725D01*
X116550D01*
X116465Y262696D01*
X116376Y262673D01*
X116291Y262655D01*
X116214Y262644D01*
X116147Y262636D01*
X116117D01*
X116095Y262633D01*
X116073D01*
X116058D01*
X116051D01*
X116047D01*
X115944Y262636D01*
X115847Y262647D01*
X115762Y262666D01*
X115688Y262684D01*
X115655Y262692D01*
X115629Y262699D01*
X115603Y262710D01*
X115581Y262718D01*
X115566Y262725D01*
X115555Y262729D01*
X115548Y262733D01*
X115544D01*
X115466Y262773D01*
X115400Y262821D01*
X115340Y262869D01*
X115292Y262917D01*
X115255Y262958D01*
X115226Y262991D01*
X115211Y263014D01*
X115203Y263017D01*
Y263021D01*
X115163Y263091D01*
X115133Y263162D01*
X115111Y263232D01*
X115096Y263295D01*
X115089Y263347D01*
X115085Y263391D01*
X115081Y263406D01*
Y263428D01*
X115085Y263491D01*
X115093Y263550D01*
X115107Y263606D01*
X115126Y263654D01*
X115144Y263702D01*
X115166Y263746D01*
X115192Y263783D01*
X115218Y263817D01*
X115244Y263850D01*
X115270Y263876D01*
X115292Y263898D01*
X115311Y263916D01*
X115329Y263931D01*
X115344Y263942D01*
X115351Y263946D01*
X115355Y263950D01*
X115122D01*
Y264242D01*
X117682D01*
Y263928D01*
D02*
G37*
G36*
X116950Y262499D02*
X116976Y262440D01*
X116994Y262388D01*
X117009Y262340D01*
X117016Y262300D01*
X117020Y262266D01*
Y262240D01*
X117016Y262200D01*
X117009Y262163D01*
X116998Y262126D01*
X116987Y262096D01*
X116976Y262074D01*
X116965Y262052D01*
X116957Y262041D01*
X116954Y262037D01*
X116924Y262004D01*
X116887Y261970D01*
X116843Y261937D01*
X116802Y261907D01*
X116761Y261878D01*
X116728Y261859D01*
X116702Y261844D01*
X116698Y261841D01*
X116979D01*
Y261556D01*
X115122D01*
Y261870D01*
X116092D01*
X116165Y261874D01*
X116232Y261878D01*
X116295Y261885D01*
X116350Y261896D01*
X116395Y261907D01*
X116428Y261915D01*
X116450Y261918D01*
X116458Y261922D01*
X116498Y261937D01*
X116532Y261955D01*
X116561Y261974D01*
X116587Y261993D01*
X116606Y262011D01*
X116621Y262022D01*
X116628Y262033D01*
X116632Y262037D01*
X116654Y262067D01*
X116669Y262100D01*
X116680Y262133D01*
X116687Y262159D01*
X116691Y262185D01*
X116695Y262203D01*
Y262222D01*
X116691Y262263D01*
X116683Y262303D01*
X116672Y262344D01*
X116661Y262377D01*
X116650Y262407D01*
X116639Y262429D01*
X116632Y262444D01*
X116628Y262448D01*
X116917Y262562D01*
X116950Y262499D01*
D02*
G37*
G36*
X115163Y261153D02*
X115203Y261134D01*
X115241Y261119D01*
X115274Y261112D01*
X115303Y261101D01*
X115325Y261097D01*
X115340Y261093D01*
X115344D01*
X115370Y261090D01*
X115403Y261086D01*
X115440D01*
X115481Y261082D01*
X115574Y261079D01*
X115666D01*
X115755Y261075D01*
X115796D01*
X115829D01*
X115858D01*
X115881D01*
X115895D01*
X115899D01*
X116321D01*
X116391D01*
X116454Y261071D01*
X116502Y261068D01*
X116543D01*
X116572Y261064D01*
X116595Y261060D01*
X116606Y261056D01*
X116609D01*
X116657Y261045D01*
X116698Y261031D01*
X116732Y261016D01*
X116765Y260997D01*
X116787Y260982D01*
X116806Y260971D01*
X116817Y260964D01*
X116820Y260960D01*
X116850Y260931D01*
X116879Y260897D01*
X116902Y260860D01*
X116924Y260823D01*
X116939Y260790D01*
X116950Y260764D01*
X116957Y260746D01*
X116961Y260738D01*
X116979Y260679D01*
X116994Y260616D01*
X117005Y260553D01*
X117013Y260490D01*
X117016Y260435D01*
X117020Y260394D01*
Y260353D01*
X117016Y260265D01*
X117009Y260187D01*
X116998Y260113D01*
X116987Y260054D01*
X116976Y260002D01*
X116965Y259965D01*
X116961Y259950D01*
X116957Y259939D01*
X116954Y259935D01*
Y259932D01*
X116928Y259869D01*
X116894Y259813D01*
X116865Y259765D01*
X116835Y259724D01*
X116806Y259695D01*
X116783Y259673D01*
X116769Y259658D01*
X116765Y259654D01*
X116717Y259621D01*
X116665Y259591D01*
X116613Y259569D01*
X116565Y259550D01*
X116517Y259536D01*
X116484Y259525D01*
X116469Y259521D01*
X116458D01*
X116454Y259517D01*
X116450D01*
X116410Y259824D01*
X116476Y259846D01*
X116535Y259869D01*
X116584Y259895D01*
X116621Y259917D01*
X116650Y259939D01*
X116669Y259958D01*
X116680Y259972D01*
X116683Y259976D01*
X116709Y260020D01*
X116728Y260072D01*
X116743Y260128D01*
X116750Y260179D01*
X116757Y260231D01*
X116761Y260268D01*
Y260305D01*
X116757Y260390D01*
X116746Y260464D01*
X116728Y260524D01*
X116709Y260575D01*
X116687Y260612D01*
X116672Y260642D01*
X116657Y260661D01*
X116654Y260664D01*
X116621Y260694D01*
X116580Y260716D01*
X116535Y260735D01*
X116491Y260746D01*
X116450Y260753D01*
X116413Y260757D01*
X116391D01*
X116387D01*
X116384D01*
X116376D01*
X116362D01*
X116336D01*
X116313Y260753D01*
X116306D01*
X116302D01*
X116291Y260716D01*
X116280Y260675D01*
X116258Y260590D01*
X116240Y260494D01*
X116221Y260405D01*
X116214Y260361D01*
X116210Y260320D01*
X116202Y260283D01*
X116199Y260254D01*
X116195Y260228D01*
Y260209D01*
X116191Y260194D01*
Y260191D01*
X116184Y260124D01*
X116173Y260068D01*
X116165Y260020D01*
X116158Y259983D01*
X116154Y259954D01*
X116147Y259932D01*
X116143Y259917D01*
Y259913D01*
X116128Y259865D01*
X116114Y259824D01*
X116095Y259784D01*
X116080Y259750D01*
X116066Y259721D01*
X116051Y259702D01*
X116043Y259687D01*
X116040Y259684D01*
X116014Y259647D01*
X115984Y259617D01*
X115954Y259588D01*
X115925Y259565D01*
X115899Y259547D01*
X115877Y259532D01*
X115862Y259525D01*
X115858Y259521D01*
X115818Y259502D01*
X115773Y259488D01*
X115733Y259476D01*
X115692Y259469D01*
X115658Y259465D01*
X115633Y259462D01*
X115618D01*
X115610D01*
X115566Y259465D01*
X115529Y259469D01*
X115451Y259488D01*
X115388Y259513D01*
X115333Y259543D01*
X115289Y259573D01*
X115255Y259599D01*
X115237Y259617D01*
X115229Y259625D01*
X115181Y259691D01*
X115144Y259765D01*
X115118Y259846D01*
X115100Y259921D01*
X115089Y259987D01*
X115085Y260017D01*
Y260043D01*
X115081Y260065D01*
Y260094D01*
X115085Y260161D01*
X115093Y260228D01*
X115100Y260287D01*
X115111Y260339D01*
X115122Y260379D01*
X115133Y260413D01*
X115137Y260435D01*
X115141Y260442D01*
X115166Y260505D01*
X115200Y260564D01*
X115237Y260620D01*
X115270Y260675D01*
X115303Y260720D01*
X115329Y260753D01*
X115348Y260775D01*
X115355Y260779D01*
Y260783D01*
X115307Y260790D01*
X115263Y260797D01*
X115222Y260805D01*
X115189Y260816D01*
X115159Y260827D01*
X115141Y260834D01*
X115126Y260838D01*
X115122Y260842D01*
Y261171D01*
X115163Y261153D01*
D02*
G37*
G36*
X116017Y258851D02*
X115958Y258836D01*
X115903Y258818D01*
X115851Y258799D01*
X115803Y258781D01*
X115758Y258759D01*
X115721Y258736D01*
X115684Y258711D01*
X115651Y258688D01*
X115622Y258670D01*
X115599Y258648D01*
X115577Y258629D01*
X115559Y258614D01*
X115548Y258600D01*
X115536Y258589D01*
X115533Y258585D01*
X115529Y258581D01*
X115499Y258544D01*
X115477Y258503D01*
X115437Y258422D01*
X115407Y258344D01*
X115388Y258267D01*
X115374Y258200D01*
X115370Y258174D01*
Y258148D01*
X115366Y258126D01*
Y258100D01*
X115370Y258015D01*
X115385Y257934D01*
X115403Y257860D01*
X115426Y257793D01*
X115448Y257741D01*
X115459Y257719D01*
X115466Y257700D01*
X115474Y257686D01*
X115481Y257675D01*
X115485Y257667D01*
Y257663D01*
X115536Y257593D01*
X115592Y257534D01*
X115655Y257482D01*
X115714Y257441D01*
X115766Y257408D01*
X115810Y257386D01*
X115829Y257379D01*
X115840Y257371D01*
X115847Y257367D01*
X115851D01*
X115947Y257338D01*
X116043Y257316D01*
X116140Y257297D01*
X116228Y257286D01*
X116269Y257282D01*
X116306Y257279D01*
X116339D01*
X116365Y257275D01*
X116387D01*
X116406D01*
X116417D01*
X116421D01*
X116517Y257279D01*
X116606Y257286D01*
X116687Y257301D01*
X116761Y257316D01*
X116824Y257327D01*
X116850Y257334D01*
X116872Y257342D01*
X116891Y257345D01*
X116902Y257349D01*
X116909Y257353D01*
X116913D01*
X116998Y257390D01*
X117076Y257430D01*
X117139Y257475D01*
X117194Y257523D01*
X117238Y257564D01*
X117268Y257597D01*
X117287Y257623D01*
X117294Y257627D01*
Y257630D01*
X117342Y257708D01*
X117379Y257793D01*
X117405Y257874D01*
X117420Y257952D01*
X117431Y258022D01*
X117435Y258052D01*
Y258078D01*
X117438Y258096D01*
Y258126D01*
X117435Y258219D01*
X117420Y258304D01*
X117398Y258374D01*
X117375Y258437D01*
X117350Y258485D01*
X117331Y258522D01*
X117316Y258544D01*
X117309Y258552D01*
X117253Y258611D01*
X117190Y258666D01*
X117124Y258711D01*
X117057Y258748D01*
X116998Y258777D01*
X116968Y258788D01*
X116946Y258796D01*
X116928Y258803D01*
X116913Y258810D01*
X116905Y258814D01*
X116902D01*
X116979Y259147D01*
X117046Y259125D01*
X117105Y259103D01*
X117161Y259073D01*
X117216Y259047D01*
X117264Y259018D01*
X117309Y258984D01*
X117353Y258955D01*
X117390Y258925D01*
X117420Y258896D01*
X117449Y258870D01*
X117475Y258844D01*
X117494Y258825D01*
X117512Y258807D01*
X117523Y258792D01*
X117527Y258785D01*
X117531Y258781D01*
X117564Y258729D01*
X117597Y258677D01*
X117623Y258626D01*
X117646Y258570D01*
X117679Y258459D01*
X117701Y258359D01*
X117712Y258311D01*
X117716Y258270D01*
X117719Y258230D01*
X117723Y258196D01*
X117727Y258170D01*
Y258133D01*
X117719Y258011D01*
X117701Y257893D01*
X117679Y257789D01*
X117664Y257741D01*
X117649Y257697D01*
X117634Y257656D01*
X117620Y257619D01*
X117608Y257590D01*
X117597Y257560D01*
X117586Y257541D01*
X117579Y257527D01*
X117575Y257516D01*
X117571Y257512D01*
X117508Y257412D01*
X117435Y257327D01*
X117360Y257253D01*
X117287Y257190D01*
X117220Y257142D01*
X117190Y257123D01*
X117165Y257108D01*
X117146Y257094D01*
X117131Y257086D01*
X117120Y257083D01*
X117116Y257079D01*
X117002Y257027D01*
X116883Y256990D01*
X116765Y256964D01*
X116657Y256946D01*
X116609Y256938D01*
X116561Y256935D01*
X116524Y256931D01*
X116487D01*
X116461Y256927D01*
X116439D01*
X116425D01*
X116421D01*
X116288Y256935D01*
X116158Y256949D01*
X116043Y256968D01*
X115988Y256983D01*
X115940Y256994D01*
X115895Y257005D01*
X115855Y257020D01*
X115818Y257031D01*
X115788Y257038D01*
X115766Y257049D01*
X115747Y257053D01*
X115736Y257060D01*
X115733D01*
X115622Y257116D01*
X115522Y257179D01*
X115437Y257245D01*
X115403Y257279D01*
X115370Y257308D01*
X115340Y257338D01*
X115314Y257367D01*
X115292Y257393D01*
X115277Y257416D01*
X115263Y257430D01*
X115252Y257445D01*
X115248Y257453D01*
X115244Y257456D01*
X115215Y257508D01*
X115189Y257560D01*
X115148Y257671D01*
X115118Y257782D01*
X115100Y257889D01*
X115093Y257941D01*
X115085Y257985D01*
X115081Y258026D01*
Y258059D01*
X115078Y258089D01*
Y258130D01*
X115081Y258204D01*
X115089Y258274D01*
X115096Y258341D01*
X115111Y258403D01*
X115129Y258463D01*
X115148Y258518D01*
X115166Y258570D01*
X115189Y258618D01*
X115207Y258659D01*
X115226Y258699D01*
X115244Y258729D01*
X115263Y258759D01*
X115277Y258777D01*
X115285Y258796D01*
X115292Y258803D01*
X115296Y258807D01*
X115340Y258859D01*
X115385Y258903D01*
X115437Y258944D01*
X115488Y258984D01*
X115592Y259051D01*
X115696Y259103D01*
X115744Y259125D01*
X115788Y259143D01*
X115829Y259158D01*
X115862Y259169D01*
X115892Y259180D01*
X115914Y259188D01*
X115929Y259192D01*
X115932D01*
X116017Y258851D01*
D02*
G37*
G36*
X118831Y221009D02*
X118872Y220949D01*
X118920Y220890D01*
X118964Y220838D01*
X119009Y220794D01*
X119042Y220757D01*
X119057Y220746D01*
X119068Y220735D01*
X119071Y220731D01*
X119075Y220727D01*
X119153Y220665D01*
X119230Y220605D01*
X119305Y220553D01*
X119378Y220513D01*
X119441Y220476D01*
X119467Y220461D01*
X119490Y220450D01*
X119508Y220439D01*
X119523Y220435D01*
X119530Y220428D01*
X119534D01*
Y220124D01*
X119478Y220146D01*
X119423Y220172D01*
X119367Y220198D01*
X119316Y220224D01*
X119271Y220246D01*
X119234Y220265D01*
X119212Y220280D01*
X119208Y220283D01*
X119205D01*
X119138Y220324D01*
X119079Y220365D01*
X119027Y220402D01*
X118986Y220435D01*
X118949Y220461D01*
X118927Y220483D01*
X118909Y220498D01*
X118905Y220502D01*
Y218500D01*
X118590D01*
Y221072D01*
X118794D01*
X118831Y221009D01*
D02*
G37*
G36*
X124163Y220394D02*
X124240Y220387D01*
X124314Y220376D01*
X124373Y220365D01*
X124425Y220354D01*
X124462Y220343D01*
X124477Y220339D01*
X124488Y220335D01*
X124492Y220332D01*
X124496D01*
X124558Y220306D01*
X124614Y220272D01*
X124662Y220243D01*
X124703Y220213D01*
X124732Y220183D01*
X124755Y220161D01*
X124769Y220146D01*
X124773Y220143D01*
X124806Y220095D01*
X124836Y220043D01*
X124858Y219991D01*
X124877Y219943D01*
X124891Y219895D01*
X124903Y219862D01*
X124906Y219847D01*
Y219836D01*
X124910Y219832D01*
Y219828D01*
X124603Y219788D01*
X124581Y219854D01*
X124558Y219913D01*
X124533Y219962D01*
X124510Y219999D01*
X124488Y220028D01*
X124470Y220047D01*
X124455Y220058D01*
X124451Y220061D01*
X124407Y220087D01*
X124355Y220106D01*
X124300Y220121D01*
X124248Y220128D01*
X124196Y220135D01*
X124159Y220139D01*
X124122D01*
X124037Y220135D01*
X123963Y220124D01*
X123904Y220106D01*
X123852Y220087D01*
X123815Y220065D01*
X123785Y220050D01*
X123767Y220036D01*
X123763Y220032D01*
X123733Y219999D01*
X123711Y219958D01*
X123693Y219913D01*
X123682Y219869D01*
X123674Y219828D01*
X123670Y219791D01*
Y219769D01*
Y219765D01*
Y219762D01*
Y219754D01*
Y219740D01*
Y219714D01*
X123674Y219691D01*
Y219684D01*
Y219680D01*
X123711Y219669D01*
X123752Y219658D01*
X123837Y219636D01*
X123933Y219617D01*
X124022Y219599D01*
X124066Y219591D01*
X124107Y219588D01*
X124144Y219580D01*
X124174Y219577D01*
X124200Y219573D01*
X124218D01*
X124233Y219569D01*
X124237D01*
X124303Y219562D01*
X124359Y219551D01*
X124407Y219543D01*
X124444Y219536D01*
X124473Y219532D01*
X124496Y219525D01*
X124510Y219521D01*
X124514D01*
X124562Y219506D01*
X124603Y219492D01*
X124644Y219473D01*
X124677Y219458D01*
X124706Y219443D01*
X124725Y219429D01*
X124740Y219421D01*
X124743Y219418D01*
X124780Y219392D01*
X124810Y219362D01*
X124840Y219333D01*
X124862Y219303D01*
X124880Y219277D01*
X124895Y219255D01*
X124903Y219240D01*
X124906Y219236D01*
X124925Y219196D01*
X124940Y219151D01*
X124951Y219110D01*
X124958Y219070D01*
X124962Y219037D01*
X124966Y219011D01*
Y218996D01*
Y218988D01*
X124962Y218944D01*
X124958Y218907D01*
X124940Y218829D01*
X124914Y218766D01*
X124884Y218711D01*
X124855Y218667D01*
X124829Y218633D01*
X124810Y218615D01*
X124803Y218607D01*
X124736Y218559D01*
X124662Y218522D01*
X124581Y218496D01*
X124507Y218478D01*
X124440Y218467D01*
X124410Y218463D01*
X124385D01*
X124362Y218459D01*
X124333D01*
X124266Y218463D01*
X124200Y218470D01*
X124140Y218478D01*
X124089Y218489D01*
X124048Y218500D01*
X124015Y218511D01*
X123992Y218515D01*
X123985Y218518D01*
X123922Y218544D01*
X123863Y218578D01*
X123807Y218615D01*
X123752Y218648D01*
X123707Y218681D01*
X123674Y218707D01*
X123652Y218726D01*
X123648Y218733D01*
X123645D01*
X123637Y218685D01*
X123630Y218641D01*
X123622Y218600D01*
X123611Y218567D01*
X123600Y218537D01*
X123593Y218518D01*
X123589Y218504D01*
X123585Y218500D01*
X123256D01*
X123275Y218541D01*
X123293Y218581D01*
X123308Y218618D01*
X123315Y218652D01*
X123326Y218681D01*
X123330Y218704D01*
X123334Y218718D01*
Y218722D01*
X123337Y218748D01*
X123341Y218781D01*
Y218818D01*
X123345Y218859D01*
X123349Y218951D01*
Y219044D01*
X123352Y219133D01*
Y219173D01*
Y219207D01*
Y219236D01*
Y219258D01*
Y219273D01*
Y219277D01*
Y219699D01*
Y219769D01*
X123356Y219832D01*
X123360Y219880D01*
Y219921D01*
X123363Y219950D01*
X123367Y219973D01*
X123371Y219984D01*
Y219987D01*
X123382Y220036D01*
X123397Y220076D01*
X123412Y220110D01*
X123430Y220143D01*
X123445Y220165D01*
X123456Y220183D01*
X123463Y220195D01*
X123467Y220198D01*
X123497Y220228D01*
X123530Y220257D01*
X123567Y220280D01*
X123604Y220302D01*
X123637Y220317D01*
X123663Y220328D01*
X123682Y220335D01*
X123689Y220339D01*
X123748Y220357D01*
X123811Y220372D01*
X123874Y220383D01*
X123937Y220391D01*
X123992Y220394D01*
X124033Y220398D01*
X124074D01*
X124163Y220394D01*
D02*
G37*
G36*
X126416Y221097D02*
X126534Y221079D01*
X126638Y221057D01*
X126686Y221042D01*
X126730Y221027D01*
X126771Y221012D01*
X126808Y220998D01*
X126838Y220986D01*
X126867Y220975D01*
X126886Y220964D01*
X126901Y220957D01*
X126912Y220953D01*
X126915Y220949D01*
X127015Y220886D01*
X127100Y220813D01*
X127174Y220739D01*
X127237Y220665D01*
X127285Y220598D01*
X127304Y220568D01*
X127319Y220542D01*
X127333Y220524D01*
X127341Y220509D01*
X127345Y220498D01*
X127348Y220494D01*
X127400Y220380D01*
X127437Y220261D01*
X127463Y220143D01*
X127481Y220036D01*
X127489Y219987D01*
X127493Y219939D01*
X127496Y219902D01*
Y219865D01*
X127500Y219839D01*
Y219817D01*
Y219802D01*
Y219799D01*
X127493Y219666D01*
X127478Y219536D01*
X127459Y219421D01*
X127445Y219366D01*
X127433Y219318D01*
X127422Y219273D01*
X127408Y219233D01*
X127396Y219196D01*
X127389Y219166D01*
X127378Y219144D01*
X127374Y219125D01*
X127367Y219114D01*
Y219110D01*
X127311Y219000D01*
X127248Y218900D01*
X127182Y218814D01*
X127148Y218781D01*
X127119Y218748D01*
X127089Y218718D01*
X127060Y218692D01*
X127034Y218670D01*
X127012Y218655D01*
X126997Y218641D01*
X126982Y218630D01*
X126975Y218626D01*
X126971Y218622D01*
X126919Y218593D01*
X126867Y218567D01*
X126756Y218526D01*
X126645Y218496D01*
X126538Y218478D01*
X126486Y218470D01*
X126442Y218463D01*
X126401Y218459D01*
X126368D01*
X126338Y218456D01*
X126297D01*
X126224Y218459D01*
X126153Y218467D01*
X126087Y218474D01*
X126024Y218489D01*
X125964Y218507D01*
X125909Y218526D01*
X125857Y218544D01*
X125809Y218567D01*
X125768Y218585D01*
X125728Y218604D01*
X125698Y218622D01*
X125669Y218641D01*
X125650Y218655D01*
X125631Y218663D01*
X125624Y218670D01*
X125620Y218674D01*
X125569Y218718D01*
X125524Y218763D01*
X125484Y218814D01*
X125443Y218866D01*
X125376Y218970D01*
X125324Y219074D01*
X125302Y219122D01*
X125284Y219166D01*
X125269Y219207D01*
X125258Y219240D01*
X125247Y219270D01*
X125239Y219292D01*
X125236Y219307D01*
Y219310D01*
X125576Y219395D01*
X125591Y219336D01*
X125609Y219281D01*
X125628Y219229D01*
X125646Y219181D01*
X125669Y219136D01*
X125691Y219099D01*
X125717Y219062D01*
X125739Y219029D01*
X125757Y219000D01*
X125779Y218977D01*
X125798Y218955D01*
X125813Y218937D01*
X125828Y218925D01*
X125839Y218914D01*
X125842Y218911D01*
X125846Y218907D01*
X125883Y218877D01*
X125924Y218855D01*
X126005Y218814D01*
X126083Y218785D01*
X126161Y218766D01*
X126227Y218752D01*
X126253Y218748D01*
X126279D01*
X126301Y218744D01*
X126327D01*
X126412Y218748D01*
X126494Y218763D01*
X126568Y218781D01*
X126634Y218803D01*
X126686Y218826D01*
X126708Y218837D01*
X126727Y218844D01*
X126742Y218851D01*
X126753Y218859D01*
X126760Y218863D01*
X126764D01*
X126834Y218914D01*
X126893Y218970D01*
X126945Y219033D01*
X126986Y219092D01*
X127019Y219144D01*
X127041Y219188D01*
X127049Y219207D01*
X127056Y219218D01*
X127060Y219225D01*
Y219229D01*
X127089Y219325D01*
X127111Y219421D01*
X127130Y219517D01*
X127141Y219606D01*
X127145Y219647D01*
X127148Y219684D01*
Y219717D01*
X127152Y219743D01*
Y219765D01*
Y219784D01*
Y219795D01*
Y219799D01*
X127148Y219895D01*
X127141Y219984D01*
X127126Y220065D01*
X127111Y220139D01*
X127100Y220202D01*
X127093Y220228D01*
X127086Y220250D01*
X127082Y220269D01*
X127078Y220280D01*
X127075Y220287D01*
Y220291D01*
X127038Y220376D01*
X126997Y220454D01*
X126952Y220516D01*
X126904Y220572D01*
X126864Y220616D01*
X126830Y220646D01*
X126804Y220665D01*
X126801Y220672D01*
X126797D01*
X126719Y220720D01*
X126634Y220757D01*
X126553Y220783D01*
X126475Y220798D01*
X126405Y220809D01*
X126375Y220813D01*
X126349D01*
X126331Y220816D01*
X126301D01*
X126209Y220813D01*
X126124Y220798D01*
X126053Y220776D01*
X125990Y220753D01*
X125942Y220727D01*
X125905Y220709D01*
X125883Y220694D01*
X125876Y220687D01*
X125817Y220631D01*
X125761Y220568D01*
X125717Y220502D01*
X125680Y220435D01*
X125650Y220376D01*
X125639Y220346D01*
X125631Y220324D01*
X125624Y220306D01*
X125617Y220291D01*
X125613Y220283D01*
Y220280D01*
X125280Y220357D01*
X125302Y220424D01*
X125324Y220483D01*
X125354Y220539D01*
X125380Y220594D01*
X125409Y220642D01*
X125443Y220687D01*
X125472Y220731D01*
X125502Y220768D01*
X125532Y220798D01*
X125557Y220827D01*
X125583Y220853D01*
X125602Y220872D01*
X125620Y220890D01*
X125635Y220901D01*
X125643Y220905D01*
X125646Y220909D01*
X125698Y220942D01*
X125750Y220975D01*
X125802Y221001D01*
X125857Y221023D01*
X125968Y221057D01*
X126068Y221079D01*
X126116Y221090D01*
X126157Y221094D01*
X126198Y221097D01*
X126231Y221101D01*
X126257Y221105D01*
X126294D01*
X126416Y221097D01*
D02*
G37*
G36*
X122228Y220394D02*
X122265Y220387D01*
X122301Y220376D01*
X122331Y220365D01*
X122353Y220354D01*
X122376Y220343D01*
X122387Y220335D01*
X122390Y220332D01*
X122424Y220302D01*
X122457Y220265D01*
X122490Y220220D01*
X122520Y220180D01*
X122549Y220139D01*
X122568Y220106D01*
X122583Y220080D01*
X122586Y220076D01*
Y220357D01*
X122871D01*
Y218500D01*
X122557D01*
Y219469D01*
X122553Y219543D01*
X122549Y219610D01*
X122542Y219673D01*
X122531Y219728D01*
X122520Y219773D01*
X122512Y219806D01*
X122509Y219828D01*
X122505Y219836D01*
X122490Y219876D01*
X122472Y219910D01*
X122453Y219939D01*
X122435Y219965D01*
X122416Y219984D01*
X122405Y219999D01*
X122394Y220006D01*
X122390Y220010D01*
X122361Y220032D01*
X122327Y220047D01*
X122294Y220058D01*
X122268Y220065D01*
X122242Y220069D01*
X122224Y220073D01*
X122205D01*
X122165Y220069D01*
X122124Y220061D01*
X122083Y220050D01*
X122050Y220039D01*
X122020Y220028D01*
X121998Y220017D01*
X121983Y220010D01*
X121980Y220006D01*
X121865Y220294D01*
X121928Y220328D01*
X121987Y220354D01*
X122039Y220372D01*
X122087Y220387D01*
X122128Y220394D01*
X122161Y220398D01*
X122187D01*
X122228Y220394D01*
D02*
G37*
G36*
X120500Y220143D02*
X120533Y220183D01*
X120570Y220217D01*
X120603Y220250D01*
X120640Y220276D01*
X120670Y220294D01*
X120692Y220313D01*
X120707Y220320D01*
X120714Y220324D01*
X120762Y220350D01*
X120814Y220369D01*
X120866Y220380D01*
X120914Y220391D01*
X120955Y220394D01*
X120984Y220398D01*
X121014D01*
X121095Y220394D01*
X121173Y220380D01*
X121243Y220361D01*
X121302Y220339D01*
X121354Y220313D01*
X121391Y220294D01*
X121406Y220287D01*
X121417Y220280D01*
X121421Y220276D01*
X121425D01*
X121491Y220228D01*
X121547Y220169D01*
X121595Y220113D01*
X121632Y220058D01*
X121661Y220006D01*
X121684Y219965D01*
X121691Y219950D01*
X121698Y219939D01*
X121702Y219932D01*
Y219928D01*
X121732Y219843D01*
X121754Y219754D01*
X121772Y219669D01*
X121783Y219591D01*
X121791Y219525D01*
Y219495D01*
X121795Y219473D01*
Y219451D01*
Y219436D01*
Y219429D01*
Y219425D01*
X121791Y219321D01*
X121780Y219225D01*
X121761Y219140D01*
X121743Y219066D01*
X121735Y219033D01*
X121728Y219007D01*
X121717Y218981D01*
X121710Y218959D01*
X121702Y218944D01*
X121698Y218933D01*
X121695Y218925D01*
Y218922D01*
X121654Y218844D01*
X121606Y218777D01*
X121558Y218718D01*
X121510Y218670D01*
X121469Y218633D01*
X121436Y218604D01*
X121414Y218589D01*
X121410Y218581D01*
X121406D01*
X121336Y218541D01*
X121265Y218511D01*
X121195Y218489D01*
X121132Y218474D01*
X121081Y218467D01*
X121036Y218463D01*
X121021Y218459D01*
X120999D01*
X120936Y218463D01*
X120877Y218470D01*
X120821Y218485D01*
X120773Y218504D01*
X120725Y218522D01*
X120681Y218544D01*
X120644Y218570D01*
X120611Y218596D01*
X120577Y218622D01*
X120551Y218648D01*
X120529Y218670D01*
X120511Y218689D01*
X120496Y218707D01*
X120485Y218722D01*
X120481Y218729D01*
X120477Y218733D01*
Y218500D01*
X120185D01*
Y221060D01*
X120500D01*
Y220143D01*
D02*
G37*
%LPC*%
G36*
X215095Y246869D02*
X215084D01*
X215077D01*
X215073D01*
X214977Y246862D01*
X214888Y246847D01*
X214810Y246821D01*
X214748Y246792D01*
X214696Y246766D01*
X214659Y246740D01*
X214648Y246732D01*
X214636Y246725D01*
X214633Y246718D01*
X214629D01*
X214599Y246688D01*
X214570Y246658D01*
X214529Y246595D01*
X214496Y246533D01*
X214477Y246473D01*
X214463Y246425D01*
X214459Y246385D01*
X214455Y246370D01*
Y246310D01*
X214463Y246273D01*
X214481Y246207D01*
X214507Y246148D01*
X214533Y246096D01*
X214563Y246055D01*
X214588Y246026D01*
X214607Y246007D01*
X214611Y246000D01*
X214614D01*
X214677Y245952D01*
X214748Y245915D01*
X214822Y245889D01*
X214892Y245874D01*
X214951Y245863D01*
X214977Y245859D01*
X215003D01*
X215021Y245855D01*
X215036D01*
X215043D01*
X215047D01*
X215143Y245863D01*
X215229Y245878D01*
X215299Y245900D01*
X215358Y245926D01*
X215406Y245955D01*
X215439Y245977D01*
X215462Y245992D01*
X215469Y246000D01*
X215521Y246055D01*
X215558Y246114D01*
X215584Y246174D01*
X215602Y246233D01*
X215613Y246281D01*
X215617Y246322D01*
X215621Y246336D01*
Y246359D01*
X215613Y246436D01*
X215599Y246507D01*
X215573Y246569D01*
X215543Y246625D01*
X215517Y246666D01*
X215491Y246699D01*
X215476Y246718D01*
X215469Y246725D01*
X215410Y246773D01*
X215343Y246810D01*
X215277Y246832D01*
X215214Y246851D01*
X215158Y246862D01*
X215136Y246866D01*
X215114D01*
X215095Y246869D01*
D02*
G37*
G36*
X205660Y246776D02*
X204853D01*
X204753Y246772D01*
X204668Y246757D01*
X204594Y246739D01*
X204538Y246716D01*
X204490Y246694D01*
X204461Y246676D01*
X204442Y246661D01*
X204435Y246657D01*
X204391Y246609D01*
X204357Y246561D01*
X204335Y246509D01*
X204316Y246465D01*
X204309Y246420D01*
X204305Y246387D01*
X204302Y246365D01*
Y246361D01*
Y246357D01*
X204305Y246313D01*
X204313Y246269D01*
X204324Y246232D01*
X204335Y246198D01*
X204350Y246169D01*
X204361Y246146D01*
X204368Y246132D01*
X204372Y246128D01*
X204398Y246091D01*
X204431Y246058D01*
X204465Y246032D01*
X204498Y246010D01*
X204527Y245995D01*
X204550Y245984D01*
X204564Y245976D01*
X204572Y245973D01*
X204624Y245958D01*
X204683Y245947D01*
X204742Y245939D01*
X204801Y245936D01*
X204853Y245932D01*
X204897Y245928D01*
X205660D01*
Y246776D01*
D02*
G37*
G36*
X198704Y246757D02*
X198112D01*
X198064Y246753D01*
X198015D01*
X197971Y246750D01*
X197897Y246739D01*
X197838Y246731D01*
X197790Y246720D01*
X197756Y246709D01*
X197738Y246705D01*
X197731Y246702D01*
X197664Y246668D01*
X197601Y246627D01*
X197546Y246579D01*
X197497Y246531D01*
X197460Y246487D01*
X197431Y246450D01*
X197423Y246435D01*
X197416Y246424D01*
X197409Y246417D01*
Y246413D01*
X197386Y246372D01*
X197364Y246324D01*
X197331Y246228D01*
X197309Y246124D01*
X197290Y246024D01*
X197286Y245980D01*
X197283Y245936D01*
X197279Y245899D01*
Y245865D01*
X197275Y245836D01*
Y245817D01*
Y245802D01*
Y245799D01*
X197279Y245695D01*
X197286Y245599D01*
X197298Y245514D01*
X197309Y245440D01*
X197316Y245410D01*
X197324Y245384D01*
X197331Y245358D01*
X197335Y245340D01*
X197338Y245325D01*
X197342Y245314D01*
X197346Y245307D01*
Y245303D01*
X197372Y245233D01*
X197401Y245170D01*
X197434Y245114D01*
X197464Y245066D01*
X197490Y245029D01*
X197512Y245003D01*
X197527Y244988D01*
X197531Y244981D01*
X197568Y244951D01*
X197605Y244925D01*
X197642Y244903D01*
X197679Y244881D01*
X197712Y244866D01*
X197738Y244855D01*
X197756Y244851D01*
X197764Y244848D01*
X197819Y244833D01*
X197886Y244822D01*
X197952Y244814D01*
X198015Y244811D01*
X198071Y244807D01*
X198097Y244803D01*
X198704D01*
Y246757D01*
D02*
G37*
G36*
X208589Y255775D02*
X207782D01*
X207682Y255772D01*
X207597Y255757D01*
X207523Y255738D01*
X207468Y255716D01*
X207419Y255694D01*
X207390Y255676D01*
X207371Y255661D01*
X207364Y255657D01*
X207320Y255609D01*
X207286Y255561D01*
X207264Y255509D01*
X207246Y255465D01*
X207238Y255420D01*
X207235Y255387D01*
X207231Y255365D01*
Y255361D01*
Y255357D01*
X207235Y255313D01*
X207242Y255269D01*
X207253Y255232D01*
X207264Y255198D01*
X207279Y255169D01*
X207290Y255147D01*
X207297Y255132D01*
X207301Y255128D01*
X207327Y255091D01*
X207360Y255058D01*
X207394Y255032D01*
X207427Y255010D01*
X207456Y254995D01*
X207479Y254984D01*
X207493Y254976D01*
X207501Y254973D01*
X207553Y254958D01*
X207612Y254947D01*
X207671Y254939D01*
X207730Y254936D01*
X207782Y254932D01*
X207826Y254928D01*
X208589D01*
Y255775D01*
D02*
G37*
G36*
X201633Y255757D02*
X201041D01*
X200993Y255753D01*
X200944D01*
X200900Y255750D01*
X200826Y255738D01*
X200767Y255731D01*
X200719Y255720D01*
X200686Y255709D01*
X200667Y255705D01*
X200660Y255701D01*
X200593Y255668D01*
X200530Y255627D01*
X200475Y255579D01*
X200427Y255531D01*
X200390Y255487D01*
X200360Y255450D01*
X200353Y255435D01*
X200345Y255424D01*
X200338Y255417D01*
Y255413D01*
X200315Y255372D01*
X200293Y255324D01*
X200260Y255228D01*
X200238Y255124D01*
X200219Y255024D01*
X200216Y254980D01*
X200212Y254936D01*
X200208Y254899D01*
Y254865D01*
X200204Y254836D01*
Y254817D01*
Y254802D01*
Y254799D01*
X200208Y254695D01*
X200216Y254599D01*
X200227Y254514D01*
X200238Y254440D01*
X200245Y254410D01*
X200253Y254384D01*
X200260Y254358D01*
X200264Y254340D01*
X200267Y254325D01*
X200271Y254314D01*
X200275Y254307D01*
Y254303D01*
X200301Y254233D01*
X200330Y254170D01*
X200364Y254114D01*
X200393Y254066D01*
X200419Y254029D01*
X200441Y254003D01*
X200456Y253988D01*
X200460Y253981D01*
X200497Y253951D01*
X200534Y253925D01*
X200571Y253903D01*
X200608Y253881D01*
X200641Y253866D01*
X200667Y253855D01*
X200686Y253852D01*
X200693Y253848D01*
X200748Y253833D01*
X200815Y253822D01*
X200882Y253815D01*
X200944Y253811D01*
X201000Y253807D01*
X201026Y253803D01*
X201633D01*
Y255757D01*
D02*
G37*
G36*
X192591Y247779D02*
X192587D01*
X192583D01*
X192524Y247775D01*
X192472Y247760D01*
X192424Y247742D01*
X192384Y247720D01*
X192350Y247701D01*
X192324Y247682D01*
X192310Y247668D01*
X192306Y247664D01*
X192265Y247616D01*
X192236Y247568D01*
X192217Y247516D01*
X192202Y247468D01*
X192195Y247424D01*
X192188Y247390D01*
Y247361D01*
X192191Y247298D01*
X192206Y247238D01*
X192225Y247190D01*
X192247Y247146D01*
X192269Y247113D01*
X192287Y247087D01*
X192302Y247068D01*
X192306Y247065D01*
X192354Y247024D01*
X192402Y246994D01*
X192450Y246972D01*
X192495Y246957D01*
X192535Y246950D01*
X192569Y246942D01*
X192591D01*
X192595D01*
X192598D01*
X192657Y246946D01*
X192713Y246961D01*
X192761Y246979D01*
X192802Y247002D01*
X192835Y247024D01*
X192857Y247042D01*
X192876Y247057D01*
X192879Y247061D01*
X192916Y247105D01*
X192946Y247157D01*
X192964Y247205D01*
X192979Y247253D01*
X192987Y247298D01*
X192990Y247331D01*
X192994Y247353D01*
Y247361D01*
X192990Y247427D01*
X192976Y247486D01*
X192957Y247538D01*
X192935Y247583D01*
X192916Y247616D01*
X192898Y247642D01*
X192883Y247660D01*
X192879Y247664D01*
X192835Y247701D01*
X192783Y247731D01*
X192735Y247749D01*
X192687Y247764D01*
X192646Y247771D01*
X192613Y247775D01*
X192591Y247779D01*
D02*
G37*
G36*
X193786Y247882D02*
X193771D01*
X193764D01*
X193686Y247875D01*
X193616Y247860D01*
X193553Y247838D01*
X193497Y247808D01*
X193457Y247782D01*
X193423Y247760D01*
X193405Y247745D01*
X193397Y247738D01*
X193349Y247682D01*
X193312Y247620D01*
X193286Y247560D01*
X193268Y247501D01*
X193257Y247449D01*
X193253Y247409D01*
X193249Y247394D01*
Y247372D01*
X193257Y247290D01*
X193272Y247216D01*
X193298Y247150D01*
X193323Y247094D01*
X193353Y247050D01*
X193379Y247017D01*
X193394Y246998D01*
X193401Y246991D01*
X193460Y246939D01*
X193523Y246902D01*
X193586Y246876D01*
X193642Y246857D01*
X193697Y246846D01*
X193738Y246843D01*
X193753Y246839D01*
X193764D01*
X193771D01*
X193775D01*
X193852Y246846D01*
X193927Y246861D01*
X193989Y246887D01*
X194041Y246913D01*
X194082Y246939D01*
X194115Y246965D01*
X194134Y246979D01*
X194141Y246987D01*
X194189Y247046D01*
X194226Y247105D01*
X194248Y247168D01*
X194267Y247227D01*
X194278Y247279D01*
X194282Y247324D01*
X194285Y247338D01*
Y247361D01*
X194282Y247412D01*
X194274Y247464D01*
X194263Y247512D01*
X194252Y247553D01*
X194241Y247586D01*
X194230Y247612D01*
X194222Y247627D01*
X194219Y247634D01*
X194189Y247679D01*
X194160Y247716D01*
X194126Y247749D01*
X194093Y247775D01*
X194067Y247797D01*
X194045Y247812D01*
X194026Y247819D01*
X194023Y247823D01*
X193975Y247842D01*
X193930Y247856D01*
X193886Y247867D01*
X193845Y247875D01*
X193812Y247879D01*
X193786Y247882D01*
D02*
G37*
G36*
X151436Y238518D02*
X151418D01*
X151403D01*
X151399D01*
X151336D01*
X151277Y238511D01*
X151225Y238503D01*
X151173Y238496D01*
X151129Y238485D01*
X151085Y238470D01*
X151048Y238459D01*
X151014Y238444D01*
X150985Y238429D01*
X150955Y238418D01*
X150937Y238404D01*
X150918Y238392D01*
X150903Y238385D01*
X150892Y238378D01*
X150889Y238370D01*
X150885D01*
X150855Y238344D01*
X150829Y238315D01*
X150789Y238256D01*
X150759Y238196D01*
X150741Y238141D01*
X150726Y238093D01*
X150722Y238052D01*
X150718Y238037D01*
Y238019D01*
X150722Y237982D01*
X150726Y237945D01*
X150744Y237878D01*
X150774Y237815D01*
X150807Y237763D01*
X150837Y237723D01*
X150866Y237689D01*
X150885Y237671D01*
X150892Y237667D01*
Y237664D01*
X150929Y237638D01*
X150966Y237615D01*
X151051Y237578D01*
X151140Y237552D01*
X151225Y237534D01*
X151303Y237523D01*
X151336Y237519D01*
X151366D01*
X151392Y237515D01*
X151410D01*
X151421D01*
X151425D01*
X151492D01*
X151555Y237523D01*
X151614Y237530D01*
X151665Y237538D01*
X151714Y237549D01*
X151758Y237560D01*
X151799Y237571D01*
X151836Y237586D01*
X151865Y237601D01*
X151891Y237612D01*
X151913Y237623D01*
X151932Y237634D01*
X151947Y237645D01*
X151958Y237649D01*
X151962Y237656D01*
X151965D01*
X151995Y237682D01*
X152024Y237712D01*
X152065Y237771D01*
X152098Y237830D01*
X152117Y237885D01*
X152132Y237934D01*
X152135Y237974D01*
X152139Y237989D01*
Y238008D01*
X152135Y238048D01*
X152132Y238085D01*
X152110Y238156D01*
X152084Y238218D01*
X152050Y238270D01*
X152017Y238311D01*
X151987Y238344D01*
X151965Y238363D01*
X151962Y238370D01*
X151958D01*
X151921Y238396D01*
X151884Y238418D01*
X151795Y238455D01*
X151702Y238481D01*
X151614Y238500D01*
X151569Y238507D01*
X151529Y238511D01*
X151492Y238514D01*
X151462D01*
X151436Y238518D01*
D02*
G37*
G36*
X151432Y235318D02*
X151314Y235314D01*
X151240Y235310D01*
X151177Y235307D01*
X151125Y235299D01*
X151081Y235288D01*
X151048Y235277D01*
X151022Y235270D01*
X151007Y235266D01*
X151003Y235262D01*
X150955Y235233D01*
X150911Y235203D01*
X150874Y235166D01*
X150844Y235133D01*
X150818Y235103D01*
X150800Y235077D01*
X150789Y235062D01*
X150785Y235055D01*
X150759Y234999D01*
X150741Y234944D01*
X150726Y234892D01*
X150718Y234840D01*
X150711Y234800D01*
X150707Y234763D01*
Y234733D01*
X150711Y234666D01*
X150718Y234611D01*
X150733Y234563D01*
X150748Y234522D01*
X150763Y234493D01*
X150777Y234470D01*
X150785Y234456D01*
X150789Y234452D01*
X150822Y234422D01*
X150859Y234400D01*
X150892Y234382D01*
X150926Y234370D01*
X150955Y234363D01*
X150977Y234359D01*
X150996D01*
X150999D01*
X151029Y234363D01*
X151059Y234367D01*
X151081Y234374D01*
X151103Y234382D01*
X151122Y234389D01*
X151136Y234393D01*
X151144Y234400D01*
X151147D01*
X151192Y234437D01*
X151222Y234482D01*
X151233Y234496D01*
X151240Y234511D01*
X151247Y234522D01*
Y234526D01*
X151262Y234563D01*
X151273Y234604D01*
X151284Y234648D01*
X151292Y234692D01*
X151299Y234733D01*
X151307Y234770D01*
X151310Y234792D01*
Y234800D01*
X151321Y234863D01*
X151329Y234922D01*
X151340Y234974D01*
X151351Y235025D01*
X151362Y235073D01*
X151373Y235114D01*
X151381Y235155D01*
X151392Y235188D01*
X151399Y235218D01*
X151407Y235244D01*
X151414Y235266D01*
X151421Y235284D01*
X151425Y235299D01*
X151429Y235310D01*
X151432Y235314D01*
Y235318D01*
D02*
G37*
G36*
X116058Y263957D02*
X116040D01*
X116025D01*
X116021D01*
X115958D01*
X115899Y263950D01*
X115847Y263942D01*
X115796Y263935D01*
X115751Y263924D01*
X115707Y263909D01*
X115670Y263898D01*
X115636Y263883D01*
X115607Y263868D01*
X115577Y263857D01*
X115559Y263843D01*
X115540Y263831D01*
X115525Y263824D01*
X115514Y263817D01*
X115510Y263809D01*
X115507D01*
X115477Y263783D01*
X115451Y263754D01*
X115411Y263695D01*
X115381Y263635D01*
X115363Y263580D01*
X115348Y263532D01*
X115344Y263491D01*
X115340Y263476D01*
Y263458D01*
X115344Y263421D01*
X115348Y263384D01*
X115366Y263317D01*
X115396Y263254D01*
X115429Y263202D01*
X115459Y263162D01*
X115488Y263128D01*
X115507Y263110D01*
X115514Y263106D01*
Y263103D01*
X115551Y263077D01*
X115588Y263054D01*
X115673Y263017D01*
X115762Y262991D01*
X115847Y262973D01*
X115925Y262962D01*
X115958Y262958D01*
X115988D01*
X116014Y262954D01*
X116032D01*
X116043D01*
X116047D01*
X116114D01*
X116176Y262962D01*
X116236Y262969D01*
X116288Y262977D01*
X116336Y262988D01*
X116380Y262999D01*
X116421Y263010D01*
X116458Y263025D01*
X116487Y263040D01*
X116513Y263051D01*
X116535Y263062D01*
X116554Y263073D01*
X116569Y263084D01*
X116580Y263088D01*
X116584Y263095D01*
X116587D01*
X116617Y263121D01*
X116647Y263151D01*
X116687Y263210D01*
X116720Y263269D01*
X116739Y263324D01*
X116754Y263373D01*
X116757Y263413D01*
X116761Y263428D01*
Y263447D01*
X116757Y263487D01*
X116754Y263524D01*
X116732Y263595D01*
X116706Y263657D01*
X116672Y263709D01*
X116639Y263750D01*
X116609Y263783D01*
X116587Y263802D01*
X116584Y263809D01*
X116580D01*
X116543Y263835D01*
X116506Y263857D01*
X116417Y263894D01*
X116324Y263920D01*
X116236Y263939D01*
X116191Y263946D01*
X116151Y263950D01*
X116114Y263953D01*
X116084D01*
X116058Y263957D01*
D02*
G37*
G36*
X116054Y260757D02*
X115936Y260753D01*
X115862Y260749D01*
X115799Y260746D01*
X115747Y260738D01*
X115703Y260727D01*
X115670Y260716D01*
X115644Y260709D01*
X115629Y260705D01*
X115625Y260701D01*
X115577Y260672D01*
X115533Y260642D01*
X115496Y260605D01*
X115466Y260572D01*
X115440Y260542D01*
X115422Y260516D01*
X115411Y260501D01*
X115407Y260494D01*
X115381Y260438D01*
X115363Y260383D01*
X115348Y260331D01*
X115340Y260279D01*
X115333Y260239D01*
X115329Y260202D01*
Y260172D01*
X115333Y260105D01*
X115340Y260050D01*
X115355Y260002D01*
X115370Y259961D01*
X115385Y259932D01*
X115400Y259909D01*
X115407Y259895D01*
X115411Y259891D01*
X115444Y259861D01*
X115481Y259839D01*
X115514Y259821D01*
X115548Y259809D01*
X115577Y259802D01*
X115599Y259798D01*
X115618D01*
X115622D01*
X115651Y259802D01*
X115681Y259806D01*
X115703Y259813D01*
X115725Y259821D01*
X115744Y259828D01*
X115758Y259832D01*
X115766Y259839D01*
X115770D01*
X115814Y259876D01*
X115844Y259921D01*
X115855Y259935D01*
X115862Y259950D01*
X115869Y259961D01*
Y259965D01*
X115884Y260002D01*
X115895Y260043D01*
X115906Y260087D01*
X115914Y260131D01*
X115921Y260172D01*
X115929Y260209D01*
X115932Y260231D01*
Y260239D01*
X115944Y260302D01*
X115951Y260361D01*
X115962Y260413D01*
X115973Y260464D01*
X115984Y260512D01*
X115995Y260553D01*
X116003Y260594D01*
X116014Y260627D01*
X116021Y260657D01*
X116028Y260683D01*
X116036Y260705D01*
X116043Y260723D01*
X116047Y260738D01*
X116051Y260749D01*
X116054Y260753D01*
Y260757D01*
D02*
G37*
G36*
X123674Y219432D02*
X123670D01*
X123674Y219314D01*
X123678Y219240D01*
X123682Y219177D01*
X123689Y219125D01*
X123700Y219081D01*
X123711Y219048D01*
X123719Y219022D01*
X123722Y219007D01*
X123726Y219003D01*
X123756Y218955D01*
X123785Y218911D01*
X123822Y218874D01*
X123855Y218844D01*
X123885Y218818D01*
X123911Y218800D01*
X123926Y218789D01*
X123933Y218785D01*
X123989Y218759D01*
X124044Y218741D01*
X124096Y218726D01*
X124148Y218718D01*
X124188Y218711D01*
X124225Y218707D01*
X124255D01*
X124322Y218711D01*
X124377Y218718D01*
X124425Y218733D01*
X124466Y218748D01*
X124496Y218763D01*
X124518Y218777D01*
X124533Y218785D01*
X124536Y218789D01*
X124566Y218822D01*
X124588Y218859D01*
X124607Y218892D01*
X124618Y218925D01*
X124625Y218955D01*
X124629Y218977D01*
Y218996D01*
Y219000D01*
X124625Y219029D01*
X124621Y219059D01*
X124614Y219081D01*
X124607Y219103D01*
X124599Y219122D01*
X124595Y219136D01*
X124588Y219144D01*
Y219147D01*
X124551Y219192D01*
X124507Y219221D01*
X124492Y219233D01*
X124477Y219240D01*
X124466Y219247D01*
X124462D01*
X124425Y219262D01*
X124385Y219273D01*
X124340Y219284D01*
X124296Y219292D01*
X124255Y219299D01*
X124218Y219307D01*
X124196Y219310D01*
X124188D01*
X124126Y219321D01*
X124066Y219329D01*
X124015Y219340D01*
X123963Y219351D01*
X123915Y219362D01*
X123874Y219373D01*
X123833Y219381D01*
X123800Y219392D01*
X123770Y219399D01*
X123744Y219407D01*
X123722Y219414D01*
X123704Y219421D01*
X123689Y219425D01*
X123678Y219429D01*
X123674Y219432D01*
D02*
G37*
G36*
X120999Y220139D02*
X120981D01*
X120940Y220135D01*
X120903Y220132D01*
X120833Y220110D01*
X120770Y220084D01*
X120718Y220050D01*
X120677Y220017D01*
X120644Y219987D01*
X120625Y219965D01*
X120618Y219962D01*
Y219958D01*
X120592Y219921D01*
X120570Y219884D01*
X120533Y219795D01*
X120507Y219703D01*
X120489Y219614D01*
X120481Y219569D01*
X120477Y219529D01*
X120474Y219492D01*
Y219462D01*
X120470Y219436D01*
Y219418D01*
Y219403D01*
Y219399D01*
Y219336D01*
X120477Y219277D01*
X120485Y219225D01*
X120492Y219173D01*
X120503Y219129D01*
X120518Y219085D01*
X120529Y219048D01*
X120544Y219014D01*
X120559Y218985D01*
X120570Y218955D01*
X120585Y218937D01*
X120596Y218918D01*
X120603Y218903D01*
X120611Y218892D01*
X120618Y218888D01*
Y218885D01*
X120644Y218855D01*
X120674Y218829D01*
X120733Y218789D01*
X120792Y218759D01*
X120847Y218741D01*
X120896Y218726D01*
X120936Y218722D01*
X120951Y218718D01*
X120969D01*
X121007Y218722D01*
X121044Y218726D01*
X121110Y218744D01*
X121173Y218774D01*
X121225Y218807D01*
X121265Y218837D01*
X121299Y218866D01*
X121317Y218885D01*
X121321Y218892D01*
X121325D01*
X121351Y218929D01*
X121373Y218966D01*
X121410Y219051D01*
X121436Y219140D01*
X121454Y219225D01*
X121465Y219303D01*
X121469Y219336D01*
Y219366D01*
X121473Y219392D01*
Y219410D01*
Y219421D01*
Y219425D01*
Y219492D01*
X121465Y219554D01*
X121458Y219614D01*
X121450Y219666D01*
X121439Y219714D01*
X121428Y219758D01*
X121417Y219799D01*
X121402Y219836D01*
X121388Y219865D01*
X121377Y219891D01*
X121365Y219913D01*
X121354Y219932D01*
X121343Y219947D01*
X121339Y219958D01*
X121332Y219962D01*
Y219965D01*
X121306Y219995D01*
X121277Y220024D01*
X121217Y220065D01*
X121158Y220098D01*
X121103Y220117D01*
X121055Y220132D01*
X121014Y220135D01*
X120999Y220139D01*
D02*
G37*
%LPD*%
D10*
X150465Y255043D02*
G03*
X148890Y253468I0J-1575D01*
G01*
X155110D02*
G03*
X153535Y255043I-1575J-0D01*
G01*
X153535Y242957D02*
G03*
X155110Y244531I0J1575D01*
G01*
X148890Y244531D02*
G03*
X150465Y242957I1575J0D01*
G01*
X145839Y224500D02*
G03*
X145839Y224500I-394J0D01*
G01*
X137000Y217138D02*
Y221862D01*
X115638Y248927D02*
X120362D01*
X155110Y250575D02*
Y253468D01*
X155110Y244531D02*
Y247425D01*
X148890Y244531D02*
Y247425D01*
X150465Y255043D02*
X153535D01*
X150465Y242957D02*
X153535D01*
X148890Y250575D02*
Y253468D01*
X186138Y241039D02*
Y242929D01*
X190862Y241039D02*
Y242929D01*
D12*
X213378Y245705D02*
Y246945D01*
Y248323D02*
Y249563D01*
X211646Y245705D02*
Y246945D01*
Y248323D02*
Y249563D01*
X213378D01*
X211646Y245705D02*
X213378D01*
X193866Y242071D02*
Y243311D01*
Y244689D02*
Y245929D01*
X192134Y242071D02*
Y243311D01*
Y244689D02*
Y245929D01*
X193866D01*
X192134Y242071D02*
X193866D01*
X192134Y240689D02*
Y241929D01*
Y238071D02*
Y239311D01*
X193866Y240689D02*
Y241929D01*
Y238071D02*
Y239311D01*
X192134Y238071D02*
X193866D01*
X192134Y241929D02*
X193866D01*
X202429Y247890D02*
Y249622D01*
X198571Y247890D02*
Y249622D01*
Y247890D02*
X199811D01*
X201189D02*
X202429D01*
X198571Y249622D02*
X199811D01*
X201189D02*
X202429D01*
X205071Y250634D02*
Y252366D01*
X208929Y250634D02*
Y252366D01*
X207689D02*
X208929D01*
X205071D02*
X206311D01*
X207689Y250634D02*
X208929D01*
X205071D02*
X206311D01*
D15*
X145543Y234126D02*
Y249874D01*
X125701Y234126D02*
Y249874D01*
M02*
