G04*
G04 #@! TF.GenerationSoftware,Altium Limited,Altium Designer,19.0.4 (130)*
G04*
G04 Layer_Color=16711935*
%FSLAX25Y25*%
%MOIN*%
G70*
G01*
G75*
%ADD40R,0.01981X0.01863*%
%ADD44R,0.01863X0.01981*%
%ADD63R,0.06706X0.06706*%
%ADD64C,0.06706*%
%ADD65R,0.06706X0.06706*%
%ADD83R,0.05524X0.06312*%
%ADD84R,0.06312X0.05524*%
%ADD85R,0.04658X0.04461*%
G04:AMPARAMS|DCode=86|XSize=85.56mil|YSize=31.23mil|CornerRadius=6.9mil|HoleSize=0mil|Usage=FLASHONLY|Rotation=90.000|XOffset=0mil|YOffset=0mil|HoleType=Round|Shape=RoundedRectangle|*
%AMROUNDEDRECTD86*
21,1,0.08556,0.01742,0,0,90.0*
21,1,0.07175,0.03123,0,0,90.0*
1,1,0.01381,0.00871,0.03588*
1,1,0.01381,0.00871,-0.03588*
1,1,0.01381,-0.00871,-0.03588*
1,1,0.01381,-0.00871,0.03588*
%
%ADD86ROUNDEDRECTD86*%
%ADD87R,0.06312X0.03753*%
D40*
X212512Y246512D02*
D03*
Y248756D02*
D03*
X193000Y242878D02*
D03*
Y245122D02*
D03*
Y241122D02*
D03*
Y238878D02*
D03*
D44*
X199378Y248756D02*
D03*
X201622D02*
D03*
X208122Y251500D02*
D03*
X205878D02*
D03*
D63*
X163883Y218473D02*
D03*
X184000Y218500D02*
D03*
X115592Y228664D02*
D03*
D64*
X163883Y228473D02*
D03*
X203000Y219000D02*
D03*
X174000Y228500D02*
D03*
X184000D02*
D03*
X174000Y218500D02*
D03*
X115592Y218664D02*
D03*
X160500Y281000D02*
D03*
D65*
X213000Y219000D02*
D03*
X170500Y281000D02*
D03*
D83*
X140543Y219500D02*
D03*
X133457D02*
D03*
D84*
X118000Y252470D02*
D03*
Y245384D02*
D03*
D85*
X152000Y245969D02*
D03*
Y252031D02*
D03*
D86*
X143122Y232256D02*
D03*
X138122D02*
D03*
X133122D02*
D03*
X128122D02*
D03*
Y251744D02*
D03*
X133122D02*
D03*
X138122D02*
D03*
X143122D02*
D03*
D87*
X188500Y244839D02*
D03*
Y239130D02*
D03*
M02*
