G04*
G04 #@! TF.GenerationSoftware,Altium Limited,Altium Designer,19.0.4 (130)*
G04*
G04 Layer_Color=8388736*
%FSLAX25Y25*%
%MOIN*%
G70*
G01*
G75*
%ADD40R,0.01981X0.01863*%
%ADD41R,0.08083X0.03950*%
%ADD42R,0.04540X0.06312*%
%ADD43R,0.05328X0.03753*%
%ADD44R,0.01863X0.01981*%
%ADD45R,0.06706X0.07099*%
%ADD46R,0.05524X0.05524*%
%ADD47R,0.04461X0.04658*%
%ADD48R,0.02769X0.03162*%
%ADD49R,0.03162X0.04147*%
%ADD50R,0.04737X0.04147*%
G04:AMPARAMS|DCode=51|XSize=85.56mil|YSize=31.62mil|CornerRadius=6.95mil|HoleSize=0mil|Usage=FLASHONLY|Rotation=0.000|XOffset=0mil|YOffset=0mil|HoleType=Round|Shape=RoundedRectangle|*
%AMROUNDEDRECTD51*
21,1,0.08556,0.01772,0,0,0.0*
21,1,0.07165,0.03162,0,0,0.0*
1,1,0.01391,0.03583,-0.00886*
1,1,0.01391,-0.03583,-0.00886*
1,1,0.01391,-0.03583,0.00886*
1,1,0.01391,0.03583,0.00886*
%
%ADD51ROUNDEDRECTD51*%
%ADD52R,0.03800X0.04000*%
%ADD53R,0.04147X0.04540*%
%ADD54R,0.03950X0.03753*%
%ADD55R,0.03753X0.03950*%
%ADD56R,0.03359X0.02769*%
%ADD57C,0.01102*%
%ADD58R,0.03162X0.02769*%
%ADD59R,0.08674X0.08280*%
%ADD60R,0.02375X0.06115*%
%ADD61R,0.07099X0.06312*%
%ADD62R,0.09855X0.05918*%
%ADD63R,0.06706X0.06706*%
%ADD64C,0.06706*%
%ADD65R,0.06706X0.06706*%
D40*
X113270Y259598D02*
D03*
Y257354D02*
D03*
X163500Y266622D02*
D03*
Y264378D02*
D03*
X155168Y248961D02*
D03*
Y246718D02*
D03*
X224000Y256122D02*
D03*
Y253878D02*
D03*
X223897Y260772D02*
D03*
Y263016D02*
D03*
X112000Y268244D02*
D03*
Y266000D02*
D03*
X163500Y261866D02*
D03*
Y259622D02*
D03*
X213890Y260000D02*
D03*
Y257756D02*
D03*
X210658Y260122D02*
D03*
Y257878D02*
D03*
X207000D02*
D03*
Y260122D02*
D03*
X217500Y245256D02*
D03*
Y247500D02*
D03*
D41*
X223878Y269807D02*
D03*
Y283193D02*
D03*
D42*
X199669Y277000D02*
D03*
X183331D02*
D03*
D43*
X197701Y270996D02*
D03*
Y283004D02*
D03*
X185299Y270996D02*
D03*
Y283004D02*
D03*
D44*
X168878Y268000D02*
D03*
X171122D02*
D03*
X176041Y268000D02*
D03*
X173797D02*
D03*
X148063Y252143D02*
D03*
X150307D02*
D03*
X221512Y258477D02*
D03*
X223756D02*
D03*
X148063Y255021D02*
D03*
X150307D02*
D03*
X118336Y246664D02*
D03*
X116092D02*
D03*
Y244164D02*
D03*
X118336D02*
D03*
X116092Y241664D02*
D03*
X118336D02*
D03*
Y239164D02*
D03*
X116092D02*
D03*
X118336Y236664D02*
D03*
X116092D02*
D03*
X222634Y239768D02*
D03*
X224878D02*
D03*
X219878Y247378D02*
D03*
X222122D02*
D03*
X221634Y236256D02*
D03*
X223878D02*
D03*
X224256Y222413D02*
D03*
X222012D02*
D03*
X196122Y235500D02*
D03*
X193878D02*
D03*
X206744D02*
D03*
X204500D02*
D03*
D45*
X160250Y242349D02*
D03*
D46*
X173045Y246286D02*
D03*
X172848Y238412D02*
D03*
D47*
X120217Y253143D02*
D03*
X114154D02*
D03*
X140717Y254267D02*
D03*
X134654D02*
D03*
D48*
X197000Y263965D02*
D03*
Y260028D02*
D03*
X160000Y260032D02*
D03*
Y263968D02*
D03*
D49*
X176240Y255965D02*
D03*
Y264035D02*
D03*
X168760D02*
D03*
D50*
X169547Y255965D02*
D03*
D51*
X148580Y247164D02*
D03*
Y242164D02*
D03*
Y237164D02*
D03*
Y232164D02*
D03*
Y227164D02*
D03*
Y222164D02*
D03*
Y217164D02*
D03*
X129092D02*
D03*
Y222164D02*
D03*
Y227164D02*
D03*
Y232164D02*
D03*
Y237164D02*
D03*
Y242164D02*
D03*
Y247164D02*
D03*
D52*
X186250Y260500D02*
D03*
X191750D02*
D03*
X186250Y241500D02*
D03*
X191750D02*
D03*
D53*
X224898Y232268D02*
D03*
X220370D02*
D03*
Y226559D02*
D03*
X224898D02*
D03*
D54*
X200232Y233157D02*
D03*
Y227842D02*
D03*
X195000Y226220D02*
D03*
Y231535D02*
D03*
X202000Y264158D02*
D03*
Y258843D02*
D03*
D55*
X210658Y231846D02*
D03*
X205343D02*
D03*
X191657Y251500D02*
D03*
X186343D02*
D03*
Y246378D02*
D03*
X191657D02*
D03*
D56*
X210870Y227500D02*
D03*
X207130D02*
D03*
D57*
X212512Y241866D02*
D03*
X211134D02*
D03*
X209756D02*
D03*
X208378D02*
D03*
X207000D02*
D03*
X205622D02*
D03*
X204244D02*
D03*
X202866D02*
D03*
X201488D02*
D03*
X211134Y243244D02*
D03*
X209756D02*
D03*
X208378D02*
D03*
X207000D02*
D03*
X205622D02*
D03*
X204244D02*
D03*
X202866D02*
D03*
X201488D02*
D03*
X209756Y244622D02*
D03*
X208378D02*
D03*
X207000D02*
D03*
X205622D02*
D03*
X204244D02*
D03*
X202866D02*
D03*
X201488D02*
D03*
X211134Y246000D02*
D03*
X209756D02*
D03*
X208378D02*
D03*
X207000D02*
D03*
X205622D02*
D03*
X204244D02*
D03*
X202866D02*
D03*
X201488D02*
D03*
X213890Y247378D02*
D03*
X212512D02*
D03*
X211134D02*
D03*
X209756D02*
D03*
X208378D02*
D03*
X207000D02*
D03*
X205622D02*
D03*
X204244D02*
D03*
X202866D02*
D03*
X201488D02*
D03*
X213890Y248756D02*
D03*
X212512D02*
D03*
X211134D02*
D03*
X209756D02*
D03*
X208378D02*
D03*
X207000D02*
D03*
X205622D02*
D03*
X204244D02*
D03*
X202866D02*
D03*
X201488D02*
D03*
X213890Y250134D02*
D03*
X212512D02*
D03*
X211134D02*
D03*
X209756D02*
D03*
X208378D02*
D03*
X207000D02*
D03*
X205622D02*
D03*
X204244D02*
D03*
X202866D02*
D03*
X201488D02*
D03*
X213890Y251512D02*
D03*
X212512D02*
D03*
X209756D02*
D03*
X208378D02*
D03*
X207000D02*
D03*
X205622D02*
D03*
X204244D02*
D03*
X202866D02*
D03*
X201488D02*
D03*
X213890Y252890D02*
D03*
X212512D02*
D03*
X211134D02*
D03*
X209756D02*
D03*
X208378D02*
D03*
X207000D02*
D03*
X205622D02*
D03*
X204244D02*
D03*
X202866D02*
D03*
X201488D02*
D03*
X213890Y254268D02*
D03*
X212512D02*
D03*
X211134D02*
D03*
X209756D02*
D03*
X208378D02*
D03*
X207000D02*
D03*
X205622D02*
D03*
X204244D02*
D03*
X202866D02*
D03*
X213890Y241866D02*
D03*
X212512Y244622D02*
D03*
X213890D02*
D03*
X201488Y254268D02*
D03*
D58*
X188031Y256000D02*
D03*
X191969D02*
D03*
D59*
X139500Y278000D02*
D03*
X129657D02*
D03*
D60*
X129461Y267469D02*
D03*
X139697D02*
D03*
X137138D02*
D03*
X134579D02*
D03*
X132020D02*
D03*
D61*
X147177Y268354D02*
D03*
X121980D02*
D03*
D62*
X119815Y278000D02*
D03*
X149343D02*
D03*
D63*
X163883Y218473D02*
D03*
X184000Y218500D02*
D03*
X115592Y228664D02*
D03*
D64*
X163883Y228473D02*
D03*
X203000Y219000D02*
D03*
X174000Y228500D02*
D03*
X184000D02*
D03*
X174000Y218500D02*
D03*
X115592Y218664D02*
D03*
X160500Y281000D02*
D03*
D65*
X213000Y219000D02*
D03*
X170500Y281000D02*
D03*
M02*
